<?xml version="1.0" encoding="UTF-8"?>
<svg width="512px" height="512px" viewBox="0 0 512 512" version="1.1" xmlns="http://www.w3.org/2000/svg" xmlns:xlink="http://www.w3.org/1999/xlink">
    <title>Distopia</title>
    <g id="Distopia" stroke="none" stroke-width="1" fill="none" fill-rule="evenodd">
        <g id="Group-4" transform="translate(196.000000, 54.000000)" stroke="#2F2F2F" stroke-width="4">
            <path d="M151.57208,23.5355333 C150.05227,23.4434345 148.526915,23.5445432 147.032558,23.8364371 C142.154189,24.7893326 138.123892,27.6293672 135.551411,31.4507702 C132.97893,35.2721732 131.864266,40.0749447 132.817161,44.9533137 C138.916754,76.1803134 141.966813,107.926905 141.966813,140.193141 C141.966813,171.777645 138.182376,202.556136 130.614828,232.528781 C130.148055,234.37752 129.977992,236.288683 130.111001,238.190793 C130.45773,243.149248 132.781445,247.497747 136.258091,250.519949 C139.734738,253.542152 144.364316,255.238059 149.32277,254.891329 L163.484077,253.901074 C164.649706,253.819566 165.804629,253.62475 166.932498,253.319386 C171.730324,252.020402 175.547423,248.899689 177.840319,244.904266 C180.133215,240.908843 180.901909,236.038709 179.602925,231.240884 C171.112321,199.880657 167.709047,168.78677 169.387788,137.95976 C171.092181,106.661687 173.781924,75.3941257 177.457031,44.1570764 C177.496707,43.8198462 177.526833,43.4815607 177.547372,43.1426263 C177.84803,38.1811656 176.109197,33.5675399 173.054833,30.1191144 C170.00047,26.6706887 165.630576,24.3874632 160.669115,24.0868033 L151.57208,23.5355333 Z" id="Rectangle-6" fill="#FFFFFF" transform="translate(155.150305, 139.219288) rotate(4.000000) translate(-155.150305, -139.219288) "></path>
            <path d="M156.361998,280.770531 C171.273686,280.770531 185.244961,259.225397 185.244961,241 C185.244961,222.774603 161.911688,208 147,208 C132.088312,208 120,222.774603 120,241 C120,259.225397 141.45031,280.770531 156.361998,280.770531 Z" id="Oval-4" fill="#2F2F2F"></path>
            <path d="M167.142826,56.4999426 C182.054514,56.4999426 192.224978,44.3693546 192.224978,28.0629982 C192.224978,11.7566418 169.716171,6 154.804482,6 C139.892794,6 131,6.88127557 131,23.1876319 C131,39.4939883 152.231138,56.4999426 167.142826,56.4999426 Z" id="Oval-4" fill="#2F2F2F"></path>
            <ellipse id="Oval-4" fill="#CCCCCC" cx="159" cy="247" rx="27" ry="33"></ellipse>
            <path d="M138.273922,-28.4328247 C137.446775,-28.4328247 136.620362,-28.3835136 135.799083,-28.285154 C130.092795,-27.601746 125.203726,-24.6701058 121.912082,-20.4827454 C118.620439,-16.2953856 116.926219,-10.852306 117.60963,-5.14601854 C118.798655,4.78205107 119.393036,14.6540347 119.393036,24.4699175 C119.393036,34.78477 118.736646,45.4342126 117.422873,56.4181885 C117.323889,57.245811 117.274261,58.0786076 117.274261,58.9121436 C117.274261,64.7110399 119.624728,69.9609551 123.42492,73.7611463 C127.225111,77.5613375 132.475026,79.9118046 138.273922,79.9118046 C139.074409,79.9118046 139.87424,79.866004 140.669494,79.7746272 C146.426709,79.1131084 151.370755,76.1806434 154.710121,71.9742544 C158.049489,67.7678632 159.784174,62.2875467 159.122665,56.5303279 C157.910563,45.9813751 157.304488,35.3785181 157.304488,24.7217575 C157.304488,14.4995695 157.862155,4.51703885 158.976948,-5.22586599 C159.066917,-6.01226229 159.112019,-6.80317371 159.112019,-7.59472814 C159.112019,-13.3490096 156.779636,-18.5585337 153.008682,-22.3294875 C149.237728,-26.1004413 144.028204,-28.4328247 138.273922,-28.4328247 Z" id="Rectangle-6" fill="#FFFFFF" transform="translate(138.268108, 25.739490) rotate(-92.000000) translate(-138.268108, -25.739490) "></path>
            <g id="Group-3" transform="translate(74.000000, 1.000000)">
                <ellipse id="Oval-4" fill="#2F2F2F" cx="23.5" cy="25" rx="17.5" ry="25"></ellipse>
                <ellipse id="Oval-4" fill="#2F2F2F" cx="20.5" cy="25" rx="17.5" ry="25"></ellipse>
                <ellipse id="Oval-4" fill="#CCCCCC" cx="17.5" cy="25" rx="17.5" ry="25"></ellipse>
            </g>
            <path d="M69.8945657,2.8037844 C69.2049493,2.8037844 68.5159585,2.84530507 67.8313329,2.92812103 C63.1213387,3.49786701 59.0881745,5.92277741 56.3749441,9.38274985 C53.6617129,12.8427233 52.2684162,17.3377593 52.8381583,22.0477553 C53.4666947,27.2437601 53.780846,32.4168842 53.780846,37.567112 C53.780846,43.0885558 53.419745,48.75217 52.696652,54.5579009 C52.6081388,55.2684806 52.5637631,55.9838308 52.5637631,56.6998692 C52.5637631,61.4856382 54.5035793,65.8183389 57.6398377,68.9545973 C60.7760961,72.0908557 65.1087967,74.0306719 69.8945657,74.0306719 C70.5691086,74.0306719 71.2430774,73.9913316 71.9130392,73.9128513 C76.6712764,73.3554651 80.7531261,70.9221895 83.5060648,67.4387012 C86.2590001,63.955217 87.6830272,59.4215227 87.1256244,54.6632932 C86.4672992,49.0433705 86.1381289,43.4008575 86.1381289,37.7357461 C86.1381289,32.3883104 86.4314258,27.1381569 87.0176258,21.985263 C87.091232,21.3384983 87.1281024,20.688171 87.1281024,20.0373211 C87.1281024,15.2784114 85.1991731,10.9700272 82.0805164,7.85137044 C78.9618596,4.7327137 74.6534755,2.8037844 69.8945657,2.8037844 Z" id="Rectangle-6" fill="#FFFFFF" transform="translate(69.904548, 38.417228) rotate(-125.000000) translate(-69.904548, -38.417228) "></path>
            <g id="Group-2" transform="translate(49.177741, 56.861216) rotate(-60.000000) translate(-49.177741, -56.861216) translate(40.677741, 31.861216)">
                <ellipse id="Oval-4" fill="#2F2F2F" cx="9" cy="25" rx="6" ry="25"></ellipse>
                <ellipse id="Oval-4" fill="#2F2F2F" cx="11" cy="25" rx="6" ry="25"></ellipse>
                <ellipse id="Oval-4" fill="#CCCCCC" cx="6" cy="25" rx="6" ry="25"></ellipse>
            </g>
            <path d="M49.9128276,56.3429551 C49.3981339,55.6938154 48.6690504,55.3147505 47.9063554,55.2266441 C47.1436607,55.1385377 46.3473545,55.3413896 45.6982152,55.8560833 L21.191822,75.2868556 C20.4609723,75.866336 20.0412201,76.7527794 20.0560762,77.6853666 C20.0717974,78.6725092 20.0796947,79.8265627 20.0796947,81.1475359 C20.0796947,87.7714101 18.9480404,94.6968231 16.6720459,101.921957 C16.6188924,102.090693 16.5807685,102.263799 16.5581199,102.439253 C16.4520615,103.260862 16.6890667,104.047679 17.1579888,104.655607 C17.6269109,105.263536 18.32775,105.692577 19.1493594,105.798635 L19.743028,105.875013 C28.8620251,107.044148 34.9093907,107.637121 37.8847746,107.637121 C40.7906966,107.637121 45.9316323,107.066452 53.7659362,105.838493 C54.5554804,105.587672 55.1686133,105.04057 55.5216549,104.358788 C55.8754558,103.675538 55.9680454,102.857028 55.7152024,102.065903 L55.4513878,101.217527 C53.4408846,94.6115936 52.4369775,87.9591999 52.4369775,81.2607403 C52.4369775,74.6805124 51.8002765,66.8575819 50.5332087,57.7915804 C50.4592012,57.2620491 50.2450177,56.7619184 49.9128276,56.3429551 Z" id="Rectangle-6" fill="#FFFFFF" transform="translate(36.195928, 81.421874) rotate(-153.000000) translate(-36.195928, -81.421874) "></path>
            <g id="Group-2" transform="translate(32.598588, 99.370122) rotate(-96.000000) translate(-32.598588, -99.370122) translate(24.098588, 74.370122)">
                <ellipse id="Oval-4" fill="#2F2F2F" cx="9" cy="25" rx="6" ry="25"></ellipse>
                <ellipse id="Oval-4" fill="#2F2F2F" cx="11" cy="25" rx="6" ry="25"></ellipse>
                <ellipse id="Oval-4" fill="#CCCCCC" cx="6" cy="25" rx="6" ry="25"></ellipse>
            </g>
            <path d="M76.4552159,161.918537 C70.7902994,161.308693 66.6648329,161.193932 64.0837549,161.622825 C63.0627607,161.792481 62.3135356,163.181295 61.440933,164.990286 C60.269538,167.418704 59.1478709,170.867905 58.056359,175.330293 C62.2975549,178.700391 65.5616459,182.28268 67.8675007,186.060846 C69.0606859,188.015892 70.9271415,192.333992 73.0595394,197.304586 C76.9421307,206.354859 81.544868,218.793805 84.6480302,219.45914 C86.335235,219.820886 89.1123657,222.393441 93.4403514,226.986812 C95.0179221,228.661116 96.84154,230.596705 98.9521636,232.746872 C100.811228,234.640768 103.898094,235.173034 108.026448,234.724318 C95.8667892,205.987946 89.8301569,190.256629 89.7107844,187.548878 C89.5957463,184.939444 85.054941,176.409176 76.4552159,161.918537 Z" id="Rectangle-7" fill="#F5F5F5" transform="translate(83.345057, 198.111230) rotate(25.000000) translate(-83.345057, -198.111230) "></path>
            <path d="M40.0815338,173.995738 C36.3211107,174.076516 33.4158702,174.799805 31.431879,176.324658 C29.2637959,177.991001 26.6209887,182.158016 23.3783633,188.698218 C26.5285862,191.28871 29.2102432,194.392934 31.4200642,198.013748 C32.6132494,199.968794 34.4797051,204.286894 36.612103,209.257488 C40.4946943,218.307761 45.0974316,230.746707 48.2005938,231.412042 C49.8877985,231.773787 52.6649293,234.346343 56.9929149,238.939713 C58.5704857,240.614018 60.3941036,242.549607 62.5047271,244.699774 C64.363792,246.59367 67.4506572,247.125936 71.5790115,246.67722 C59.4193528,217.940848 53.3827204,202.209531 53.2633479,199.50178 C53.1486392,196.899816 48.6334659,188.410867 40.0815338,173.995738 Z" id="Rectangle-7" fill="#F5F5F5" transform="translate(47.650691, 210.395643) scale(-1, 1) rotate(-300.000000) translate(-47.650691, -210.395643) "></path>
            <path d="M40.3168009,166.750546 L17.5499048,166.750546 L17.5499048,178.511165 C23.0132442,177.957083 27.2555507,178.028812 30.2814898,178.67759 C33.23711,179.31129 36.930973,180.899858 41.3478735,183.487037 C42.3886453,179.861612 42.8854195,176.986137 42.79157,174.857328 C42.6916241,172.590234 41.8445643,169.892678 40.3168009,166.750546 Z" id="Rectangle-7" fill="#D8D8D8" transform="translate(30.176002, 175.640752) scale(-1, 1) rotate(-357.000000) translate(-30.176002, -175.640752) "></path>
            <path d="M14.5028227,99.2508827 C14.0765955,99.1368729 13.6304673,99.118281 13.1962321,99.1964321 C12.3809036,99.3431701 11.7022394,99.8064935 11.2640922,100.436965 C10.8259453,101.067435 10.628315,101.865053 10.7750537,102.680381 C14.4317886,122.998503 16.2448885,136.811818 16.2448885,144.118908 C16.2448885,151.344528 17.1514233,158.455561 18.9644757,165.452008 C19.1882553,166.315558 19.7846893,167.034576 20.5916637,167.414138 L21.0613446,167.627926 C25.7490797,169.705277 31.5249557,170.619352 38.3752903,170.429233 C46.1380049,170.213793 51.6078863,169.228367 54.6959113,167.260597 C54.8334948,167.172926 54.9607656,167.070196 55.3246819,166.75829 C58.0187239,164.373197 60.0334767,161.077463 61.4183096,156.905881 C62.8984066,152.447332 70.3899808,140.817517 84.013954,122.063608 C84.2302023,121.765934 84.3898482,121.43102 84.484922,121.075585 C84.6989893,120.275292 84.568408,119.463994 84.1842362,118.799254 C83.8000652,118.134515 83.1623045,117.616332 82.3620122,117.402267 L14.5028227,99.2508827 Z" id="Rectangle-6" fill="#FFFFFF" transform="translate(47.657404, 134.801300) scale(-1, 1) rotate(-172.000000) translate(-47.657404, -134.801300) "></path>
            <path d="M89.9989446,151.160928 L67.2320484,151.160928 L67.2320484,162.921547 C72.6953878,162.367465 76.9376943,162.439194 79.9636334,163.087972 C82.9192536,163.721672 86.6131166,165.31024 91.0300171,167.897419 C92.0707889,164.271994 92.5675631,161.396519 92.4737136,159.26771 C92.3737677,157.000616 91.5267079,154.303061 89.9989446,151.160928 Z" id="Rectangle-7" fill="#D8D8D8" transform="translate(79.858145, 160.051134) rotate(-25.000000) translate(-79.858145, -160.051134) "></path>
            <path d="M77,215 C80.1186124,210.965465 82.5352791,208.386479 84.25,207.263041 C85.9647209,206.139604 88.3813876,205.551923 91.5,205.5" id="Line-12" stroke-linecap="square"></path>
            <path d="M45.348147,220.524839 C48.4667594,216.490304 50.883426,213.911318 52.598147,212.78788 C54.3128679,211.664443 56.7295346,211.076762 59.848147,211.024839" id="Line-12" stroke-linecap="square" transform="translate(52.598147, 215.774839) scale(-1, 1) rotate(35.000000) translate(-52.598147, -215.774839) "></path>
        </g>
        <g id="Group" transform="translate(33.000000, 319.000000)" stroke="#2F2F2F" stroke-width="4">
            <path d="M360.796313,2 L87.6675812,2 L3.54537419,141.209289 L442.507001,141.209289 L360.796313,2 Z" id="Rectangle-5" fill="#FFFFFF"></path>
            <path d="M171.155182,126.957684 C169.265222,126.699684 165.614582,125.949765 163.035125,125.315658 C160.45259,124.682699 153.089748,123.322753 146.791933,122.313687 C136.52951,120.695741 134.768831,120.484754 130.425616,120.366648 C126.522571,120.272621 125.137421,120.343714 123.373663,120.694594 C121.674546,121.022541 120.289396,121.093634 117.580658,120.999607 C114.056221,120.882647 113.991581,120.882647 110.845751,119.310568 C109.081994,118.442542 107.321314,117.434622 106.942706,117.082596 C106.502536,116.707636 106.123929,113.916651 105.936164,110.445693 C105.748399,107.162788 105.305151,104.277776 104.991184,104.043856 C104.677217,103.832869 100.647969,102.589883 96.0523493,101.299884 C91.2689647,99.9628714 87.3659198,98.6728721 86.9226718,98.3219923 C86.482502,97.9699658 84.7187443,96.3290866 83.0811892,94.6870608 L80,91.6862357 L81.0711827,90.6072229 C81.8253199,89.81029 83.0227051,89.2472769 85.4143974,88.543224 C88.6248673,87.6052511 90.0100173,86.6672783 90.0100173,85.4242922 C90.0100173,85.143359 88.8772724,84.1113596 87.4921224,83.1263734 C85.0357897,81.3914676 84.9742275,81.273361 85.0357897,79.0694688 C85.097352,75.4104574 86.5471423,69.1026473 87.4274821,68.4696876 C88.8126321,67.5076348 96.4925192,64.7177962 98.758009,64.3416898 C99.8907539,64.1547832 102.534851,64.0137433 104.486374,64.0137433 L108.201654,64.0137433 L110.153176,62.7237439 C112.671071,61.0587848 114.561031,60.6127317 119.849226,60.3077185 C122.179356,60.1666786 124.192441,60.0267853 124.318643,59.979772 C124.383284,59.9327587 126.774976,58.6198261 129.545276,57.0718269 C132.377138,55.5008943 135.464484,53.9999084 136.406386,53.7648419 C137.351366,53.506842 142.008548,52.4748426 146.668808,51.4669231 C160.769635,48.442018 161.209805,48.2069514 163.038203,42.7901009 C165.051288,36.739144 166.12247,34.9813049 168.38796,34.136212 C169.459143,33.7371722 171.032057,33.1982392 172.0386,32.9402393 L173.737717,32.4712529 L170.841215,30.6423205 C167.944712,28.8604014 167.944712,28.7893081 168.009352,26.8663491 C168.135555,24.2863504 168.449522,23.9584039 173.359109,21.1674187 C177.449919,18.8454199 177.702324,18.7513933 182.110179,17.9785403 C184.628074,17.5324872 188.469557,17.0635008 190.670406,16.9236075 C192.874334,16.7825676 195.392229,16.4775544 196.272568,16.2436346 C201.120593,14.9307019 200.114051,15 215.913995,15 C225.231437,15 245.251472,15.3056617 270.054891,15.8445948 C302.22423,16.5245677 312.169607,16.8295809 324.76216,17.4625406 C339.743326,18.2365402 340.186574,18.2594735 342.011894,18.9394465 C343.335482,19.4325129 344.028057,19.9943793 344.403586,20.7924589 C345.348567,22.9034711 345.031521,23.8884573 342.513626,26.6782958 C340.562104,28.8592547 339.869529,30.0552274 339.241594,32.4712529 C338.736784,34.6051984 338.044209,35.9422111 336.973026,36.9501306 L335.461674,38.3811698 L337.727164,41.289115 C338.986111,42.8841275 340.937633,44.8529531 342.135019,45.6739661 C344.779116,47.4558851 344.840678,47.8790049 342.766031,52.0287894 C341.882613,53.7636952 341.190039,55.4768143 341.190039,55.8276942 C341.190039,56.2496673 342.322783,57.0236669 344.400508,58.0315864 C347.170808,59.368599 347.67254,59.8135054 348.177351,61.1505181 C348.869926,62.8384105 348.491318,64.3634764 347.358573,64.9024095 C346.792201,65.137476 346.918403,65.7463557 347.737181,67.3654482 C349.624063,71.0944063 350.002671,71.4922994 353.403983,74.0493648 C355.290865,75.4333907 359.070786,78.5752558 361.902648,81.0382945 C366.750673,85.3061856 367,85.6111988 367,87.2532246 C367,89.76213 366.873797,89.8561566 362.530583,90.442103 C358.941505,90.9340227 358.627538,90.9340227 357.180826,90.5831429 C356.300486,90.3950897 350.947651,87.6281844 345.219286,84.4393061 C335.021504,78.8344023 331.998799,77.3563497 329.668669,76.8873633 C327.717146,76.4883235 330.425884,78.2943226 333.950321,79.7253618 C335.649439,80.4282681 337.788726,81.5783742 338.607503,82.2583472 C340.115778,83.4543199 340.115778,83.5013332 339.109235,84.7202393 C338.228896,85.7281587 337.597883,86.0331719 335.523236,86.479225 C334.138086,86.7613049 332.626733,87.2532246 332.125001,87.5341578 C331.620191,87.815091 330.173479,90.4650363 328.976094,93.3970615 C326.205794,99.8699915 326.079591,99.9869514 318.778312,100.783884 C314.370457,101.276951 313.991849,101.369831 312.231169,102.42591 C311.159987,103.05887 309.460869,103.738843 308.328124,103.949829 C307.19538,104.160816 298.191905,104.981829 288.30809,105.778762 C276.977563,106.669721 268.792866,107.466654 266.148768,107.889774 C258.407319,109.155693 237.756272,111.102732 225.606967,111.735692 C219.5,112.063639 214.27644,112.321638 214.024035,112.321638 C213.77163,112.321638 211.00133,113.564624 207.917063,115.088544 L202.188698,117.855449 L199.165993,117.714409 C196.648098,117.597449 195.767758,117.667396 194.191765,118.089369 C191.60923,118.769342 183.36297,119.660301 181.159043,119.496328 C180.214063,119.426381 179.395285,119.426381 179.395285,119.520408 C179.395285,119.778408 183.172128,121.86534 184.431075,122.287313 C185.816225,122.7563 186.130192,124.257286 185.12365,125.265205 C184.366435,126.015125 179.521488,127.258111 176.81275,127.352137 C175.498397,127.426671 173.232907,127.262697 171.155182,126.957684 Z" id="Shape" fill="#FFFFFF" fill-rule="nonzero" transform="translate(223.500000, 71.184998) scale(1, -1) translate(-223.500000, -71.184998) "></path>
            <line x1="215" y1="31" x2="273" y2="126" id="Line-11" stroke-linecap="round"></line>
            <line x1="223" y1="48" x2="127" y2="81" id="Line-11" stroke-linecap="round"></line>
            <line x1="341" y1="98" x2="249" y2="87" id="Line-11" stroke-linecap="round"></line>
        </g>
        <g id="Group-5" transform="translate(294.000000, 350.000000)" stroke="#2F2F2F" stroke-width="4">
            <path d="M37.5,11 L5.5,11 L5.5,25.1 C5.5,26.4530976 6.04845118,27.6780976 6.93517677,28.5648232 C7.82190236,29.4515488 9.04690236,30 10.4,30 L32.6,30 C33.9530976,30 35.1780976,29.4515488 36.0648232,28.5648232 C36.9515488,27.6780976 37.5,26.4530976 37.5,25.1 L37.5,11 Z" id="Rectangle-8" fill="#D8D8D8"></path>
            <path d="M30.9428881,2 L12.2378993,2 C10.5209483,2 8.92905505,2.89801144 8.04106455,4.36749888 L5.88348075,7.93796758 C5.64301831,8.33589587 5.51591502,8.79198949 5.51591502,9.25692938 C5.51591502,9.96115989 5.80136083,10.598721 6.26286427,11.0602244 C6.72436771,11.5217278 7.36192877,11.8071736 8.06615928,11.8071736 L34.9950375,11.8071736 C35.4548157,11.8071736 35.9062639,11.6844698 36.3027828,11.451728 C36.9180243,11.090604 37.3286465,10.5142918 37.4951774,9.87445021 C37.6617083,9.2346086 37.5841478,8.5312376 37.2230239,7.91599614 L35.171807,4.42136832 C34.2913595,2.92136299 32.6821994,2 30.9428881,2 Z" id="Rectangle-5" fill="#FFFFFF"></path>
        </g>
        <g id="Group-5" transform="translate(317.000000, 401.000000)" stroke="#2F2F2F" stroke-width="4">
            <path d="M37.5,11 L5.5,11 L5.5,25.1 C5.5,26.4530976 6.04845118,27.6780976 6.93517677,28.5648232 C7.82190236,29.4515488 9.04690236,30 10.4,30 L32.6,30 C33.9530976,30 35.1780976,29.4515488 36.0648232,28.5648232 C36.9515488,27.6780976 37.5,26.4530976 37.5,25.1 L37.5,11 Z" id="Rectangle-8" fill="#D8D8D8"></path>
            <path d="M30.9428881,2 L12.2378993,2 C10.5209483,2 8.92905505,2.89801144 8.04106455,4.36749888 L5.88348075,7.93796758 C5.64301831,8.33589587 5.51591502,8.79198949 5.51591502,9.25692938 C5.51591502,9.96115989 5.80136083,10.598721 6.26286427,11.0602244 C6.72436771,11.5217278 7.36192877,11.8071736 8.06615928,11.8071736 L34.9950375,11.8071736 C35.4548157,11.8071736 35.9062639,11.6844698 36.3027828,11.451728 C36.9180243,11.090604 37.3286465,10.5142918 37.4951774,9.87445021 C37.6617083,9.2346086 37.5841478,8.5312376 37.2230239,7.91599614 L35.171807,4.42136832 C34.2913595,2.92136299 32.6821994,2 30.9428881,2 Z" id="Rectangle-5" fill="#FFFFFF"></path>
        </g>
        <g id="Group-5" transform="translate(213.000000, 380.000000)" stroke="#2F2F2F" stroke-width="4">
            <path d="M37.5,11 L5.5,11 L5.5,25.1 C5.5,26.4530976 6.04845118,27.6780976 6.93517677,28.5648232 C7.82190236,29.4515488 9.04690236,30 10.4,30 L32.6,30 C33.9530976,30 35.1780976,29.4515488 36.0648232,28.5648232 C36.9515488,27.6780976 37.5,26.4530976 37.5,25.1 L37.5,11 Z" id="Rectangle-8" fill="#D8D8D8"></path>
            <path d="M30.9428881,2 L12.2378993,2 C10.5209483,2 8.92905505,2.89801144 8.04106455,4.36749888 L5.88348075,7.93796758 C5.64301831,8.33589587 5.51591502,8.79198949 5.51591502,9.25692938 C5.51591502,9.96115989 5.80136083,10.598721 6.26286427,11.0602244 C6.72436771,11.5217278 7.36192877,11.8071736 8.06615928,11.8071736 L34.9950375,11.8071736 C35.4548157,11.8071736 35.9062639,11.6844698 36.3027828,11.451728 C36.9180243,11.090604 37.3286465,10.5142918 37.4951774,9.87445021 C37.6617083,9.2346086 37.5841478,8.5312376 37.2230239,7.91599614 L35.171807,4.42136832 C34.2913595,2.92136299 32.6821994,2 30.9428881,2 Z" id="Rectangle-5" fill="#FFFFFF"></path>
        </g>
        <g id="Group-5" transform="translate(159.000000, 335.000000)" stroke="#2F2F2F" stroke-width="4">
            <path d="M37.5,11 L5.5,11 L5.5,25.1 C5.5,26.4530976 6.04845118,27.6780976 6.93517677,28.5648232 C7.82190236,29.4515488 9.04690236,30 10.4,30 L32.6,30 C33.9530976,30 35.1780976,29.4515488 36.0648232,28.5648232 C36.9515488,27.6780976 37.5,26.4530976 37.5,25.1 L37.5,11 Z" id="Rectangle-8" fill="#D8D8D8"></path>
            <path d="M30.9428881,2 L12.2378993,2 C10.5209483,2 8.92905505,2.89801144 8.04106455,4.36749888 L5.88348075,7.93796758 C5.64301831,8.33589587 5.51591502,8.79198949 5.51591502,9.25692938 C5.51591502,9.96115989 5.80136083,10.598721 6.26286427,11.0602244 C6.72436771,11.5217278 7.36192877,11.8071736 8.06615928,11.8071736 L34.9950375,11.8071736 C35.4548157,11.8071736 35.9062639,11.6844698 36.3027828,11.451728 C36.9180243,11.090604 37.3286465,10.5142918 37.4951774,9.87445021 C37.6617083,9.2346086 37.5841478,8.5312376 37.2230239,7.91599614 L35.171807,4.42136832 C34.2913595,2.92136299 32.6821994,2 30.9428881,2 Z" id="Rectangle-5" fill="#FFFFFF"></path>
        </g>
    </g>
</svg>