<?xml version="1.0" encoding="UTF-8"?>
<svg width="512px" height="512px" viewBox="0 0 512 512" version="1.1" xmlns="http://www.w3.org/2000/svg" xmlns:xlink="http://www.w3.org/1999/xlink">
    <title>Ori</title>
    <g id="Ori" stroke="none" stroke-width="1" fill="none" fill-rule="evenodd">
        <path d="M369.008424,86 L142.991576,86 C130.69524,86 119.311753,90.4709169 110.521142,97.9780209 C101.730531,105.485125 95.532797,116.028416 93.607969,128.173164 L58.1232786,352.064663 C58.0412199,352.582414 58,353.105817 58,353.63003 L58,389 C58,399.49341 62.2532949,408.99341 69.1299423,415.870058 C76.0065898,422.746705 85.5065898,427 96,427 L416,427 C426.49341,427 435.99341,422.746705 442.870058,415.870058 C449.746705,408.99341 454,399.49341 454,389 L454,353.63003 C454,353.105817 453.95878,352.582414 453.876721,352.064663 L418.392031,128.173164 C416.467203,116.028416 410.269469,105.485125 401.478858,97.9780209 C392.688247,90.4709169 381.30476,86 369.008424,86 Z" id="Rectangle" stroke="#2F2F2F" stroke-width="4" fill="#2F2F2F"></path>
        <path d="M368.997786,86 L143.002214,86 C130.703452,86 119.318096,90.4726363 110.526908,97.9821821 C101.735719,105.491728 95.5386973,116.038183 93.6166027,128.185821 L58.8064762,348.185821 C58.3975148,350.770457 58.1920875,353.38321 58.1920875,356 C58.1920875,369.807119 63.7885281,382.307119 72.8367484,391.355339 C81.8849687,400.403559 94.3849687,406 108.192087,406 L403.807913,406 C406.424703,406 409.037456,405.794573 411.622092,405.385611 C425.259552,403.227785 436.731323,395.746568 444.254272,385.395442 C451.777222,375.044316 455.35135,361.823281 453.193524,348.185821 L418.383397,128.185821 C416.461303,116.038183 410.264281,105.491728 401.473092,97.9821821 C392.681904,90.4726363 381.296548,86 368.997786,86 Z" id="Rectangle" stroke="#2F2F2F" stroke-width="4" fill="#EDEDED"></path>
        <path d="M280.690629,142 L231.309371,142 C225.877401,142 220.852073,143.982522 216.979111,147.307378 C213.106148,150.632234 210.385551,155.299424 209.563042,160.668761 L202.210101,208.668761 C202.041231,209.771139 201.95643,210.884762 201.95643,212 C201.95643,218.075132 204.418864,223.575132 208.400081,227.556349 C212.381298,231.537566 217.881298,234 223.95643,234 L288.04357,234 C289.158807,234 290.272431,233.915199 291.374809,233.746329 C297.379892,232.826433 302.443613,229.559583 305.776089,225.021435 C309.108565,220.483288 310.709796,214.673844 309.789899,208.668761 L302.436958,160.668761 C301.614449,155.299424 298.893852,150.632234 295.020889,147.307378 C291.147927,143.982522 286.122599,142 280.690629,142 Z" id="Rectangle" stroke="#2F2F2F" stroke-width="4"></path>
        <line x1="87" y1="374" x2="199" y2="241" id="Line-15" stroke="#2F2F2F" stroke-width="4" stroke-linecap="round"></line>
        <line x1="121" y1="105" x2="205" y2="140" id="Line-15" stroke="#2F2F2F" stroke-width="4" stroke-linecap="round"></line>
        <line x1="313" y1="374" x2="425" y2="241" id="Line-15" stroke="#2F2F2F" stroke-width="4" stroke-linecap="round" transform="translate(369.000000, 307.500000) scale(-1, 1) translate(-369.000000, -307.500000) "></line>
        <line x1="307" y1="105" x2="391" y2="140" id="Line-15" stroke="#2F2F2F" stroke-width="4" stroke-linecap="round" transform="translate(349.000000, 122.500000) scale(-1, 1) translate(-349.000000, -122.500000) "></line>
    </g>
</svg>