<?xml version="1.0" encoding="UTF-8"?>
<svg width="608px" height="458px" viewBox="0 0 608 458" version="1.1" xmlns="http://www.w3.org/2000/svg" xmlns:xlink="http://www.w3.org/1999/xlink">
    <!-- Generator: Sketch 51.3 (57544) - http://www.bohemiancoding.com/sketch -->
    <title>Group 14</title>
    <desc>Created with Sketch.</desc>
    <defs></defs>
    <g id="Page-1" stroke="none" stroke-width="1" fill="none" fill-rule="evenodd">
        <g id="Group-14" transform="translate(-16.000000, 0.000000)">
            <g id="Demonstration">
                <g id="Group-14">
                    <g id="Sweep" transform="translate(16.000000, 0.000000)" stroke="#525252" stroke-width="3">
                        <path d="M30.7611276,22.4729891 C32.5916976,23.2041927 57.2761573,40.5015642 57.2761573,40.5015642 L48.7495467,61.9575144 L19.0821313,39.5274365 C19.0821313,39.5274365 11.9353041,34.1219586 15.2257317,26.7695812 C18.5161593,19.4172037 28.9305575,21.7417854 30.7611276,22.4729891 Z" id="Rectangle-10"></path>
                        <ellipse id="Oval-6" fill="#D8D8D8" fill-rule="evenodd" cx="53.25" cy="51.375" rx="9" ry="12.375"></ellipse>
                        <path d="M53.625,51.375 C53.625,51.375 68.247594,55.9865648 68.3644186,67.2081964 C68.4812432,78.4298281 54.6430475,79.992094 54.6430475,79.992094" id="Line" stroke-linecap="round"></path>
                    </g>
                    <text id="With-2-Points" font-family="Helvetica-Bold, Helvetica" font-size="18" font-weight="bold" fill="#535353">
                        <tspan x="35.4882812" y="130">Sweep</tspan>
                    </text>
                </g>
            </g>
            <g id="Demonstration" transform="translate(128.000000, 0.000000)">
                <g id="Group-14">
                    <g id="Extrude" transform="translate(16.000000, 0.000000)" stroke="#525252">
                        <g id="Group" transform="translate(19.500000, 6.000000)">
                            <path d="M15.7719268,64.5 L2.91478399,82.5 L54.085216,82.5 L41.2280732,64.5 L15.7719268,64.5 Z" id="Rectangle-5" stroke-width="3" fill="#D8D8D8"></path>
                            <path d="M15.7719268,1.5 L2.91478399,19.5 L54.085216,19.5 L41.2280732,1.5 L15.7719268,1.5 Z" id="Rectangle-5" stroke-width="3" fill="#D8D8D8"></path>
                            <path d="M1.125,22.125 L1.125,82.875" id="Line" stroke-width="3" stroke-linecap="square" stroke-dasharray="8"></path>
                            <path d="M16.125,1.875 L16.125,63.375" id="Line" stroke-width="3" stroke-linecap="square" stroke-dasharray="8"></path>
                            <path d="M55.875,22.125 L55.875,82.875" id="Line" stroke-width="3" stroke-linecap="square" stroke-dasharray="8"></path>
                            <path d="M40.875,2.625 L40.875,63.375" id="Line" stroke-width="3" stroke-linecap="square" stroke-dasharray="8"></path>
                        </g>
                    </g>
                    <text id="With-2-Points" font-family="Helvetica-Bold, Helvetica" font-size="18" font-weight="bold" fill="#535353">
                        <tspan x="30.4916992" y="130">Extrude</tspan>
                    </text>
                </g>
            </g>
            <g id="Demonstration" transform="translate(256.000000, 0.000000)">
                <g id="Group-14">
                    <g id="Loft" transform="translate(16.000000, 0.000000)" stroke="#525252" stroke-width="3">
                        <ellipse id="Oval-4" fill="#D8D8D8" fill-rule="evenodd" cx="48" cy="10.125" rx="12" ry="4.875"></ellipse>
                        <ellipse id="Oval-4" fill="#D8D8D8" fill-rule="evenodd" cx="48" cy="48.375" rx="21.75" ry="4.875"></ellipse>
                        <ellipse id="Oval-4" fill="#D8D8D8" fill-rule="evenodd" cx="48" cy="64.125" rx="28.5" ry="4.875"></ellipse>
                        <ellipse id="Oval-4" fill="#D8D8D8" fill-rule="evenodd" cx="48" cy="85.125" rx="15.75" ry="4.875"></ellipse>
                        <path d="M60,9.75 C60,9.75 70.2443265,45.7675382 70.2443265,48.375 C70.2443265,54.6358073 77.0428961,60.4781278 77.1303162,64.9802592 C77.4840729,83.1987291 61.5,87 61.5,87" id="Line" stroke-dasharray="12,5"></path>
                        <path d="M18.9525003,9.75 C18.9525003,9.75 29.1968269,45.7675382 29.1968269,48.375 C29.1968269,54.6358073 35.9953965,60.4781278 36.0828165,64.9802592 C36.4365732,83.1987291 20.4525003,87 20.4525003,87" id="Line" stroke-dasharray="12,5" transform="translate(27.520552, 48.375000) scale(-1, 1) translate(-27.520552, -48.375000) "></path>
                    </g>
                    <text id="With-2-Points" font-family="Helvetica-Bold, Helvetica" font-size="18" font-weight="bold" fill="#535353">
                        <tspan x="47.0107422" y="130">Loft</tspan>
                    </text>
                </g>
            </g>
            <g id="Demonstration" transform="translate(384.000000, 0.000000)">
                <g id="Group-14">
                    <g id="Revolve" transform="translate(16.000000, 0.000000)" stroke="#525252">
                        <g id="Group-2" stroke-width="1" fill-rule="evenodd" transform="translate(18.000000, 13.500000)">
                            <path d="M42,17.4968747 L42,65.3269162 C42.4349608,65.2470682 42.8941609,65.1593215 43.3735728,65.0637236 C45.7079587,64.5982321 48.0410959,64.0441193 50.2101725,63.405039 C51.3590915,63.0665302 52.4314706,62.7124987 53.4125067,62.3439058 C54.8061235,61.8202991 55.860909,61.1926326 56.6251918,60.4939659 C57.2940921,59.8824928 57.7000692,59.2574895 57.9122794,58.6468175 C58.032806,58.299981 58.0666259,58.0414277 58.062554,57.9150892 C58.0630304,57.9252597 58.0633159,57.9296415 58.0643709,57.945831 L58.060552,57.8388633 L58.060552,11.4888804 L42,17.4968747 Z" id="Rectangle-8" stroke-width="3"></path>
                            <path d="M41.958741,16.77064 C50.9873729,15.4319301 58.0575027,11.6517035 58.0575027,9 C58.0575027,5.40263133 45.0656749,1.5 30,1.5 C12.7316974,1.5 3.32586208,3.52535879 2.0242404,8.25 L29.4997303,8.25 L29.8972699,8.54405071 C35.585557,12.7515437 37.2373869,13.8564108 39.2308669,14.9791556 C39.2618919,14.9966377 39.2618919,14.9966377 39.2931183,15.0142752 C40.0957752,15.4679531 40.7692406,15.9034512 41.958741,16.77064 Z" id="Oval" stroke-width="3" fill="#D8D8D8"></path>
                            <path d="M1.875,9.0959088 L1.875,57.375 L28.5,57.375 L28.5,9.0959088 L1.875,9.0959088 Z" id="Rectangle-9" stroke-width="3"></path>
                            <path d="M30,58.1828753 L40.2481275,65.4905224" id="Line" stroke-width="3" stroke-linecap="square"></path>
                        </g>
                        <path d="M46.875,22.125 L46.875,1.875" id="Line" stroke-width="3" stroke-linecap="square" stroke-dasharray="3,6"></path>
                        <path d="M46.875,90.375 L46.875,66.375" id="Line" stroke-width="3" stroke-linecap="square" stroke-dasharray="3,6"></path>
                    </g>
                    <text id="With-2-Points" font-family="Helvetica-Bold, Helvetica" font-size="18" font-weight="bold" fill="#535353">
                        <tspan x="29.480957" y="130">Revolve</tspan>
                    </text>
                </g>
            </g>
            <g id="Demonstration" transform="translate(512.000000, 0.000000)">
                <g id="Group-14">
                    <g id="Patch" transform="translate(16.000000, 0.000000)" stroke="#525252">
                        <g id="Group" transform="translate(48.000000, 48.000000) rotate(45.000000) translate(-48.000000, -48.000000) translate(13.500000, 13.500000)">
                            <rect id="Rectangle-14" stroke-width="6" x="7.5" y="7.5" width="54" height="54"></rect>
                            <path d="M15,60 L15,69" id="Line" stroke-width="4" stroke-linecap="round"></path>
                            <path d="M54,60 L54,69" id="Line" stroke-width="4" stroke-linecap="round"></path>
                            <path d="M34.5,60 L34.5,69" id="Line" stroke-width="4" stroke-linecap="round"></path>
                            <path d="M15,0 L15,69" id="Line" stroke-width="4" stroke-linecap="round"></path>
                            <path d="M54,0 L54,69" id="Line" stroke-width="4" stroke-linecap="round"></path>
                            <path d="M34.5,0 L34.5,69" id="Line" stroke-width="4" stroke-linecap="round"></path>
                            <path d="M60,15 L69,15" id="Line-2" stroke-width="4" stroke-linecap="round"></path>
                            <path d="M60,34.5 L69,34.5" id="Line-2" stroke-width="4" stroke-linecap="round"></path>
                            <path d="M60,54 L69,54" id="Line-2" stroke-width="4" stroke-linecap="round"></path>
                            <path d="M0,15 L69,15" id="Line-2" stroke-width="4" stroke-linecap="round"></path>
                            <path d="M0,34.5 L69,34.5" id="Line-2" stroke-width="4" stroke-linecap="round"></path>
                            <path d="M0,54 L69,54" id="Line-2" stroke-width="4" stroke-linecap="round"></path>
                        </g>
                    </g>
                    <text id="With-2-Points" font-family="Helvetica-Bold, Helvetica" font-size="18" font-weight="bold" fill="#535353">
                        <tspan x="39.4916992" y="130">Patch</tspan>
                    </text>
                </g>
            </g>
            <g id="Demonstration" transform="translate(0.000000, 162.000000)">
                <g id="Group-14">
                    <g id="Line" transform="translate(16.000000, 0.000000)" fill="#525252" fill-rule="nonzero">
                        <path d="M17.9380701,71.4427708 C18.05358,71.55541 18.2613012,71.7515536 18.5551754,72.0193546 C19.0353474,72.4569245 19.5893152,72.9421837 20.2111058,73.4632978 C21.9820181,74.9474748 23.9502553,76.4302925 26.0700114,77.8170093 C31.9562092,81.6676832 37.8717147,84.0690038 43.5464693,84.2726601 C49.4505703,84.4845472 54.6897995,82.2551344 58.876081,77.2843212 C62.5133047,72.9654624 63.1209809,67.7770032 61.2032132,61.8402322 C59.725842,57.2667822 56.924681,52.480292 52.2927,46.0272925 C51.3544968,44.7202438 50.409062,43.4341224 48.9980519,41.5360568 C42.731491,33.1063914 40.9237145,30.5207029 38.9841031,26.8206138 C36.5775981,22.229858 36.0164367,18.8598175 37.2607715,16.3787366 C39.839188,11.2376286 46.101247,11.2055299 55.5978012,15.6976312 C58.8176792,17.2207118 62.2470706,19.2036362 65.7888909,21.5356714 C68.8837668,23.5734257 71.8899321,25.7604899 74.6855384,27.9473659 C75.6634093,28.7123099 76.5442884,29.4219125 77.3132074,30.0575576 C77.581003,30.2789372 77.8152632,30.4748961 78.0141246,30.6431104 C78.1313846,30.7422991 78.2095493,30.8091189 78.2467587,30.8412471 C79.1873064,31.6533592 80.6081178,31.5492414 81.4202298,30.6086937 C82.2323418,29.668146 82.1282241,28.2473346 81.1876764,27.4352226 C81.139094,27.3932744 81.0493677,27.316571 80.9203298,27.2074196 C80.7086947,27.0284002 80.4614362,26.8215682 80.1803835,26.5892293 C79.3811643,25.9285358 78.4688952,25.1936467 77.4581472,24.4029844 C74.5719851,22.1452707 71.4689693,19.8877452 68.263565,17.7772158 C64.5578245,15.3372509 60.9514057,13.2519667 57.5219971,11.629773 C52.4298153,9.22104708 47.8911494,7.90487977 43.9903467,7.92487491 C39.1567833,7.94965129 35.3965621,10.0580195 33.2383128,14.3613556 C31.1986353,18.4282714 31.9875413,23.1660256 34.998512,28.9098873 C37.0946755,32.908622 38.9500192,35.5623466 45.3866325,44.2207635 C46.7838947,46.1003356 47.7166786,47.3692473 48.6369905,48.6513709 C57.7679427,61.3720687 60.1592825,68.7748616 55.4340945,74.3855752 C52.1559957,78.2780072 48.2533255,79.9386834 43.707862,79.7755552 C39.0009612,79.6066334 33.7955049,77.4935478 28.5335325,74.051234 C26.572305,72.7682246 24.7437256,71.3906213 23.1015983,70.0143772 C22.5288252,69.534344 22.0215273,69.0899663 21.586183,68.6932468 C21.3307475,68.4604741 21.159811,68.299065 21.0797663,68.2210095 C20.1901015,67.3534541 18.765593,67.3713773 17.8980376,68.2610421 C17.0304821,69.1507069 17.0484053,70.5752153 17.9380701,71.4427708 Z"></path>
                    </g>
                    <text id="With-2-Points" font-family="Helvetica-Bold, Helvetica" font-size="18" font-weight="bold" fill="#535353">
                        <tspan x="38.4897461" y="130">Curve</tspan>
                    </text>
                </g>
            </g>
            <g id="Demonstration" transform="translate(128.000000, 162.000000)">
                <g id="Group-14">
                    <g id="Circle" transform="translate(16.000000, 0.000000)" stroke="#525252" stroke-width="6">
                        <circle id="Oval-7" cx="48" cy="48" r="39"></circle>
                    </g>
                    <text id="With-2-Points" font-family="Helvetica-Bold, Helvetica" font-size="18" font-weight="bold" fill="#535353">
                        <tspan x="38.9863281" y="130">Circle</tspan>
                    </text>
                </g>
            </g>
            <g id="Demonstration" transform="translate(256.000000, 162.000000)">
                <g id="Group-14">
                    <g id="Rectangle" transform="translate(16.000000, 0.000000)" stroke="#525252" stroke-width="6">
                        <rect id="Rectangle-13" x="13.5" y="13.5" width="69" height="69"></rect>
                    </g>
                    <text id="With-2-Points" font-family="Helvetica-Bold, Helvetica" font-size="18" font-weight="bold" fill="#535353">
                        <tspan x="20.9863281" y="130">Rectangle</tspan>
                    </text>
                </g>
            </g>
            <g id="Demonstration" transform="translate(383.000000, 162.000000)">
                <g id="Group-14">
                    <g id="Draw-Rectangle" transform="translate(16.000000, 0.000000)">
                        <circle id="Oval-10" fill="#525252" cx="12" cy="84" r="4.5"></circle>
                        <circle id="Oval-10" fill="#525252" cx="84" cy="12" r="4.5"></circle>
                        <g id="Group" stroke-width="1" transform="translate(10.500000, 10.500000)">
                            <rect id="Rectangle-20" stroke="#525252" stroke-width="4" x="2" y="2" width="71" height="71"></rect>
                            <polygon id="Rectangle-19" fill="#525252" transform="translate(68.705132, 6.205132) rotate(45.000000) translate(-68.705132, -6.205132) " points="68.7051317 2.6337031 71.3837031 9.77656024 66.0265602 9.77656024"></polygon>
                            <path d="M75,0 L0,75" id="Line" stroke="#525252" stroke-width="2" stroke-linecap="square" stroke-dasharray="2,4,2,4"></path>
                        </g>
                    </g>
                    <text id="With-2-Points" font-family="Helvetica-Bold, Helvetica" font-size="18" font-weight="bold" fill="#535353">
                        <tspan x="19.984375" y="130">Draw Rect</tspan>
                    </text>
                </g>
            </g>
            <g id="Demonstration" transform="translate(511.000000, 162.000000)">
                <g id="Group-14">
                    <g id="Draw-Circle" transform="translate(16.000000, 0.000000)">
                        <g id="Group" transform="translate(10.500000, 10.500000)">
                            <circle id="Oval-5" stroke="#525252" stroke-width="4" cx="37.5" cy="37.5" r="37.5"></circle>
                            <circle id="Oval-10" fill="#525252" cx="63.3928571" cy="10.7142857" r="5.35714286"></circle>
                            <circle id="Oval-10" fill="#525252" cx="37.5" cy="37.5" r="5.35714286"></circle>
                            <path d="M37.5,37.5 L63.3928571,10.7142857" id="Line" stroke="#525252" stroke-width="2" stroke-linecap="square" stroke-dasharray="2,4,2,4"></path>
                            <polygon id="Rectangle-19" fill="#525252" transform="translate(58.883703, 15.133703) rotate(45.000000) translate(-58.883703, -15.133703) " points="58.8837031 11.5622745 61.5622745 18.7051317 56.2051317 18.7051317"></polygon>
                        </g>
                    </g>
                    <text id="With-2-Points" font-family="Helvetica-Bold, Helvetica" font-size="18" font-weight="bold" fill="#535353">
                        <tspan x="14.4780273" y="130">Draw Circle</tspan>
                    </text>
                </g>
            </g>
            <g id="Demonstration" transform="translate(0.000000, 324.000000)">
                <g id="Group-14">
                    <g id="Plane" transform="translate(16.000000, 0.000000)">
                        <path d="M46,63.447939 L46,51.802061 L26,65.552061 L26,77.197939 L46,63.447939 Z" id="Rectangle" stroke="#525252" stroke-width="4" fill="#EEEEEE"></path>
                        <path d="M50,51.802061 L50,63.447939 L70,77.197939 L70,65.552061 L50,51.802061 Z" id="Rectangle-17" stroke="#525252" stroke-width="4" fill="#EEEEEE"></path>
                        <path d="M3.53027052,48 L48,78.572939 L92.4697295,48 L48,17.427061 L3.53027052,48 Z" id="Rectangle-16" stroke="#525252" stroke-width="4" fill="#EEEEEE"></path>
                        <path d="M50,32.552061 L50,44.197939 L70,30.447939 L70,18.802061 L50,32.552061 Z" id="Rectangle" stroke="#525252" stroke-width="4" fill="#EEEEEE"></path>
                        <path d="M46,44.197939 L46,32.552061 L26,18.802061 L26,30.447939 L46,44.197939 Z" id="Rectangle-17" stroke="#525252" stroke-width="4" fill="#EEEEEE"></path>
                        <path d="M46,46.947939 L46,35.302061 L26,49.052061 L26,60.697939 L46,46.947939 Z" id="Rectangle" stroke="#525252" stroke-width="4" fill="#EEEEEE"></path>
                        <path d="M50,35.302061 L50,46.947939 L70,60.697939 L70,49.052061 L50,35.302061 Z" id="Rectangle-17" stroke="#525252" stroke-width="4" fill="#EEEEEE"></path>
                        <rect id="Rectangle-18" fill="#525252" x="45.75" y="31.5" width="4.5" height="16.5"></rect>
                    </g>
                    <text id="With-2-Points" font-family="Helvetica-Bold, Helvetica" font-size="18" font-weight="bold" fill="#535353">
                        <tspan x="39.9882812" y="130">Plane</tspan>
                    </text>
                </g>
            </g>
            <g id="Demonstration" transform="translate(128.000000, 324.000000)">
                <g id="Group-14">
                    <g id="Surface" transform="translate(16.000000, 0.000000)">
                        <g id="Group-2" stroke-width="1" fill-rule="evenodd" transform="translate(10.500000, 13.500000)" fill="#525252">
                            <g id="Group" transform="translate(2.250000, 10.500000)" fill-rule="nonzero">
                                <path d="M2.04649511,15.2589552 C9.25050137,18.2702903 14.4320351,20.1176132 17.6481807,20.8100277 L19.1145809,21.1257339 L19.7459932,18.1929334 L18.2795929,17.8772273 C15.292249,17.2340722 10.2478581,15.4356435 3.20350489,12.4910448 L1.81954966,11.9125399 L0.662539874,14.6804503 L2.04649511,15.2589552 Z M26.8208661,21.8221221 C33.323688,21.8221221 42.1418767,19.8264692 56.3305134,15.3041632 L57.7596766,14.8486499 L56.8486499,11.9903234 L55.4194866,12.4458368 C41.5111268,16.8788109 32.92422,18.8221221 26.8208661,18.8221221 L25.3208661,18.8221221 L25.3208661,21.8221221 L26.8208661,21.8221221 Z" id="Line"></path>
                                <path d="M4.57356282,3.68050012 C10.6913063,8.62078343 15.3781982,11.4541108 18.7731807,12.1850277 C21.7108763,12.8174939 24.4823487,13.1349928 27.0879095,13.1349928 C33.8910899,13.1349928 45.3690041,10.3057153 61.6410475,4.6560237 L63.0580667,4.16403131 L62.074082,1.32999285 L60.6570627,1.82198525 C44.6866649,7.36694474 33.4571487,10.1349928 27.0879095,10.1349928 C24.7032508,10.1349928 22.1420413,9.84158151 19.4045929,9.25222728 C16.5960858,8.64757458 12.2343574,6.01081553 6.45834992,1.3464955 L5.29134761,0.404101951 L3.40656051,2.73810657 L4.57356282,3.68050012 Z" id="Line"></path>
                            </g>
                            <path d="M14.4781418,7.05757392 C7.78593547,16.349555 4.5,25.4811607 4.5,34.5 C4.5,43.040317 7.44649504,51.6817514 13.4416645,60.4647293 C17.7092818,53.8360825 23.7918461,50.312996 31.4727176,50.312996 C38.2344585,50.312996 48.5566905,53.1583806 62.6919759,58.839612 C58.4139177,50.8021414 56.25,42.6823728 56.25,34.5 C56.25,25.8365703 58.6758387,17.2433224 63.4684334,8.74363175 C48.1678078,13.8313633 38.0677046,16.3578568 32.7547214,16.3578568 C26.4916697,16.3578568 20.4242075,13.1666803 14.4781418,7.05757392 Z M14.25,0 C20.6170552,7.90523785 26.7852957,11.8578568 32.7547214,11.8578568 C38.7241471,11.8578568 52.8059066,7.90523785 75,0 C65.5,11.5 60.75,23 60.75,34.5 C60.75,46 65.5,57.5 75,69 C53.9782717,59.5419973 39.4691775,54.812996 31.4727176,54.812996 C23.4762577,54.812996 17.7353518,59.5419973 14.25,69 C4.75,57.5 7.65404249e-16,46 0,34.5 C0,23 4.75,11.5 14.25,0 Z" id="Rectangle-15" fill-rule="nonzero"></path>
                            <g id="Group" transform="translate(34.125000, 46.875000) scale(1, -1) translate(-34.125000, -46.875000) translate(4.500000, 37.500000)" fill-rule="nonzero">
                                <path d="M-0.203504893,13.0089552 C7.00050137,16.0202903 12.1820351,17.8676132 15.3981807,18.5600277 L16.8645809,18.8757339 L17.4959932,15.9429334 L16.0295929,15.6272273 C13.042249,14.9840722 7.99785815,13.1856435 0.953504893,10.2410448 L-0.430450341,9.66253987 L-1.58746013,12.4304503 L-0.203504893,13.0089552 Z M24.5708661,19.5721221 C31.073688,19.5721221 39.8918767,17.5764692 54.0805134,13.0541632 L55.5096766,12.5986499 L54.5986499,9.7403234 L53.1694866,10.1958368 C39.2611268,14.6288109 30.67422,16.5721221 24.5708661,16.5721221 L23.0708661,16.5721221 L23.0708661,19.5721221 L24.5708661,19.5721221 Z" id="Line"></path>
                                <path d="M2.32356282,1.43050012 C8.44130631,6.37078343 13.1281982,9.20411084 16.5231807,9.93502775 C19.4608763,10.5674939 22.2323487,10.8849928 24.8379095,10.8849928 C31.6410899,10.8849928 43.1190041,8.05571527 59.3910475,2.4060237 L60.8080667,1.91403131 L59.824082,-0.920007145 L58.4070627,-0.428014754 C42.4366649,5.11694474 31.2071487,7.88499277 24.8379095,7.88499277 C22.4532508,7.88499277 19.8920413,7.59158151 17.1545929,7.00222728 C14.3460858,6.39757458 9.98435745,3.76081553 4.20834992,-0.903504496 L3.04134761,-1.84589805 L1.15656051,0.488106571 L2.32356282,1.43050012 Z" id="Line"></path>
                            </g>
                            <path d="M41.037438,12.6839216 C38.1829695,21.9799341 36.75,28.981232 36.75,33.749227 C36.75,38.517222 38.1829695,45.5185198 41.037438,54.8145323 L41.4777433,56.2484539 L44.3455866,55.3678432 L43.9052812,53.9339216 C41.1312702,44.8999313 39.75,38.1512291 39.75,33.749227 C39.75,29.3472248 41.1312702,22.5985227 43.9052812,13.5645323 L44.3455866,12.1306107 L41.4777433,11.25 L41.037438,12.6839216 Z" id="Line-2" fill-rule="nonzero"></path>
                            <path d="M55.2887254,8.11144537 C50.4301049,21.1876137 48,30.0507694 48,34.875 C48,39.7169755 50.4385435,47.997476 55.3068621,59.8750855 L55.8757419,61.2630249 L58.6516207,60.1252654 L58.082741,58.737326 C53.3579909,47.2099916 51,39.2030217 51,34.875 C51,30.5292334 53.3664295,21.8983167 58.1008778,9.15633718 L58.6233237,7.75026098 L55.8111713,6.70536917 L55.2887254,8.11144537 Z" id="Line-2" fill-rule="nonzero"></path>
                            <path d="M17.3260673,7.40339028 C13.3181022,19.5046516 11.3077431,28.5123085 11.3077431,34.5 C11.3077431,40.5146567 13.3307123,48.5575009 17.3561833,58.6793239 L17.9105072,60.0731406 L20.6981406,58.9644928 L20.1438167,57.5706761 C16.2462785,47.7705331 14.3077431,40.0633774 14.3077431,34.5 C14.3077431,28.9096574 16.2588886,20.1673144 20.1739327,8.34660972 L20.6455424,6.92267705 L17.797677,5.9794576 L17.3260673,7.40339028 Z" id="Line-3" fill-rule="nonzero"></path>
                        </g>
                        <path d="M36.75,55.75 C37.8784138,55.75 38.5,53.6541525 38.5,48 C38.5,42.3458475 37.8784138,40.25 36.75,40.25 C34.1432629,40.25 30.5,44.1499192 30.5,48 C30.5,51.8500808 34.1432629,55.75 36.75,55.75 Z" id="Oval-9" stroke="#525252" stroke-width="4"></path>
                    </g>
                    <text id="With-2-Points" font-family="Helvetica-Bold, Helvetica" font-size="18" font-weight="bold" fill="#535353">
                        <tspan x="30.9838867" y="130">Surface</tspan>
                    </text>
                </g>
            </g>
            <g id="Demonstration" transform="translate(256.000000, 324.000000)">
                <g id="Group-14">
                    <g id="3D" transform="translate(16.000000, 0.000000)" fill="#525252">
                        <path d="M48,59.2685773 L11.0114971,78 L9,73.9254147 L45.7510779,55.3142269 L45.7510779,18 L50.2489221,18 L50.2489221,55.3142269 L87,73.9254147 L84.9885029,78 L48,59.2685773 Z" id="Combined-Shape" fill-rule="nonzero"></path>
                        <polygon id="Rectangle-4" fill-rule="evenodd" points="48 12 52.5 22.5 43.5 22.5"></polygon>
                        <polygon id="Rectangle-4" fill-rule="evenodd" transform="translate(86.296633, 76.272114) rotate(120.000000) translate(-86.296633, -76.272114) " points="86.2966334 71.0221143 90.7966334 81.5221143 81.7966334 81.5221143"></polygon>
                        <polygon id="Rectangle-4" fill-rule="evenodd" transform="translate(9.706633, 76.272114) rotate(-120.000000) translate(-9.706633, -76.272114) " points="9.70663337 71.0221143 14.2066334 81.5221143 5.20663337 81.5221143"></polygon>
                    </g>
                    <text id="With-2-Points" font-family="Helvetica-Bold, Helvetica" font-size="18" font-weight="bold" fill="#535353">
                        <tspan x="23.4780273" y="130">3D Space</tspan>
                    </text>
                </g>
            </g>
            <g id="Demonstration" transform="translate(384.000000, 324.000000)">
                <g id="Group-14">
                    <g id="Normal" transform="translate(16.000000, 0.000000)">
                        <path d="M31.0106874,59.25 L13.4075579,84 L82.5924421,84 L64.9893126,59.25 L31.0106874,59.25 Z" id="Rectangle-5" stroke="#525252" stroke-width="3" fill="#D8D8D8" fill-rule="evenodd"></path>
                        <path d="M48,69.375 L48,26.625" id="Line" stroke="#525252" stroke-width="4" stroke-linecap="square"></path>
                        <polygon id="Rectangle-19" fill="#525252" fill-rule="evenodd" points="48 18.75 51 26.25 45 26.25"></polygon>
                        <polyline id="Rectangle-21" stroke="#525252" stroke-width="3" points="48 63.375 57 63.375 57 70.875"></polyline>
                    </g>
                    <text id="With-2-Points" font-family="Helvetica-Bold, Helvetica" font-size="18" font-weight="bold" fill="#535353">
                        <tspan x="32.9921875" y="130">Normal</tspan>
                    </text>
                </g>
            </g>
            <g id="Demonstration" transform="translate(512.000000, 324.000000)">
                <g id="Group-14">
                    <g id="Calibrate" transform="translate(16.000000, 0.000000)" fill="#525252">
                        <path d="M44.25,77.9208809 L44.25,68.25 L48.75,68.25 L48.75,77.9208809 C64.3536916,76.8196511 76.8196511,64.3536916 77.9208809,48.75 L68.25,48.75 L68.25,44.25 L77.9208809,44.25 C76.8196511,28.6463084 64.3536916,16.1803489 48.75,15.0791191 L48.75,24.75 L44.25,24.75 L44.25,15.0791191 C28.6463084,16.1803489 16.1803489,28.6463084 15.0791191,44.25 L24.75,44.25 L24.75,48.75 L15.0791191,48.75 C16.1803489,64.3536916 28.6463084,76.8196511 44.25,77.9208809 Z M46.5,82.5 C26.617749,82.5 10.5,66.382251 10.5,46.5 C10.5,26.617749 26.617749,10.5 46.5,10.5 C66.382251,10.5 82.5,26.617749 82.5,46.5 C82.5,66.382251 66.382251,82.5 46.5,82.5 Z" id="Combined-Shape"></path>
                        <path d="M61.5,66 C59.0147186,66 57,63.9852814 57,61.5 C57,59.0147186 59.0147186,57 61.5,57 C63.9852814,57 66,59.0147186 66,61.5 C66,63.9852814 63.9852814,66 61.5,66 Z M72,59.25 L85.5,59.25 L85.5,63.75 L72,63.75 L72,59.25 Z M59.25,37.5 L63.75,37.5 L63.75,51 L59.25,51 L59.25,37.5 Z M59.25,72 L63.75,72 L63.75,85.5 L59.25,85.5 L59.25,72 Z M37.5,59.25 L51,59.25 L51,63.75 L37.5,63.75 L37.5,59.25 Z" id="Combined-Shape"></path>
                    </g>
                    <text id="With-2-Points" font-family="Helvetica-Bold, Helvetica" font-size="18" font-weight="bold" fill="#535353">
                        <tspan x="25.4863281" y="130">Calibrate</tspan>
                    </text>
                </g>
            </g>
        </g>
    </g>
</svg>