<?xml version="1.0" encoding="UTF-8"?>
<svg width="142px" height="633px" viewBox="0 0 142 633" version="1.1" xmlns="http://www.w3.org/2000/svg" xmlns:xlink="http://www.w3.org/1999/xlink">
    <!-- Generator: Sketch 51.3 (57544) - http://www.bohemiancoding.com/sketch -->
    <title>Group 20</title>
    <desc>Created with Sketch.</desc>
    <defs></defs>
    <g id="Page-2" stroke="none" stroke-width="1" fill="none" fill-rule="evenodd">
        <g id="Group-20" transform="translate(1.000000, 0.000000)" stroke="#231F20">
            <path d="M80.71,488.71 L80.71,624.949566 C82.3610202,629.798038 88.4030016,632.29 99,632.29 C109.596998,632.29 115.63898,629.798038 117.29,624.949566 L117.29,488.71 L80.71,488.71 Z" id="Rectangle-7" stroke-width="1.42" fill="#FFFFFF" fill-rule="nonzero"></path>
            <path d="M78,446.173685 L78,500.932472 L78.0019516,500.931695 C78.0019516,507.597306 87.4033734,513 99.0009758,513 C110.598578,513 120,507.597306 120,500.931695 L119.997138,500.933508 L119.997138,441" id="Stroke-105" stroke-width="1.417" fill="#FFFFFF" stroke-linecap="round" stroke-linejoin="round"></path>
            <path d="M109,452 C112.347258,450.820209 115.114883,449.090037 117,447" id="Stroke-85" stroke-width="1.417" stroke-linecap="round" stroke-linejoin="round"></path>
            <polyline id="Stroke-87" stroke-width="1.417" stroke-linecap="round" stroke-linejoin="round" points="99 452 99.002 452.054 99.007 452.105 99.015 452.154 99.025 452.201 99.038 452.244 99.054 452.286 99.072 452.323 99.092 452.357 99.112 452.389 99.135 452.417 99.159 452.442 99.182 452.464 99.207 452.482 99.236 452.498 99.267 452.513 99.283 452.517 99.299 452.518"></polyline>
            <path d="M100,453 C103.161473,452.870479 106.24136,452.18587 109,451" id="Stroke-89" stroke-width="1.417" stroke-linecap="round" stroke-linejoin="round"></path>
            <path d="M117,447 C118.953757,445.167475 119.985549,443.102248 120,441" id="Stroke-91" stroke-width="1.417" stroke-linecap="round" stroke-linejoin="round"></path>
            <polyline id="Stroke-93" stroke-width="1.417" stroke-linecap="round" stroke-linejoin="round" points="119 440.677 119.002 440.593 119.007 440.508 119.016 440.423 119.029 440.339 119.043 440.254 119.061 440.169 119.083 440.085 119.106 440"></polyline>
            <path d="M99,452.527 L99,452" id="Stroke-95" stroke-width="1.417" stroke-linecap="round" stroke-linejoin="round"></path>
            <path d="M77,443 C77,446.149484 79.5483216,449.114992 83.8771523,451.003653 C88.205983,452.891028 93.8089744,453.481556 99,452.597693" id="Stroke-97" stroke-width="1.417" stroke-linecap="round" stroke-linejoin="round"></path>
            <polyline id="Stroke-99" stroke-width="1.417" stroke-linecap="round" stroke-linejoin="round" points="135 262 97.1396313 269.189614 89 302"></polyline>
            <path d="M120,440.007 L120.002,440" id="Stroke-101" stroke-width="1.417" stroke-linecap="round" stroke-linejoin="round"></path>
            <path d="M72,255 L110,248" id="Stroke-103" stroke-width="1.417" stroke-linecap="round" stroke-linejoin="round"></path>
            <path d="M36.6546636,264 C31.5908774,264.919873 31.8173644,268.071953 37.1591119,271.039564 C42.5008595,274.005936 50.9362138,275.666164 56,274.746291" id="Stroke-107" stroke-width="1.417" stroke-linecap="round" stroke-linejoin="round"></path>
            <path d="M0.103114334,273 C-0.90365255,276.973425 5.54198479,282.271324 15.9279887,286.006598 C26.3152866,289.741871 38.1557969,291.019226 45,289.144584" id="Stroke-109" stroke-width="1.417" stroke-linecap="round" stroke-linejoin="round"></path>
            <path d="M71,282 L45,289" id="Stroke-111" stroke-width="1.417" stroke-linecap="round" stroke-linejoin="round"></path>
            <polyline id="Stroke-113" stroke-width="1.417" stroke-linecap="round" stroke-linejoin="round" points="88.9904058 302 89.0863477 301.609235 89.1796966 301.221085 89.2704525 300.834241 89.3586153 300.453932 89.4454817 300.072315 89.5271619 299.695927 89.6088422 299.324766 89.6879295 298.953605 89.7631272 298.586365 89.8370284 298.223045 89.9070401 297.862339 89.9770517 297.504247 90.0431739 297.148769 90.1079995 296.798519 90.1689356 296.448268 90.2298716 296.101939 90.2856217 295.762143 90.3413717 295.419734 90.3932322 295.08386 90.4437962 294.749292 90.4930637 294.419952 90.5371451 294.090612 90.582523 293.7665 90.6240114 293.446308 90.6616103 293.12873 90.6979126 292.813766 90.7329184 292.500109 90.7666278 292.190372 90.7964476 291.884557 90.8249708 291.582662 90.8509011 291.282074 90.8729418 290.985406 90.896279 290.69266 90.9157267 290.399913 90.9338779 290.112394 90.9481395 289.828795 90.9624011 289.549118 90.9740698 289.268133 90.9831453 288.993683 90.9896279 288.723154 90.994814 288.452625 91 288.18863 91 287.927249 91 287.668482 90.997407 287.414942 90.9922209 287.16271 90.9857384 286.915705 90.9779593 286.671313 90.9662907 286.430843 90.9546221 286.192986 90.9429535 285.961664 90.9273953 285.730342 90.9079476 285.504247 90.8897964 285.280767 90.8690522 285.0599 90.8483081 284.842954 90.8249708 284.631235 90.7990406 284.42213 90.7705173 284.215639 90.7406975 284.013069 90.7095812 283.813113 90.6771684 283.618384 90.6447556 283.424962 90.6097498 283.236768 90.5721509 283.051187 90.5345521 282.869527 90.4956567 282.691788 90.4528718 282.515356 90.4113834 282.342845 90.367302 282.172947 90.321924 282.008277 90.2765461 281.846221 90.2272786 281.686778 90.1780112 281.531257 90.1261507 281.380963 90.0755867 281.229362 90.0211332 281.086909 89.9679761 280.94315 89.9122261 280.804618 89.8551796 280.670007 89.798133 280.538009 89.73979 280.411239 89.6814469 280.289697 89.6205108 280.169462 89.5595747 280.051841 89.4986387 279.93814 89.4364061 279.829667 89.372877 279.725114 89.3106444 279.620562 89.2445222 279.522544 89.1796966 279.425833 89.1135745 279.33435 89.0487489 279.24548 88.9826267 279.159225 88.9152081 279.078196 88.8477894 278.999782 88.7803708 278.922675 88.7129522 278.849488 88.641644 278.780222 88.5742253 278.716184 88.5042137 278.652146 88.436795 278.590721 88.3667834 278.534524 88.2993647 278.482248 88.229353 278.431279 88.1619344 278.38423 88.0945158 278.339795 88.0283936 278.299281 87.960975 278.261381 87.8961494 278.226095 87.8300272 278.193422 87.7652016 278.16467 87.6990795 278.135918 87.6368469 278.113701 87.5733178 278.091483 87.5123817 278.070573 87.4501491 278.05489 87.384027 278.040514 87.3192013 278.026138 87.2543757 278.014376 87.1856606 278.007841 87.1182419 278.002614 87.0858291 278 87.0534163 278 87.0223 278 86.9950733 278.002614 86.96655 278.005228 86.9432128 278.005228 86.9198755 278.007841 86.9017244 278.010455 86.8835732 278.014376 86.8693116 278.015683 86.8550499 278.018297 86.8498639 278.02091 86.8472708 278.02091 71 282.470921"></polyline>
            <path d="M47,283 L97,269" id="Stroke-115" stroke-width="1.417" stroke-linecap="round" stroke-linejoin="round"></path>
            <path d="M11,262 L73,255" id="Stroke-117" stroke-width="1.417" stroke-linecap="round" stroke-linejoin="round"></path>
            <path d="M10.688877,262 C3.44865131,262.848738 0.397274685,265.981636 2.81715352,270.075393 C5.23962045,274.171758 12.7114816,278.518442 22.0933648,281.288899 C31.4726598,284.059356 41.1301763,284.771201 47,283.124572" id="Stroke-119" stroke-width="1.417" stroke-linecap="round" stroke-linejoin="round"></path>
            <path d="M132,260 L56,274" id="Stroke-121" stroke-width="1.417" stroke-linecap="round" stroke-linejoin="round"></path>
            <polyline id="Stroke-123" stroke-width="1.417" stroke-linecap="round" stroke-linejoin="round" points="37 264 112.637426 249.300503 112.885882 249.25417 113.140775 249.211808 113.400817 249.174742 113.667295 249.137675 113.937636 249.107228 114.2157 249.080752 114.49634 249.056923 114.783415 249.03839 115.075641 249.023828 115.371728 249.011914 115.672965 249.005295 115.979351 249 116.287024 249 116.599847 249.005295 116.917819 249.011914 117.238365 249.023828 117.562774 249.03839 117.88847 249.059571 118.218028 249.080752 118.548873 249.109876 118.884868 249.140323 119.220863 249.174742 119.559432 249.211808 119.899289 249.25417 120.243007 249.300503 120.585439 249.350808 120.931732 249.40376 121.276738 249.460683 121.621744 249.521578 121.96675 249.586444 122.314331 249.652634 122.661912 249.72412 123.008205 249.798253 123.353211 249.875033 123.698217 249.955785 124.043223 250.041832 124.385655 250.129203 124.729373 250.220545 125.070517 250.313212 125.407799 250.409849 125.743794 250.511782 126.079789 250.613715 126.411922 250.718295 126.740192 250.825523 127.067176 250.938046 127.391584 251.051893 127.710844 251.167064 128.028816 251.286206 128.341638 251.406672 128.649311 251.531109 128.955697 251.656871 129.256934 251.782632 129.554309 251.913688 129.845247 252.046068 130.132323 252.181096 130.412962 252.317448 130.691026 252.452476 130.962654 252.594122 131.229133 252.733122 131.487887 252.874768 131.74278 253.020387 131.991236 253.162033 132.231968 253.310299 132.468837 253.458565 132.697983 253.605507 132.920692 253.753773 133.135677 253.903362 133.344226 254.0556 133.546338 254.207837 133.740725 254.360074 133.928676 254.510988 134.107616 254.663225 134.280119 254.816786 134.442323 254.969023 134.600666 255.123908 134.748709 255.276145 134.890316 255.428382 135.022912 255.581943 135.147784 255.734181 135.263644 255.886418 135.37178 256.036007 135.472192 256.189568 135.562306 256.339158 135.644695 256.4861 135.719361 256.63569 135.783728 256.782632 135.84037 256.929574 135.888002 257.073868 135.927909 257.218163 135.96138 257.358486 135.981977 257.500132 135.994851 257.640455 136 257.776807 135.994851 257.911835 135.981977 258.048186 135.96138 258.179243 135.927909 258.307652 135.888002 258.43606 135.84037 258.563145 135.783728 258.686259 135.719361 258.805401 135.644695 258.924543 135.562306 259.041038 135.472192 259.156209 135.37178 259.266084 135.263644 259.374636 135.147784 259.48054 135.022912 259.582473 134.890316 259.681758 134.748709 259.778396 134.600666 259.873709 134.442323 259.963728 134.280119 260.052423 134.107616 260.134498 133.928676 260.216574 133.740725 260.292031 133.546338 260.368811 133.344226 260.438973 133.135677 260.506487 132.920692 260.568705 132.697983 260.630924 132.468837 260.687847 132.231968 260.7408 131.991236 260.78978"></polyline>
            <polyline id="Stroke-125" stroke-width="1.417" stroke-linecap="round" stroke-linejoin="round" points="110 247.382911 110.281935 247.331058 110.569092 247.283194 110.862774 247.240649 111.162983 247.198103 111.468413 247.160876 111.780369 247.127637 112.094936 247.098387 112.417334 247.073125 112.744953 247.050523 113.075183 247.033239 113.411939 247.019943 113.752611 247.010636 114.097198 247.002659 114.447007 247 114.799426 247.002659 115.157066 247.007977 115.518622 247.017284 115.882788 247.03058 116.252175 247.047864 116.620258 247.070466 116.993561 247.093069 117.372085 247.122319 117.750609 247.152898 118.131744 247.188796 118.514184 247.230012 118.901845 247.272558 119.286895 247.320422 119.677167 247.373604 120.067438 247.425456 120.45771 247.485286 120.850592 247.547775 121.244779 247.612923 121.637661 247.683389 122.031848 247.756515 122.426036 247.83097 122.821528 247.912072 123.215715 247.993175 123.608597 248.080925 124.002785 248.171335 124.395667 248.264403 124.785938 248.358802 125.174904 248.461177 125.565176 248.563553 125.952837 248.668587 126.337887 248.77894 126.721632 248.889293 127.101462 249.003634 127.479986 249.120635 127.85851 249.241624 128.231813 249.363943 128.599896 249.49158 128.969283 249.619216 129.333449 249.749512 129.695005 249.883797 130.052645 250.018082 130.405064 250.156355 130.754873 250.297288 131.100766 250.442209 131.441438 250.584471 131.776888 250.73471 132.108423 250.88229 132.434737 251.03253 132.757135 251.185428 133.074313 251.339656 133.384963 251.495214 133.689088 251.652101 133.990602 251.812976 134.284285 251.972523 134.570136 252.136057 134.853376 252.298263 135.13009 252.463127 135.397668 252.629321 135.66133 252.796845 135.91716 252.964368 136.166464 253.131892 136.410546 253.300745 136.645493 253.470927 136.872607 253.64111 137.094501 253.813951 137.307257 253.986793 137.514793 254.155646 137.711887 254.328488 137.902454 254.502659 138.08519 254.674171 138.261399 254.847013 138.428472 255.019855 138.585103 255.192696 138.739123 255.364208 138.878785 255.534391 139.015837 255.707233 139.139836 255.877415 139.258615 256.047598 139.368256 256.216451 139.470066 256.385304 139.560129 256.552828 139.64236 256.720351 139.718065 256.886545 139.784633 257.051409 139.843369 257.214944 139.889053 257.377149 139.929516 257.538025 139.960842 257.697571 139.984337 257.855788 139.994779 258.014005 140 258.166903 139.994779 258.321131 139.984337 258.47137 139.960842 258.62161 139.929516 258.76786 139.889053 258.914111 139.843369 259.056373 139.784633 259.198635 139.718065 259.336908 139.64236 259.473852 139.560129 259.606807 139.470066 259.739762 139.368256 259.86607 139.258615 259.992377 139.139836 260.117355 139.015837 260.237015 138.878785 260.356674 138.739123 260.472345 138.585103 260.584028 138.428472 260.69438 138.261399 260.799415 138.08519 260.90179 137.902454 261.002836 137.711887 261.099894 137.514793 261.194292 137.307257 261.284701 137.094501 261.371122 136.872607 261.454884 136.645493 261.537316 136.410546 261.613101 136.166464 261.684896 135.91716 261.756692 135.66133 261.820511 135.397668 261.885659 135.13009 261.942829 134.853376 262"></polyline>
            <path d="M77,382 L77,443" id="Stroke-127" stroke-width="1.417" stroke-linecap="round" stroke-linejoin="round"></path>
            <path d="M135,390 L120,440" id="Stroke-129" stroke-width="1.417" stroke-linecap="round" stroke-linejoin="round"></path>
            <polyline id="Stroke-135" stroke-width="1.417" stroke-linecap="round" stroke-linejoin="round" points="70 351 58.8452083 329.957926 58.5142476 329.338088 58.1781358 328.71825 57.8368728 328.101005 57.4917465 327.481167 57.141469 326.863923 56.7873282 326.246678 56.4280362 325.633324 56.0661687 325.022563 55.7004378 324.410506 55.328268 323.798448 54.9535227 323.191577 54.574914 322.5873 54.1963052 321.983023 53.808682 321.382636 53.4210588 320.782249 53.0269967 320.187049 52.6329345 319.594442 52.235009 319.007022 51.8319324 318.418306 51.427568 317.834776 51.0193402 317.256434 50.6098246 316.679388 50.1977335 316.107529 49.781779 315.538264 49.363249 314.975482 48.9421433 314.415293 48.5184622 313.858995 48.094781 313.307884 47.6685242 312.760663 47.2422674 312.219926 46.8108595 311.683079 46.3794516 311.150122 45.9480437 310.622352 45.5140603 310.099769 45.078789 309.584966 44.6435178 309.070163 44.2069587 308.563141 43.7691119 308.062602 43.3312651 307.567251 42.8934182 307.074492 42.4542836 306.589514 42.0164368 306.11102 41.57859 305.637713 41.1407432 305.166999 40.7028963 304.702769 40.2637617 304.247616 39.8259149 303.796353 39.3880681 303.348981 38.9527968 302.910685 38.5162378 302.478873 38.0835421 302.052248 37.6495586 301.632107 37.2181507 301.215856 36.7893184 300.807385 36.3604861 300.405398 35.9342293 300.012489 35.5105481 299.622172 35.0855792 299.239636 34.6670491 298.863584 34.248519 298.495312 33.8325646 298.13093 33.4191857 297.773032 33.0083823 297.421618 32.6001545 297.077983 32.1957901 296.739536 31.7940013 296.404979 31.394788 296.080796 30.9994381 295.760504 30.6079515 295.445398 30.2177527 295.140666 29.8314173 294.838527 29.4489452 294.545465 29.0703365 294.254997 28.6968789 293.97231 28.3272846 293.698699 27.960266 293.427682 27.5983985 293.163149 27.2391065 292.906396 26.8862535 292.65483 26.5372638 292.408451 26.1908497 292.169852 25.8508745 291.935143 25.5147627 291.706919 25.183802 291.483881 24.8567047 291.26603 24.5347585 291.053366 24.2166756 290.847185 23.9011684 290.647488 23.5933878 290.451682 23.2894706 290.259765 22.988129 290.073036 22.694514 289.891493 22.4021869 289.715138 22.1137231 289.545266 21.8342738 289.377987 21.5561123 289.215896 21.2843897 289.057695 21.0152427 288.905977 20.7512468 288.756853 20.4924021 288.614212 20.2387085 288.474165 19.9888782 288.336711 19.7454869 288.205742 19.5046711 288.077365 19.2677187 287.954175 19.0359175 287.834876 18.8105552 287.71817 18.5890562 287.605355 18.368845 287.495132 18.1550727 287.391394 17.9464516 287.287655 17.740406 287.187807 17.5407994 287.093145 17.3437683 287.001077 17.1493128 286.912899 16.9612962 286.826018 16.7758552 286.741731 16.5955653 286.661333 16.4191388 286.58353 16.2478634 286.509616 16.0778759 286.436999 15.9130394 286.365678 15.7520663 286.300842 15.5936688 286.236005 15.4404224 286.172465 15.2897516 286.111519 15.1442319 286.055759 15 286"></polyline>
            <path d="M2,267 L0,274" id="Stroke-137" stroke-width="1.417" stroke-linecap="round" stroke-linejoin="round"></path>
            <polyline id="Stroke-139" stroke-width="1.417" stroke-linecap="round" stroke-linejoin="round" points="70 351 70.1964427 351.34593 70.3928854 351.697005 70.5851779 352.053223 70.7747036 352.4133 70.9628458 352.77852 71.1509881 353.146312 71.3322134 353.52182 71.5134387 353.898614 71.6932806 354.283125 71.8731225 354.670207 72.0460474 355.062433 72.2189723 355.458517 72.387747 355.86103 72.5551383 356.267402 72.7183794 356.678918 72.883004 357.093006 73.0420949 357.513524 73.1998024 357.937899 73.3533597 358.367419 73.5055336 358.800796 73.6549407 359.238032 73.8001976 359.680412 73.9440711 360.130507 74.0837945 360.580602 74.220751 361.037128 74.3577075 361.497511 74.4863636 361.960466 74.6164032 362.431137 74.7436759 362.905667 74.865415 363.382768 74.9857708 363.863727 75.0992095 364.352402 75.2140316 364.843649 75.3233202 365.334896 75.4312253 365.835145 75.5335968 366.340538 75.634585 366.847216 75.7300395 367.359039 75.8241107 367.87472 75.9140316 368.392973 76.0011858 368.920227 76.0828063 369.447482 76.1630435 369.977309 76.2405138 370.514851 76.3124506 371.05368 76.3816206 371.597652 76.4466403 372.14291 76.5088933 372.694599 76.5683794 373.250145 76.6237154 373.806978 76.6735178 374.37024 76.7233202 374.93736 76.7662055 375.507052 76.8049407 376.079316 76.8422925 376.656724 76.8754941 377.235419 76.9045455 377.819257 76.9294466 378.406953 76.9488142 378.997221 76.9667984 379.592633 76.9820158 380.18933 76.9889328 380.789886 76.9972332 381.3943 77 382"></polyline>
            <polyline id="Stroke-141" stroke-width="1.417" stroke-linecap="round" stroke-linejoin="round" points="140 258 140 353.427163 140 353.97981 139.994519 354.536331 139.987668 355.090269 139.975337 355.64679 139.963005 356.204601 139.945193 356.762413 139.926011 357.320225 139.901347 357.88062 139.876684 358.441014 139.84654 359.001409 139.815026 359.563094 139.780772 360.126071 139.741037 360.687757 139.698561 361.253316 139.657456 361.815002 139.60813 362.383144 139.558803 362.947412 139.506737 363.514262 139.450559 364.081113 139.390272 364.649255 139.328614 365.214814 139.264216 365.785538 139.195707 366.354971 139.127198 366.923113 139.053208 367.493837 138.976479 368.064562 138.897008 368.637868 138.813428 369.208593 138.729847 369.780608 138.640786 370.352624 138.548984 370.92593 138.455812 371.500528 138.3599 372.075126 138.261247 372.648433 138.157113 373.22174 138.05435 373.79892 137.944736 374.373518 137.833752 374.949407 137.721398 375.526588 137.604933 376.102477 137.487098 376.678366 137.366522 377.256838 137.240466 377.834018 137.111669 378.41249 136.982873 378.988379 136.849966 379.566851 136.714318 380.146613 136.575931 380.725085 136.436173 381.303557 136.289564 381.882028 136.145695 382.461791 135.997716 383.042845 135.844257 383.621317 135.689427 384.199789 135.533227 384.782134 135.372916 385.359314 135.209865 385.937786 135.045444 386.51884 134.876913 387.097312 134.707011 387.679657 134.534369 388.258129 134.356246 388.839183 134.179493 389.417655 134 390"></polyline>
            <path d="M114,191 L114,262.732483 C96,266.244161 87,268 87,268 C87,268 87,244.266516 87,196.799548" id="Stroke-81" stroke-width="1.417" fill="#FFFFFF" stroke-linecap="round" stroke-linejoin="round"></path>
            <g id="Group-19" transform="translate(54.000000, 0.000000)" stroke-linecap="round" stroke-linejoin="round" stroke-width="1.417">
                <path d="M22.5437776,176.807643 C22.3931507,176.722293 22.1801955,176.766261 21.9724343,176.92791 C21.7620761,177.08956 21.5854791,177.348198 21.4945836,177.619769" id="Stroke-1"></path>
                <polyline id="Stroke-3" points="21.4957522 177.620933 21.6450806 177.580844 21.799603 177.539462 21.9567224 177.49032 22.1138418 177.436006 22.2696627 177.376519 22.4241851 177.309273 22.4982 177.270477 22.5735134 177.231682 22.6436328 177.190299 22.7163493 177.148917 22.7838716 177.102362 22.848797 177.053221 22.9124239 177.001493 22.9786478 176.945886 23.0409761 176.883813 23.104603 176.81786 23.1669313 176.748027 23.2253642 176.675608 23.2799015 176.60319 23.3305433 176.528184 23.3772896 176.450593 23.4240358 176.365242 23.4707821 176.277305 23.5110358 176.186781 23.5486925 176.093671 23.5811552 176.005734 40.3955284 125.298315"></polyline>
                <path d="M47.0416791,117.234864 C44.2641716,118.456932 41.5892463,121.704142 40.3972164,125.297927" id="Stroke-5"></path>
                <polyline id="Stroke-7" points="30.0882358 179.746297 30.0596687 179.838114 30.0336985 179.936396 30.0103254 180.039852 29.9921463 180.142014 29.9778627 180.244176 29.9661761 180.343752 29.9596836 180.442035 29.9544896 180.546784 29.9544896 180.651532 29.9596836 180.757574 29.9635791 180.862323 29.9739672 180.967072 29.9843552 181.067941 30.0012358 181.163637 30.0181164 181.26192 30.0388925 181.358909 30.0622657 181.455899 30.0895343 181.554182 30.1181015 181.652464 30.1479672 181.750747 30.214191 181.943433 30.2869075 182.137412 30.3635194 182.324925 30.4427284 182.509852 30.5245343 182.687019 30.6037433 182.860307"></polyline>
                <path d="M31.8457657,182.465366 C31.8457657,182.11491 31.634109,181.93257 31.3367507,182.026973 C31.0393925,182.120083 30.7355418,182.465366 30.605691,182.858497" id="Stroke-9"></path>
                <path d="M31.8268075,194.811357 L31.8436881,182.46653" id="Stroke-11"></path>
                <path d="M37.7099552,156.761848 L30.0877164,179.74578" id="Stroke-13"></path>
                <polyline id="Stroke-15" points="30.6042627 182.860566 9.37496418 246.878828 0.263337313 241.6401 21.4952328 177.620545"></polyline>
                <path d="M9.37483433,246.878828 L31.8273269,194.810969" id="Stroke-17"></path>
                <path d="M31.8318716,191.032774 L36.7428269,179.64491" id="Stroke-19"></path>
                <polyline id="Stroke-21" points="23.0009821 176.925065 22.9633254 176.925065 22.9178776 176.925065 22.8659373 176.919893 22.8075045 176.908254 22.7412806 176.892736 22.6763552 176.870751 22.6114299 176.843594 22.542609 176.808678"></polyline>
                <polyline id="Stroke-23" points="31.3011716 181.64574 31.3011716 181.648326 31.3037687 181.654792 31.3050672 181.663845 31.3102612 181.679363 31.3193507 181.698761 31.3310373 181.723331 31.3453209 181.747902 31.3635 181.778939 31.3855746 181.811269 31.4102463 181.842305 31.4440075 181.878515 31.4790672 181.916017 31.5167239 181.94964 31.5582761 181.98585 31.6050224 182.015593 31.6530672 182.04663"></polyline>
                <polyline id="Stroke-25" points="13.818197 71.6756497 13.9701224 71.7610005 13.9753164 71.7661733 14.1077642 71.8411785 14.242809 71.9135974 14.3765552 71.9821366 14.5116 72.0532623 14.6453463 72.117922 14.780391 72.1825817 14.9141373 72.2459482 15.0491821 72.3041419 15.1829284 72.3623356 15.3166746 72.4153565 15.4491224 72.4696707 15.5802716 72.5175188 15.7127194 72.5640738 15.8425701 72.6093356 15.9724209 72.6507178 16.1009731 72.6882204 16.2269284 72.7231366 16.3541821 72.7554665 16.4775403 72.7839168 16.602197 72.8084874 16.7203612 72.8330581 16.8424209 72.8511628 16.9592866 72.8666812 17.0761522 72.8809063 17.1904209 72.892545 17.3059881 72.9003042 17.4150627 72.9041838 17.5241373 72.9067702 17.6332119 72.9041838 17.738391 72.9028906 17.8435701 72.8951314 17.9435552 72.8860791 18.0435403 72.8744403 18.1396299 72.8602152 18.2357194 72.8421105 18.3292119 72.8227126 18.4201075 72.7994351 18.5136 72.7748644 18.6044955 72.7438277 18.692794 72.7140843 18.782391 72.6791681 18.8719881 72.6416654 18.9576896 72.6015764 19.043391 72.5601942 19.127794 72.5136393 19.212197 72.4644979 19.294003 72.4127702 19.375809 72.3597492 19.4576149 72.3041419 19.5368239 72.2433618 19.6147343 72.1825817 19.6913463 72.117922 19.7666597 72.0506759 19.8406746 71.9782571 19.913391 71.9058382 19.9835104 71.8295398 20.0536299 71.750655 20.1237493 71.670477 20.1899731 71.5877126 20.2574955 71.4984822 20.3198239 71.410545 20.3834507 71.3200215 20.4457791 71.2256183 20.506809 71.1312152 20.5652418 71.0329325 20.6236746 70.9359429 20.680809 70.8324874 20.7366448 70.7303251 20.7898836 70.6255764 20.8444209 70.5182414 20.8950627 70.4109063 20.947003 70.302278 20.9950478 70.1936497 21.044391 70.0811419 21.0924358 69.9699272 21.1378836 69.854833 21.1820328 69.7384455 21.2248836 69.6246445 21.3092866 69.3892832 21.3910925 69.1526288 21.4703015 68.9082152 21.5456149 68.6612152 21.6170328 68.4103356 21.6884507 68.1529901 21.7559731 67.8904717 21.8208985 67.6279534 21.8832269 67.3576759 21.9468537 67.084812 22.0052866 66.8080686 22.0637194 66.5261524 22.1208537 66.2429429 22.1766896 65.9545607 22.2299284 65.6635921 22.2818687 65.3674508 22.3325104 65.0700162 22.3844507 64.7674089 22.433794 64.4635084 22.4818388 64.1544351 22.5311821 63.8453618 22.5779284 63.5311157 22.6272716 63.2142832 22.6740179 62.8974508 22.7207642 62.5741524"></polyline>
                <path d="M84.6730746,33.4379806 C84.6730746,14.8638393 72.3567313,6.43480262 56.2721194,13.9999859 C40.186209,21.5651691 25.6390299,42.6287084 22.7225821,62.5749283" id="Stroke-27"></path>
                <path d="M57.3054716,2.82627487 C49.097606,-1.89258901 37.0162925,1.62877749 25.9335313,11.9704476 C14.8520687,22.3108246 6.59875522,37.7670759 4.50296418,52.1008351" id="Stroke-29"></path>
                <polyline id="Stroke-31" points="13.9697328 71.7615178 13.8178075 71.676167 13.8126134 71.6709942 13.6775687 71.5921094 13.5425239 71.5106382 13.4035836 71.4239942 13.2646433 71.3360571 13.1244045 71.2429471 12.9841657 71.1498372 12.8413299 71.0515545 12.698494 70.9519785 12.5530612 70.848523 12.4089269 70.7437743 12.263494 70.6377325 12.1193597 70.527811 11.9739269 70.4140099 11.8271955 70.3002089 11.6817627 70.1838215 11.5363299 70.0622613 11.3921955 69.940701 11.2467627 69.8178476 11.1026284 69.6924079 10.9571955 69.5643817 10.8143597 69.4337691 10.6715239 69.3031565 10.5299866 69.1712508 10.3897478 69.0354654 10.2482104 68.9009733 10.1105687 68.7638948 9.97292687 68.6242298 9.83788209 68.4858581 9.70413582 68.3461932 9.57038955 68.2052351 9.44313582 68.0655702 9.31198657 67.9233188 9.18473284 67.7810675 9.06137463 67.6388162 8.93931493 67.4978581 8.81855373 67.3530204 8.69649403 67.2081827 8.57832985 67.0594654 8.45627015 66.9107482 8.33940448 66.7594445 8.21994179 66.6055545 8.10307612 66.4503712 7.98621045 66.2938948 7.87194179 66.1348319 7.75767313 65.9744759 7.64470299 65.8141199 7.53303134 65.6511775 7.4213597 65.4856487 7.31358358 65.3214131 7.20580746 65.1532979 7.09803134 64.9851827 6.99544925 64.8157743 6.89286716 64.646366 6.79028507 64.4756644 6.69159851 64.3036696 6.59291194 64.1316749 6.4994194 63.9570937 6.40592687 63.7825126 6.31503134 63.6079314 6.22413582 63.4333503 6.13713582 63.2561827 6.05273284 63.0790152 5.96962836 62.9018476 5.8891209 62.7272665 5.80991194 62.550099 5.73589701 62.3742246 5.66058358 62.1970571 5.58786716 62.0198895 5.51774776 61.8440152 5.45022537 61.6681408 5.3853 61.4935597 5.32167313 61.3189785 5.26064328 61.1456906 5.20091194 60.9698162 5.14377761 60.7978215 5.09053881 60.6284131 5.0373 60.4551251 4.98795672 60.2883031 4.89446418 59.9507796 4.80746418 59.6158424 4.72565821 59.2821984 4.65294179 58.9498476 4.58801642 58.6162037 4.52698657 58.2864393 4.47374776 57.9553817 4.42700149 57.6256173 4.38674776 57.2971461 4.35168806 56.9686749 4.3231209 56.6402037 4.30234478 56.3130257 4.28546418 55.9858476 4.27507612 55.6599628 4.26988209 55.334078 4.26988209 55.0107796 4.27507612 54.6848948 4.28546418 54.3615963 4.30234478 54.0382979 4.3231209 53.7149995 4.34909104 53.3904079 4.38285224 53.0671094 4.41791194 52.743811 4.45686716 52.423099 4.50101642 52.0985073"></polyline>
                <path d="M57.018891,133.145285 C57.018891,134.178547 57.7486522,134.597542 58.6459209,134.081558 C59.5457866,133.56428 60.2742493,132.308589 60.2729507,131.274034 C60.2729507,130.240772 59.5444881,129.821777 58.6459209,130.339055 C57.7473537,130.855039 57.018891,132.112024 57.018891,133.145285" id="Stroke-33"></path>
                <path d="M49.0459254,110.490988 L43.5714179,128.891842" id="Stroke-35"></path>
                <polyline id="Stroke-37" points="43.5716776 128.891842 43.3171701 129.759575 43.0665582 130.626015 42.8185433 131.491161 42.5783194 132.357601 42.341991 133.221454 42.1108567 134.085308 41.8823194 134.949161 41.6602746 135.811721 41.4421254 136.672988 41.2304687 137.531669 41.0227075 138.392936 40.8188418 139.25291 40.6201701 140.109004 40.427991 140.965098 40.2397075 141.819899 40.0540209 142.674701 39.8761254 143.528208 39.7021254 144.377837 39.5333194 145.230051 39.3697075 146.077093 39.2112896 146.924135 39.0554687 147.77247 38.9061403 148.616926 38.762006 149.460088 38.6217672 150.299371 38.4880209 151.139947 38.3568716 151.977936 38.2335134 152.814632 38.1140507 153.647449 37.9997821 154.480266 37.8907075 155.309203 37.7842299 156.13814 37.6868418 156.964491 37.5907522 157.790842 37.5024537 158.61202 37.4180507 159.431905 37.3388418 160.25179 37.2635284 161.065208 37.193409 161.87992 37.1310806 162.690753 37.0726478 163.500292 37.0155134 164.305952 36.9674687 165.109025 36.9246179 165.912098 36.8856627 166.711292 36.8493045 167.506606 36.8220358 168.300627 36.7986627 169.090769 36.7804836 169.878324 36.7662 170.664585 36.7558119 171.448261 36.7545134 172.226763 36.7402299 181.535172"></polyline>
                <polyline id="Stroke-39" points="48.0219224 113.931142 41.2385194 105.999985 41.3748627 106.043954 41.5176985 106.091802 41.6670269 106.144823 41.8189522 106.203017 41.9773701 106.266383 42.1409821 106.333629 42.3097881 106.406048 42.4824896 106.482347 42.6603851 106.563818 42.8408776 106.650462 43.0265642 106.740985 43.2187433 106.836682 43.4135194 106.936258 43.6134896 107.03842 43.8173552 107.148341 44.0225194 107.262142 44.2341761 107.37853 44.4484299 107.498797 44.6665791 107.62553 44.8873254 107.753556 45.1119672 107.888048 45.341803 108.02642 45.5729373 108.166085 45.8066687 108.312216 46.042997 108.458347 46.2806239 108.612237 46.5234448 108.766127 46.7675642 108.926483 47.0155791 109.086839 47.2622955 109.252368 47.5129075 109.420483 47.7648179 109.592477 48.0180269 109.767059 48.2725343 109.944226 48.5296388 110.122687 48.7867433 110.305027 49.0464448 110.491247"></polyline>
                <polyline id="Stroke-41" points="36.7398403 181.535818 36.506109 181.615996 36.2723776 181.687122 36.0412433 181.751782 35.812706 181.808682"></polyline>
                <polyline id="Stroke-43" points="29.2747209 158.833027 29.3357507 158.02866 29.4006761 157.223001 29.4707955 156.412168 29.5448104 155.600042 29.6253179 154.78533 29.7084224 153.970618 29.8006164 153.150734 29.894109 152.332142 29.994094 151.508377 30.0992731 150.684613 30.2096463 149.858262 30.3239149 149.029325 30.4433776 148.200388 30.5693328 147.367571 30.6978851 146.533461 30.8316313 145.698058 30.9718701 144.862655 31.1160045 144.024665 31.2666313 143.18409 31.4172582 142.34222 31.5769746 141.499058 31.7431836 140.653309 31.910691 139.808854 32.084691 138.961812 32.2612881 138.112184 32.4456761 137.262555 32.6326612 136.412927 32.8248403 135.560713 33.0235119 134.705912 33.2260791 133.852404 33.4325418 132.997603 33.645497 132.141508 33.8623478 131.284121 34.083094 130.428027 34.3090343 129.569346 34.5401687 128.710665 34.776497 127.849398 35.0154224 126.988131 35.2608403 126.125571 35.5101537 125.264304 35.7659597 124.403037 41.2391687 106.000891"></polyline>
                <path d="M60.4560403,188.570146 C60.4872045,188.359355 60.5040851,188.147271 60.5040851,187.936481" id="Stroke-45"></path>
                <path d="M56.7304925,193.174562 C58.8769254,191.939562 60.196209,190.308845 60.4559104,188.569499" id="Stroke-47"></path>
                <path d="M53.4398149,195.067668 L56.7289343,193.174432" id="Stroke-49"></path>
                <polyline id="Stroke-51" points="82.796991 109.308363 82.8852896 109.000583 82.9722896 108.688923 83.0592896 108.369504 83.142394 108.046206 83.2242 107.719028 83.3047075 107.385384 83.3813194 107.045274 83.4553343 106.703871 83.5280507 106.354708 83.6007672 106.000373 83.6682896 105.644745 83.7371104 105.281358 83.8020358 104.914091 83.8630657 104.542944 83.922797 104.166625 83.9825284 103.786426 84.0383642 103.402347 84.091603 103.014389 84.1435433 102.623845 84.1915881 102.226834 84.2357373 101.827237 84.2811851 101.423761 84.3227373 101.018991 84.362991 100.609049 84.4006478 100.195227 84.4357075 99.7801115 84.4681701 99.3598236 84.4980358 98.9382424 84.526603 98.5140749 84.5525731 98.0860277 84.5759463 97.6553942 84.5967224 97.2221743 84.6123045 96.7889545 84.6291851 96.351855 84.6434687 95.9121691 84.6525582 95.4698969 84.6616478 95.0276246 84.6681403 94.582766 84.6707373 94.1366141 84.6733343 93.6891691"></polyline>
                <path d="M84.6737239,93.6890398 L84.6737239,33.4404377" id="Stroke-59"></path>
                <polyline id="Stroke-61" points="51.0069313 33.6217435 51.3055881 33.5208743 51.6055433 33.4290576 51.901603 33.3398272 52.1963642 33.2557696 52.4911254 33.1794712 52.7832896 33.104466 53.0754537 33.0398063 53.3650209 32.9764398 53.6532896 32.9208325 53.9376627 32.8716911 54.2233343 32.8251361 54.5038119 32.7863403 54.7842896 32.7514241 55.0621701 32.7229738 55.3400507 32.6996963 55.6140358 32.6802984 55.8867224 32.6699529 56.1555134 32.6621937 56.4243045 32.6596073 56.6892 32.6647801 56.952797 32.6738325 57.2150955 32.6880576 57.4722 32.7061623 57.7293045 32.7320262 57.9812149 32.7617696 58.2331254 32.7979791 58.4811403 32.8367749 58.7265582 32.8833298 58.9693791 32.9350576 59.2109015 32.9906649 59.4485284 33.0540314 59.6861552 33.1186911 59.7692597 33.1471414 59.8471701 33.171712 59.9185881 33.2027487 59.987409 33.2299058 60.0471403 33.2609424 60.1029761 33.2906859 60.1549164 33.3217225 60.2016627 33.351466 60.2458119 33.3812094 60.2860657 33.4148325 60.3237224 33.4445759 60.3587821 33.4743194 60.3886478 33.5079424 60.4172149 33.5376859 60.4678567 33.5997592 60.512006 33.6631257 60.5483642 33.7264921 60.5782299 33.7911518 60.601603 33.8545183 60.6197821 33.919178 60.6340657 33.9825445 60.6405582 34.0472042 60.6431552 34.1079843"></polyline>
                <polyline id="Stroke-63" points="55.889709 51.7498623 55.9598284 51.5196738 56.0247537 51.286899 56.0909776 51.0567105 56.155903 50.826522 56.2195299 50.5950403 56.2792612 50.3674382 56.3389925 50.1385429 56.3974254 49.9109408 56.4558582 49.6833387 56.511694 49.4570298 56.5649328 49.2320141 56.6168731 49.0057052 56.6675149 48.7819827 56.7194552 48.5582602 56.7662015 48.3345377 56.8155448 48.1134016 56.859694 47.8935586 56.9038433 47.6737157 56.9453955 47.455166 56.9882463 47.2366162 57.0272015 47.0193597 57.0674552 46.8033963 57.1051119 46.587433 57.1401716 46.3753492 57.1752313 46.1606791 57.207694 45.9498885 57.2388582 45.7378047 57.2687239 45.5283073 57.2959925 45.3201031 57.3245597 45.1131921 57.3505299 44.9062812 57.3765 44.7019565 57.3998731 44.4989251 57.4206493 44.2958937 57.4414254 44.0941555 57.4596045 43.8962969 57.4764851 43.6958518 57.4933657 43.5005796 57.5089478 43.3053073 57.5232313 43.1087419 57.5349179 42.9186424 57.5466045 42.7272497 57.555694 42.5358571 57.5660821 42.348344 57.5725746 42.1621241 57.5790672 41.9759042 57.5842612 41.7935639 57.5894552 41.6099304 57.5907537 41.4314696 57.5907537 41.2517157 57.5907537 41.0745482 57.5907537 40.899967 57.5894552 40.7253859 57.5842612 40.5533911 57.5790672 40.3839827 57.5751716 40.2158675 57.5673806 40.0503387 57.558291 39.8861031 57.5492015 39.7231607 57.5401119 39.5615115 57.5284254 39.4037419 57.5154403 39.2459723 57.5024552 39.0894958 57.4881716 38.9381921 57.4738881 38.7868885 57.458306 38.6355848 57.4414254 38.4894539 57.4232463 38.3446162 57.4050672 38.1997785 57.3855896 38.0614068 57.3648134 37.9204487 57.3440373 37.7833702 57.3206642 37.648878 57.2985896 37.5156791 57.2752164 37.3850665 57.2492463 37.2557471 57.2245746 37.1290141 57.1986045 37.0061607 57.1726343 36.8820141 57.1466642 36.7643335 57.1193955 36.6453597 57.0908284 36.5315586 57.0622612 36.4177576 57.0323955 36.3078361 57.0038284 36.1979147 56.9739627 36.0918728 56.944097 35.9884173 56.9129328 35.886255 56.8830672 35.7866791 56.8506045 35.6883963 56.8194403 35.5927 56.7869776 35.4995901 56.7545149 35.4090665 56.7246493 35.3211293 56.6908881 35.2344853 56.6584254 35.1517209 56.6259627 35.0689565 56.5935 34.9900717 56.5610373 34.9111869 56.5272761 34.8361817 56.4948134 34.765056 56.4649478 34.6926372 56.4311866 34.6240979 56.3987239 34.558145 56.3363955 34.431412 56.2727687 34.3150246 56.2130373 34.2063963 56.153306 34.1029408 56.0948731 34.0098309 56.0390373 33.9218937 55.9832015 33.8430089 55.9312612 33.7705901 55.8806194 33.703344 55.8312761 33.6451503 55.7871269 33.5895429 55.7442761 33.5404016 55.6507836 33.4369461 55.5598881 33.3347838 55.4689925 33.2352079 55.3793955 33.1330455 55.291097 33.0295901 55.2053955 32.9274277 55.1183955 32.8278518 55.0313955 32.7256895"></polyline>
                <polyline id="Stroke-65" points="51.0069313 33.6217435 50.8848716 33.6631257 50.7589164 33.7096806 50.6329612 33.7549424 50.507006 33.8027906 50.3784537 33.8519319 50.2473045 33.9036597 50.1161552 33.9566806 49.982409 34.0097016 49.8473642 34.0666021 49.7123194 34.1247958 49.5733791 34.1855759 49.4370358 34.2476492 49.2954985 34.3110157 49.1552597 34.3756754 49.0124239 34.4429215 48.8695881 34.5101675 48.7280507 34.5825864 48.5800209 34.6550052 48.4358866 34.7287173 48.2891552 34.8063089 48.1398269 34.8839005 47.9892 34.9653717 47.8398716 35.0468429 47.6879463 35.1296073 47.5360209 35.2162513 47.3814985 35.3016021 47.2269761 35.3934188 47.0737522 35.4839424 46.9166328 35.5770524 46.7621104 35.6714555 46.6036925 35.7671518 46.4465731 35.8680209 46.2881552 35.9675969 46.1284388 36.0710524 45.9674239 36.175801 45.806409 36.2792565 45.645394 36.389178 45.4843791 36.4990995 45.3233642 36.6103141 45.1584537 36.7215288 44.9948418 36.8379162 44.8312299 36.9543037 44.6663194 37.0732775 44.5027075 37.1948377 44.3364985 37.3176911 44.1702896 37.4418377 44.0040806 37.5672775 43.8378716 37.6953037 43.6703642 37.824623 43.5041552 37.9565288 43.3353493 38.0910209 43.1691403 38.2255131 43.0016328 38.3612984 42.8341254 38.4996702 42.6653194 38.6393351 42.4965134 38.7815864 42.3277075 38.9264241 42.1602 39.0699686 41.991394 39.2173927 41.8212896 39.3661099 41.6524836 39.5174136 41.4849761 39.6687173 41.3135731 39.8226073 41.1460657 39.9790838 40.9772597 40.134267 40.8084537 40.2933298 40.6383493 40.4536859 40.4708418 40.6140419 40.3020358 40.7769843 40.1332299 40.9425131 39.9657224 41.1106283 39.7969164 41.2774503 39.6281104 41.4468586 39.460603 41.6175602 39.2930955 41.789555 39.1268866 41.9641361 38.9580806 42.1387173 38.7918716 42.3158848 38.6256627 42.4943455 38.4581552 42.6740995 38.2919463 42.8564398 38.1283343 43.0374869 37.9621254 43.2211204 37.7959164 43.4047539 37.6323045 43.5935602 37.4686925 43.7797801 37.3050806 43.9698796 37.1414687 44.1612723 36.9778567 44.3526649 36.8168418 44.5453508 36.6558269 44.7393298 36.4948119 44.9346021 36.333797 45.1324607 36.1740806 45.3303194 36.0130657 45.5294712 35.8546478 45.7299162 35.6975284 45.9303613 35.5378119 46.1333927 35.381991 46.3377173 35.2248716 46.5433351 35.0690507 46.7476597 34.9145284 46.9545707 34.760006 47.1640681 34.6054836 47.3735654 34.4535582 47.5830628 34.3016328 47.7951466 34.151006 48.0072304 33.9977821 48.2219005 33.8484537 48.4352775 33.6991254 48.6499476 33.552394 48.865911 33.4043642 49.0831675 33.2576328 49.3017173 33.1122 49.520267 32.9667672 49.7388168 32.8226328 49.9599529 32.679797 50.181089 32.5369612 50.4022251 32.3954239 50.6259476 32.2551851 50.8496702 32.1149463 51.0720995 31.976006 51.2984084 31.8383642 51.5247173 31.7033194 51.749733 31.5669761 51.9760419 31.4319313 52.203644 31.2981851 52.4312461 31.1657373 52.6627277"></polyline>
                <polyline id="Stroke-67" points="23.9691493 34.5550414 21.3656418 33.057523 21.2994179 33.0187272 21.2370896 32.9760518 21.1760597 32.9307901 21.1150299 32.8790623 21.054 32.8273346 20.9981642 32.7691408 20.9423284 32.7109471 20.885194 32.6462874 20.8345522 32.5816277 20.7826119 32.5079157 20.7345672 32.4367901 20.6852239 32.3579052 20.6410746 32.2777272 20.5956269 32.1949628 20.5540746 32.1083188 20.5164179 32.0177953 20.4787612 31.9246853 20.4437015 31.8315754 20.4112388 31.7332927 20.3813731 31.6337168 20.352806 31.5315545 20.3294328 31.4268058 20.3060597 31.3220571 20.2852836 31.2121356 20.265806 31.1035073 20.2528209 30.9909995 20.2385373 30.8797848 20.2294478 30.7646906 20.2203582 30.6508895 20.2125672 30.5345021 20.2099701 30.4181147 20.2086716 30.2991408"></polyline>
                <polyline id="Stroke-69" points="60.7439194 8.91217382 60.7400239 8.91476021 60.7348299 8.9173466 60.7283373 8.92122618 60.7088597 8.93545131 60.681591 8.94967644 60.6465313 8.96778115 60.6023821 8.98976545 60.5504418 9.01045654 60.494606 9.03114764 60.4283821 9.05183874 60.3569642 9.07511623 60.2790537 9.09710052 60.1946507 9.11779162 60.1037552 9.13848272 60.0102627 9.15917382 59.9076806 9.17857173 59.8025015 9.19409005 59.5713672 9.23417906 59.3415313 9.27297487 59.1078 9.31565026 58.8766657 9.35961885 58.6455313 9.40876021 58.4118 9.45660838 58.1780687 9.50833613 57.9443373 9.56394346 57.710606 9.61955079 57.4742776 9.6777445 57.2405463 9.74111099 57.0042179 9.80318429 56.7678896 9.86913717 56.5328597 9.93896963 56.2965313 10.0088021 56.057606 10.0812209 55.8212776 10.1575194 55.5836507 10.2338178 55.3473224 10.3139958 55.1096955 10.3967602 54.8707701 10.4808178 54.6318448 10.5674618 54.3916209 10.6579853 54.1526955 10.7485089 53.9150687 10.8416188 53.6735463 10.9373152 53.4359194 11.0355979 53.194397 11.1351738 52.9554716 11.2373361 52.7152478 11.3420848 52.4750239 11.4494199 52.2335015 11.5593414 51.9932776 11.670556 51.7530537 11.7843571 51.5115313 11.9020377 51.2713075 12.0171319 51.0310836 12.1386921 50.7895612 12.2589592 50.5480388 12.3856921 50.3078149 12.5111319 50.067591 12.6391581 49.8260687 12.7710639 49.5858448 12.9042628 49.3456209 13.038755 49.1040985 13.1771267 48.8638746 13.3142052 48.6236507 13.4564565 48.3821284 13.600001 48.140606 13.7448387 47.9003821 13.893556 47.6601582 14.0422733 47.4186358 14.193577 47.181009 14.347467 46.9407851 14.5039435 46.7018597 14.6617131 46.4603373 14.8194827 46.2227104 14.9837183 45.9837851 15.1466607 45.7435612 15.3108963 45.5046358 15.4790115 45.267009 15.6484199 45.0306806 15.8217079 44.7917552 15.996289 44.5541284 16.1708702 44.3178 16.3480377 44.0814716 16.5264984 43.8425463 16.7075455 43.6075164 16.8911791 43.3711881 17.0761058 43.1374567 17.2623257 42.9011284 17.4511319 42.667397 17.6412314 42.4336657 17.8339173 42.1999343 18.0278963 41.966203 18.2231686 41.7324716 18.4210272 41.5013373 18.6214723 41.2689045 18.8219173 41.0377701 19.0262419 40.8066358 19.2305665 40.5755015 19.4361843 40.3469642 19.6456817 40.1171284 19.8551791 39.888591 20.0672628 39.6587552 20.281933 39.4328149 20.4953099 39.2055761 20.7125665 38.9796358 20.929823 38.752397 21.149666 38.5277552 21.3708021 38.3031134 21.5945246 38.0784716 21.8195403 37.8551284 22.0458492 37.6330836 22.2734513 37.4110388 22.5036398 37.191591 22.7338283 36.9682478 22.9678963 36.7488 23.2006712 36.5319493 23.4373257 36.3150985 23.6726869 36.0969493 23.9132209 35.8800985 24.1524618 35.6645463 24.394289 35.4502925 24.6361162 35.2347403 24.8805298 35.0217851 25.1275298 34.8088299 25.3745298 34.5971731 25.622823 34.3868149 25.8724094 34.1764567 26.1245822 33.967397 26.3754618 33.7596358 26.6289277 33.5518746 26.8849801 33.3454119 27.1410325 33.1402478 27.3996712 32.9363821 27.6583099 32.7338149 27.9182419 32.5299493 28.179467 32.3299791 28.4419853 32.1287104 28.7083832 31.9300388 28.9709016 31.7313672 29.2385927 31.5326955 29.5062838 31.3366209 29.7739749 31.1418448 30.0442524 30.9483672 30.3132366 30.753591 30.5861005 30.5627104 30.8589644 30.4783075 30.976645 30.3913075 31.0930325 30.305606 31.2094199 30.216009 31.3271005 30.1251134 31.4396084 30.0342179 31.5547026 29.9407254 31.6685037 29.8446358 31.7810115 29.7485463 31.8896398 29.6511582 31.9995613 29.5524716 32.1081895 29.4524866 32.2155246 29.3499045 32.3202733 29.2473224 32.425022 29.1434418 32.5271843 29.0382627 32.6293466 28.9330836 32.7302157 28.8253075 32.8272052 28.7175313 32.9229016 28.6084567 33.0185979 28.4980836 33.1117079 28.389009 33.2048178 28.2773373 33.2940482 28.1643672 33.3819853 28.0526955 33.4673361 27.9371284 33.5513937 27.8228597 33.6354513 27.708591 33.7143361 27.5943224 33.7919277 27.4774567 33.8682262 27.360591 33.940645 27.2463224 34.0130639 27.1294567 34.0803099 27.0112925 34.1449696 26.8957254 34.2083361 26.7788597 34.267823 26.6606955 34.3273099 26.5451284 34.3803309 26.4282627 34.4307654 26.3100985 34.4799068 26.1945313 34.5251686 26.0789642 34.5665508 25.9646955 34.6040534 25.8530239 34.6389696 25.7400537 34.6712995 25.6283821 34.6984565 25.5193075 34.721734 25.4089343 34.7437183 25.3037552 34.7592366 25.1985761 34.7734618 25.093397 34.7799277 24.9921134 34.7876869 24.8947254 34.7876869 24.7986358 34.7851005 24.7051433 34.7786346 24.6116507 34.7695822 24.5220537 34.7553571 24.4363522 34.7359592 24.3519493 34.7152681 24.2701433 34.6906974 24.1935313 34.6622471 24.1156209 34.6299173 24.041606 34.5937079 23.9688896 34.554912"></polyline>
                <path d="M31.1654776,52.6623398 L20.616403,70.9493921" id="Stroke-73"></path>
                <path d="M34.9240075,122.239007 L55.889709,51.7496037" id="Stroke-75"></path>
                <polyline id="Stroke-77" points="82.796991 109.308363 61.6443045 180.421085 61.5715881 180.671965 61.4988716 180.920258 61.4313493 181.168551 61.3664239 181.414258 61.302797 181.659965 61.2417672 181.900499 61.1833343 182.143619 61.1274985 182.38286 61.0742597 182.620808 61.0249164 182.858755 60.9755731 183.092824 60.9288269 183.325598 60.8859761 183.55708 60.8444239 183.784682 60.8067672 184.009698 60.770409 184.23342 60.7366478 184.454557 60.7041851 184.674399 60.6756179 184.890363 60.6509463 185.105033 60.6249761 185.315824 60.6042 185.522735 60.5834239 185.730939 60.5665433 185.932677 60.5496627 186.133122 60.5379761 186.328394 60.5275881 186.523666 60.5172 186.715059 60.5107075 186.901279 60.5055134 187.084913 60.5042149 187.267253 60.5042149 187.443127 60.5042149 187.937127"></polyline>
                <polyline id="Stroke-79" points="28.246303 161.938373 28.2631836 161.339624 28.2839597 160.742169 28.3086313 160.14342 28.3346015 159.543378 28.3657657 158.94075 28.3956313 158.340708 28.4332881 157.735493 28.4709448 157.131572 28.5099 156.526357 28.5540493 155.918556 28.6007955 155.313341 28.6501388 154.704247 28.7020791 154.096446 28.7553179 153.486059 28.8137507 152.876964 28.8747806 152.265284 28.9384075 151.65231 29.0033328 151.040629 29.0708552 150.425069 29.1435716 149.810802 29.2162881 149.193949 29.2929 148.579682 29.3734075 147.962828 29.4552134 147.345975 29.5409149 146.726535 29.6266164 146.107095 29.7188104 145.488949 29.812303 144.866923 29.9083925 144.247483 30.0057806 143.625457 30.1070642 143.004724 30.2122433 142.380111 30.3174224 141.756792 30.426497 141.133472 30.5394672 140.50886 30.6537358 139.88554 30.7706015 139.259635 30.8926612 138.633729 31.0134224 138.00653 31.1406761 137.380624 31.2666313 136.752132 31.3964821 136.126226 31.5302284 135.497734 31.6652731 134.869242 31.8055119 134.24075 31.9457507 133.609671 32.0885866 132.981179 32.2353179 132.350101 32.3859448 131.720315 32.5352731 131.09053 32.6897955 130.460745 32.8456164 129.82708 33.0053328 129.196001 33.1689448 128.564923 33.3325567 127.932551 33.4974672 127.301472 33.6688701 126.669101 33.8389746 126.035436 34.0142731 125.404357 34.1921687 124.771985 34.3726612 124.13832 34.5518552 123.504655 34.7375418 122.872284 34.9245269 122.238619"></polyline>
                <path d="M75.5252194,13.3025665 L57.3058612,2.82769738" id="Stroke-71"></path>
                <path d="M31.1331448,196.426556 C33.4470851,198.028823 36.829697,199.000012 40.4499358,199.099587 C44.0688761,199.200457 47.5930254,198.419368 50.1549806,196.949006" id="Stroke-53"></path>
                <path d="M50.1535522,196.950687 L53.4400746,195.067797" id="Stroke-55"></path>
            </g>
        </g>
    </g>
</svg>