<?xml version="1.0" encoding="UTF-8"?>
<svg width="512px" height="512px" viewBox="0 0 512 512" version="1.1" xmlns="http://www.w3.org/2000/svg" xmlns:xlink="http://www.w3.org/1999/xlink">
    <title>CrochetMatic</title>
    <g id="CrochetMatic" stroke="none" stroke-width="1" fill="none" fill-rule="evenodd">
        <g id="Group" transform="translate(215.000000, 80.000000)" stroke="#2F2F2F" stroke-width="4">
            <rect id="Rectangle-12" fill="#D8D8D8" x="22" y="303" width="49" height="144"></rect>
            <path d="M79,173.898566 L16,179.395828 L16,300.056376 C21.1342499,303.967806 31.7150512,305.715641 47.5,305.715641 C63.2849488,305.715641 73.8657501,303.967806 79,300.056376 L79,173.898566 Z" id="Rectangle-10" fill="#EDEDED"></path>
            <path d="M48.7706533,2.02517451 L42.91504,2.02517451 C29.2987221,3.8074271 19.0541237,6.98515434 12.2297108,11.6654361 C5.80003111,16.0750041 2.5363478,21.8369808 2.5363478,29 C2.5363478,34.1916117 5.97744453,43.6745358 10.0314324,55.1011467 C14.5164446,67.742647 19.8089418,82.68364 22.5246785,96.9218057 C26.3597466,117.028444 21.2833594,146.052013 18.0404856,164.395715 C17.0543371,169.973982 16.2438944,174.542306 15.9334901,177.525893 C15.8582624,178.248977 15.8105383,178.865676 15.8044664,179.365058 C21.1570238,179.943035 43.8766877,181.577148 60.896329,179.286136 C66.0030815,178.598717 70.5896041,177.565887 73.9835228,176.003252 C76.4399422,174.872262 78.3016903,173.512197 78.902875,171.617817 C80.2100292,167.498872 71.8311272,141.284682 63.3003534,113.524594 C54.1351578,83.7000262 44.4725984,52.0342809 44.4725984,42.3023404 C44.4725984,29.5798298 47.5430523,21.2456351 53.1734631,16.9048367 L48.7706533,2.02517451 Z" id="Rectangle" fill="#EDEDED"></path>
            <path d="M65.0787577,140.005813 C60.1810341,143.531903 56.30984,145.550244 53.498637,146.15388 C50.4415077,146.810322 45.279214,146.407257 38,144.809113 L38,178.135362 L65.0787577,169.933396 L65.0787577,140.005813 Z" id="Rectangle-3" fill="#D8D8D8"></path>
            <polyline id="Line-13" fill="#EDEDED" stroke-linecap="square" points="32.5 136.5 48.5054586 180.250703 32.5 180.250703"></polyline>
            <path d="M41,18.294171 C28.8349748,27.4001194 22.7524622,35.8869712 22.7524622,43.7547265 C22.7524622,50.6641223 27.4011622,58.6140724 41,120.96903 C42.7043503,128.784014 39.8761378,133.943896 32.5153625,136.448676" id="Line" stroke-linecap="square"></path>
            <rect id="Rectangle-9" fill="#D8D8D8" x="36" y="2" width="21" height="16" rx="8"></rect>
            <path d="M85,135.306212 L68.5754906,137.653955 C67.8365728,137.759577 67.1927002,138.128816 66.733557,138.658257 C66.2744138,139.187697 66,139.87734 66,140.623768 L66,169.734978 L85,164.650001 L85,135.306212 Z" id="Rectangle-11" fill="#D8D8D8"></path>
        </g>
        <g id="Group" transform="translate(368.000000, 32.000000)" stroke="#2F2F2F" stroke-width="4">
            <rect id="Rectangle-12" fill="#D8D8D8" x="22" y="303" width="49" height="182"></rect>
            <path d="M79,173.898566 L16,179.395828 L16,300.056376 C21.1342499,303.967806 31.7150512,305.715641 47.5,305.715641 C63.2849488,305.715641 73.8657501,303.967806 79,300.056376 L79,173.898566 Z" id="Rectangle-10" fill="#EDEDED"></path>
            <path d="M48.7706533,2.02517451 L42.91504,2.02517451 C29.2987221,3.8074271 19.0541237,6.98515434 12.2297108,11.6654361 C5.80003111,16.0750041 2.5363478,21.8369808 2.5363478,29 C2.5363478,34.1916117 5.97744453,43.6745358 10.0314324,55.1011467 C14.5164446,67.742647 19.8089418,82.68364 22.5246785,96.9218057 C26.3597466,117.028444 21.2833594,146.052013 18.0404856,164.395715 C17.0543371,169.973982 16.2438944,174.542306 15.9334901,177.525893 C15.8582624,178.248977 15.8105383,178.865676 15.8044664,179.365058 C21.1570238,179.943035 43.8766877,181.577148 60.896329,179.286136 C66.0030815,178.598717 70.5896041,177.565887 73.9835228,176.003252 C76.4399422,174.872262 78.3016903,173.512197 78.902875,171.617817 C80.2100292,167.498872 71.8311272,141.284682 63.3003534,113.524594 C54.1351578,83.7000262 44.4725984,52.0342809 44.4725984,42.3023404 C44.4725984,29.5798298 47.5430523,21.2456351 53.1734631,16.9048367 L48.7706533,2.02517451 Z" id="Rectangle" fill="#EDEDED"></path>
            <path d="M65.0787577,140.005813 C60.1810341,143.531903 56.30984,145.550244 53.498637,146.15388 C50.4415077,146.810322 45.279214,146.407257 38,144.809113 L38,178.135362 L65.0787577,169.933396 L65.0787577,140.005813 Z" id="Rectangle-3" fill="#D8D8D8"></path>
            <polyline id="Line-13" fill="#EDEDED" stroke-linecap="square" points="32.5 136.5 48.5054586 180.250703 32.5 180.250703"></polyline>
            <path d="M41,18.294171 C28.8349748,27.4001194 22.7524622,35.8869712 22.7524622,43.7547265 C22.7524622,50.6641223 27.4011622,58.6140724 41,120.96903 C42.7043503,128.784014 39.8761378,133.943896 32.5153625,136.448676" id="Line" stroke-linecap="square"></path>
            <rect id="Rectangle-9" fill="#D8D8D8" x="36" y="2" width="21" height="16" rx="8"></rect>
            <path d="M85,135.306212 L68.5754906,137.653955 C67.8365728,137.759577 67.1927002,138.128816 66.733557,138.658257 C66.2744138,139.187697 66,139.87734 66,140.623768 L66,169.734978 L85,164.650001 L85,135.306212 Z" id="Rectangle-11" fill="#D8D8D8"></path>
        </g>
        <g id="Group" transform="translate(62.000000, 147.000000)" stroke="#2F2F2F" stroke-width="4">
            <rect id="Rectangle-12" fill="#D8D8D8" x="22" y="303" width="49" height="144"></rect>
            <path d="M79,173.898566 L16,179.395828 L16,300.056376 C21.1342499,303.967806 31.7150512,305.715641 47.5,305.715641 C63.2849488,305.715641 73.8657501,303.967806 79,300.056376 L79,173.898566 Z" id="Rectangle-10" fill="#EDEDED"></path>
            <path d="M48.7706533,2.02517451 L42.91504,2.02517451 C29.2987221,3.8074271 19.0541237,6.98515434 12.2297108,11.6654361 C5.80003111,16.0750041 2.5363478,21.8369808 2.5363478,29 C2.5363478,34.1916117 5.97744453,43.6745358 10.0314324,55.1011467 C14.5164446,67.742647 19.8089418,82.68364 22.5246785,96.9218057 C26.3597466,117.028444 21.2833594,146.052013 18.0404856,164.395715 C17.0543371,169.973982 16.2438944,174.542306 15.9334901,177.525893 C15.8582624,178.248977 15.8105383,178.865676 15.8044664,179.365058 C21.1570238,179.943035 43.8766877,181.577148 60.896329,179.286136 C66.0030815,178.598717 70.5896041,177.565887 73.9835228,176.003252 C76.4399422,174.872262 78.3016903,173.512197 78.902875,171.617817 C80.2100292,167.498872 71.8311272,141.284682 63.3003534,113.524594 C54.1351578,83.7000262 44.4725984,52.0342809 44.4725984,42.3023404 C44.4725984,29.5798298 47.5430523,21.2456351 53.1734631,16.9048367 L48.7706533,2.02517451 Z" id="Rectangle" fill="#EDEDED"></path>
            <path d="M65.0787577,140.005813 C60.1810341,143.531903 56.30984,145.550244 53.498637,146.15388 C50.4415077,146.810322 45.279214,146.407257 38,144.809113 L38,178.135362 L65.0787577,169.933396 L65.0787577,140.005813 Z" id="Rectangle-3" fill="#D8D8D8"></path>
            <polyline id="Line-13" fill="#EDEDED" stroke-linecap="square" points="32.5 136.5 48.5054586 180.250703 32.5 180.250703"></polyline>
            <path d="M41,18.294171 C28.8349748,27.4001194 22.7524622,35.8869712 22.7524622,43.7547265 C22.7524622,50.6641223 27.4011622,58.6140724 41,120.96903 C42.7043503,128.784014 39.8761378,133.943896 32.5153625,136.448676" id="Line" stroke-linecap="square"></path>
            <rect id="Rectangle-9" fill="#D8D8D8" x="36" y="2" width="21" height="16" rx="8"></rect>
            <path d="M85,135.306212 L68.5754906,137.653955 C67.8365728,137.759577 67.1927002,138.128816 66.733557,138.658257 C66.2744138,139.187697 66,139.87734 66,140.623768 L66,169.734978 L85,164.650001 L85,135.306212 Z" id="Rectangle-11" fill="#D8D8D8"></path>
        </g>
        <path d="M288.209844,209.62457 C274.676531,202.504688 263.939916,198.944747 256,198.944747 C248.740522,198.944747 236.560543,222.142984 231.780532,316.549491 C229.565921,360.288642 191.718674,393.671347 186.881214,415.203216 C182.043753,436.735086 190.052423,451.103784 195.723591,490.624615 C196.877593,498.666541 191.660137,510.940668 180.071223,527.446995" id="Line-14" stroke="#2F2F2F" stroke-width="10" stroke-linecap="round"></path>
        <path d="M287.134511,208.38633 C283.458863,197.969875 277.651081,192.761648 269.711164,192.761648 C263.682643,192.761648 249.758993,223.85144 240.305498,286.199731 C238.627295,297.267921 227.592079,308.855325 215.984879,328.768296 C204.377678,348.681268 202.226139,395.556814 197.388679,417.088683 C192.551218,438.620553 181.210045,453.457217 186.881214,492.978048 C188.035216,501.019974 191.537704,513.537153 197.388679,530.529584" id="Line-14" stroke="#2F2F2F" stroke-width="10" stroke-linecap="round"></path>
        <path d="M265.804907,208.624682 C256.52334,201.644412 247.62882,205.638925 239.121349,220.60822 C226.360142,243.062164 248.574844,244.781745 239.121349,307.130036 C237.443146,318.198226 218.788688,331.395894 207.181487,351.308866 C195.574286,371.221838 212.018948,409.948646 207.181487,431.480515 C202.344026,453.012385 170.387907,462.141516 176.059075,501.662347 C177.213077,509.704273 177.213077,519.406136 176.059075,530.767936" id="Line-14" stroke="#2F2F2F" stroke-width="10" stroke-linecap="round"></path>
    </g>
</svg>