<?xml version="1.0" encoding="UTF-8"?>
<svg width="256px" height="256px" viewBox="0 0 256 256" version="1.1" xmlns="http://www.w3.org/2000/svg" xmlns:xlink="http://www.w3.org/1999/xlink">
    <!-- Generator: Sketch 51.3 (57544) - http://www.bohemiancoding.com/sketch -->
    <title>Artboard</title>
    <desc>Created with Sketch.</desc>
    <defs></defs>
    <g id="Artboard" stroke="none" stroke-width="1" fill="none" fill-rule="evenodd">
        <circle id="Oval" fill-opacity="0.75" fill="#41EAEC" cx="128" cy="128" r="54"></circle>
        <path d="M115.569075,34.5777525 C161.960994,34.5777525 199.569075,72.1858335 199.569075,118.577752 L173.722921,118.577752 C173.722921,86.4602701 147.686558,60.4239063 115.569075,60.4239063 L115.569075,34.5777525 Z" id="Combined-Shape" fill-opacity="0.5" fill="#F3A622" transform="translate(157.569075, 76.577752) rotate(-15.000000) translate(-157.569075, -76.577752) "></path>
        <path d="M43,93.7835621 C53.2522473,89.3785914 64.5484941,86.9390044 76.4145369,86.9390044 C123.202522,86.9390044 161.131678,124.868161 161.131678,171.656146 C161.131678,186.374453 157.378318,200.216117 150.77654,212.276194 L127.895923,199.777718 C132.466386,191.428433 135.064866,181.845743 135.064866,171.656146 C135.064866,139.264464 108.806219,113.005817 76.4145369,113.005817 C68.1995842,113.005817 60.3791056,114.694762 53.281396,117.744357 L43,93.7835621 Z" id="Combined-Shape" fill-opacity="0.5" fill="#F3A622" transform="translate(102.065839, 149.607599) rotate(-180.000000) translate(-102.065839, -149.607599) "></path>
    </g>
</svg>