<?xml version="1.0" encoding="UTF-8"?>
<svg width="250px" height="633px" viewBox="0 0 250 633" version="1.1" xmlns="http://www.w3.org/2000/svg" xmlns:xlink="http://www.w3.org/1999/xlink" style="background: #FFFFFF;">
    <!-- Generator: Sketch 51.3 (57544) - http://www.bohemiancoding.com/sketch -->
    <title>Slice</title>
    <desc>Created with Sketch.</desc>
    <defs></defs>
    <g id="Page-2" stroke="none" stroke-width="1" fill="none" fill-rule="evenodd" stroke-linecap="round" stroke-linejoin="round">
        <path d="M158.6,13.7 L158.3,13.7 M167.3,23.3 L165.2,19.7 L161.9,16.1 L159.5,14.6 M146.9,17.6 L146.6,17.9 L146,17.9 L144.8,17.6 L143.3,17.3 L141.8,16.4 L140.6,15.8 M141.8,30.2 L144.2,29.6 L148.1,29 L151.4,29.6 M139.1,29.6 L140.6,30.2 L142.1,30.2 L142.4,29.9 M140.9,16.1 L140,15.5 M140,15.5 L134.9,12.5 M152.9,16.4 L150.5,16.7 L146.9,17.6 M146.6,101.9 L167.9,31.7 M132.2,9.5 L128.9,11 M134,8.9 L132.5,9.2 L132.2,9.5 M134.3,12.2 L133.7,11.9 L133.4,11.6 M130.1,24.5 L139.1,29.6 M135.2,12.8 L134.3,12.2 M157.1,15.5 L156.8,15.8 L155.6,16.1 L152.9,16.4 M126.8,13.1 L126.8,18.8 M151.7,29.3 L151.4,29.3 L151.1,29.3 M126.8,18.8 L127.1,20.3 L127.7,22.1 L129.2,23.6 L130.1,24.5 M135.8,27.8 L116.9,90.2 M167.6,31.7 L168.2,29.6 L168.2,26.3 L167,23 M153.5,181.1 L152,129.2 M101,136.7 L99.5,181.1 M150.8,127.7 L146.9,101 M99.5,181.4 L99.5,201.2 M153.5,201.2 L153.5,181.4 M140,1124 L140,743.9 M146.9,685.7 L146.9,211.7 M106.4,211.7 L106.4,685.7 M104.9,1126.7 L104.9,1155.2 M106.7,1157.3 L106.7,1168.4 M146.6,1168.4 L146.6,1160.9 M158.9,717.2 L158.9,682.1 M94.1,682.1 L94.1,689.3 M94.7,687.8 L94.4,689 L93.5,690.8 L92,692.6 L91.4,693.2 M91.7,693.2 L91.1,693.5 L90.8,694.1 L90.8,694.4 L90.5,695 L90.2,695.3 L90.2,695.9 L90.2,696.5 L90.2,696.8 M90.2,696.8 L90.2,699.8 M153.5,730.4 L153.5,727.7 M90.2,713.6 L90.2,737.3 M102.2,137.6 L124.4,137.9 M102.2,137.6 L102.2,116.9 M119,112.4 L116.6,114.2 L114.5,115.7 L112.1,116.6 L110,117.5 L107.9,117.8 L105.8,117.8 L104,117.5 L102.2,116.9 M138.8,95 L119,112.4 M138.8,105.8 L138.8,95 M124.4,137.9 L124.4,139.1 M119,112.4 L108.8,106.4 M102.2,116.9 L92,110.9 M92,110.9 L93.8,111.5 L95.6,112.1 L97.7,112.1 L99.8,111.5 L101.9,110.9 L104.3,109.7 L106.4,108.2 L108.8,106.4 M102.2,137.6 L92,131.6 M92,131.6 L92,110.9 M138.8,95 L128.6,89 M128.6,89 L108.8,106.4 M159.8,28.7 L160.4,30.2 M159.8,28.7 L159.2,27.2 L156.5,24.2 L151.4,21.8 L145.1,21.5 L144.2,21.5 M138.2,15.8 L141.5,18.2 L144.2,21.5 M138.2,15.8 L138.5,15.8 L138.5,15.5 L138.8,15.5 M139.4,15.8 L138.8,15.5 M149,18.8 L147.5,19.1 L145.4,18.8 L143.3,17.9 L141.2,17 L139.4,15.8 M154.4,17.3 L153.8,17.6 L153.2,17.6 L152.3,17.6 L151.7,17.9 L151.1,18.2 L150.2,18.2 L149.6,18.5 L149,18.8 M158.9,14 L159.2,14 L159.8,14.9 L160.1,15.2 L159.8,16.1 L158.9,16.7 L154.4,17.3 M158.3,13.4 L158.9,14 M164.3,33.8 L164,33.2 L163.4,32.6 L163.1,32.3 L162.5,31.7 L161.9,31.4 L161.6,30.8 L161,30.5 L160.4,30.2 M144.2,21.5 L143.6,21.8 M143.6,27.5 L148.1,26.6 L152.3,26.6 L156.2,27.2 L159.8,28.7 M143.6,21.8 L143.6,27.5 M143.6,21.8 L142.7,22.1 L142.1,22.4 L141.2,22.4 L140.6,22.7 L140.3,22.7 M140.3,22.7 L139.1,20.9 L136.4,19.1 M138.2,15.8 L137.9,16.1 L137.6,16.4 L137.3,16.7 L137,17.3 L136.7,17.6 L136.7,18.2 L136.4,18.5 L136.4,19.1 M139.4,15.8 L139.7,15.8 L140,15.8 L140.3,15.8 L140.6,15.8 M146.9,17.6 L146.9,17.9 M140.3,27.2 L140.9,27.5 L141.2,27.5 L141.5,27.8 L142.1,27.8 L142.4,27.8 L142.7,27.8 L143.3,27.8 L143.6,27.5 M140.3,27.2 L140.3,22.7 M129.5,23.3 L138.5,28.4 M129.5,23.3 L128.9,22.7 L128.3,22.1 L127.7,21.2 L127.7,20.3 L127.7,20 M127.7,15.2 L127.7,20 M131.6,16.1 L128.9,15.2 L127.7,15.2 M136.4,19.1 L131.6,16.1 M140.3,27.2 L140.3,27.5 L140.3,28.1 L140,28.4 L139.4,28.7 L138.8,28.4 L138.5,28.4 M160.4,30.2 L161.3,32.9 M142.1,107.3 L164.3,33.8 M141.2,107.6 L142.1,107.3 M160.4,44.3 L141.2,107.6 M161.3,32.9 L161.9,35.6 L161.3,39.8 L160.7,42.2 L160.4,43.7 L160.4,44.3 M133.4,12.8 L138.2,15.8 M131.6,16.1 L131.6,15.8 L131.6,15.2 L131.9,14.9 L132.2,14.3 L132.2,14 L132.8,13.4 L133.1,13.1 L133.4,12.8 M133.7,12.5 L133.7,12.8 L133.4,12.8 M138.8,15.5 L133.7,12.5 M141.2,107.6 L140.9,107.9 M137.9,110 L138.2,109.7 L139.1,109.1 L140.3,108.2 L140.3,107.9 L140.6,107.9 L140.9,107.9 M137.9,110 L140.6,98.6 L142.1,86.6 L142.7,76.1 M142.7,76.1 L154.1,38.6 M160.4,44.3 L161,40.1 L161,38.3 L160.7,37.7 L160.7,37.4 L160.4,37.1 L160.1,37.1 L159.8,37.1 L159.5,37.1 L158.9,37.1 L156.8,38 L155,38.6 L154.1,38.6 M143,106.4 L144.8,104.6 L146.3,102.2 L146.6,101.9 M143,106.4 L142.7,106.7 L142.4,107 L142.1,107.3 M152.6,10.4 L153.5,10.7 M138.2,8 L143.3,8 L147.5,8.6 L149.9,9.2 L151.4,9.8 L152.6,10.4 M132.5,9.2 L133.4,9.2 L134,8.9 L134.6,8.6 L135.5,8.3 L136.1,8.3 L136.7,8.3 L137.6,8 L138.2,8 M133.1,12.2 L132.2,11.9 L131,11 L131,10.4 L131.3,9.8 L132.5,9.2 M133.7,12.5 L133.1,12.2 M127.4,11.9 L130.1,11.6 L133.4,12.8 M127.4,11.9 L128.9,11.3 M127.7,15.2 L127.4,15.2 L127.1,14.3 L126.8,13.4 L126.8,12.8 L127.1,12.2 M127.1,12.2 L127.4,11.9 M134.9,12.2 L134.9,11.6 L134.6,11 L134.6,10.7 L134.3,10.1 L133.7,9.8 L133.4,9.5 L132.8,9.2 L132.5,9.2 M129.5,23.3 L129.5,23.6 L129.8,23.9 L129.8,24.2 L130.1,24.5 M158.9,14 L158.9,13.7 L158.6,13.7 L158.3,13.7 L158,14 L157.7,14 M142.7,76.1 L142.7,70.7 L141.8,66.5 L140.6,62.9 L139.1,60.5 L137,59.3 L134.6,59.6 L131.9,60.8 L129.2,63.2 L126.5,66.5 M136.1,110 L136.7,110.3 L137.3,110.3 L137.9,110 M127.4,128 L130.7,122.9 L133.4,116.9 L136.1,110 M127.4,128 L127.4,135.8 M116,137.9 L119.6,139.1 L122.9,139.4 L125,138.8 L126.5,138.2 L127.1,137 L127.4,135.8 M113.6,97.1 L112.1,103.7 M115.1,96.8 L114.5,97.1 L113.9,97.1 L113.6,97.1 M126.5,66.5 L122,75.2 L118.4,85.7 L115.1,96.8 M157.7,14 L157.4,13.7 M152.3,10.7 L151.7,10.4 M157.4,13.7 L152.3,10.7 M154.1,38.6 L152.6,38 M152.6,38 L139.1,30.2 M151.7,10.4 L151.1,10.4 L151.1,10.1 L149.9,10.1 L148.1,9.8 L144.5,10.1 L140,11 M140,11 L139.4,11 L138.8,11 L138.2,11.3 L137.6,11.3 L136.7,11.6 L136.1,11.9 L135.5,11.9 L134.9,12.2 M140,11 L140.3,10.4 L140.3,9.8 L140,9.2 L139.7,8.6 L139.4,8.3 L139.1,8 L138.5,8 L138.2,8 M137.6,29.3 L126.5,66.5 M139.1,30.2 L137.6,29.3 M151.7,10.4 L152,10.4 L152,10.1 L152.3,10.1 L152.6,10.1 L152.6,10.4 M157.4,13.7 L157.4,13.4 L157.7,13.4 L158,13.4 L158.3,13.4 M152.3,10.7 L152.6,10.7 L152.9,10.7 L152.9,10.4 L153.2,10.7 L153.5,10.7 M153.5,10.7 L158.3,13.4 M129.8,129.2 L130.7,129.5 L131.6,129.2 L132.2,128.3 L133.1,126.8 L134,125 L134.6,122.9 L135.2,120.5 L135.8,117.8 M127.4,128 L129.8,129.2 M137,110.6 L137,110.3 L137,110 L136.7,110 L136.4,109.7 L136.4,110 L136.1,110 M137,110.6 L135.8,117.8 M147.2,134 L143,106.4 M139.4,139.7 L141.5,138.2 L147.2,134 M139.1,140 L139.4,139.7 M135.8,117.8 L139.1,140 M140.9,107.9 L139.7,109.7 L138.2,110.6 L137,110.6 M132.2,138.5 L133.7,139.4 L135.5,140.3 L137,140.9 L137.9,140.9 L138.5,140.6 L139.1,140 M131,137.9 L131.6,138.2 L131.9,138.2 L132.2,138.5 M131,137.9 L129.8,129.2 M145.7,192.2 L149.6,189.5 L152,186.5 L153.5,183.2 L153.5,181.1 M99.5,181.1 L99.8,183.2 L101,186.5 L103.7,189.5 L107.6,192.2 L112.1,194.6 L117.8,196.1 L123.5,196.7 L129.5,196.7 L135.5,196.1 L140.9,194.6 L145.7,192.2 M129.2,145.4 L123.8,145.4 L118.1,144.5 L113,143.3 L108.5,141.2 L105.2,138.5 L104,137.6 M140.9,143 L139.7,143.3 L138.2,143.9 L136.7,144.2 L135.5,144.5 L134,144.8 L132.5,145.1 L131,145.1 L129.2,145.4 M141.2,142.7 L140.9,142.7 L140.9,143 M148.4,137.3 L143.9,141.2 L141.2,142.7 M150.8,126.2 L151.7,128 L151.4,131.3 L149,136.4 L148.4,137.3 M139.1,140 L139.4,140.3 L139.4,140.6 L139.7,141.2 L140,141.5 L140,141.8 L140.3,142.1 L140.6,142.7 L140.9,143 M132.2,138.5 L132.2,139.4 L131.9,140.3 L131.6,141.2 L131.3,142.4 L131,143.3 L130.4,144.2 L129.8,144.8 L129.2,145.4 M129.2,145.4 L128.6,145.1 L128,144.8 L127.4,144.5 M127.4,135.8 L131,137.9 M131,137.9 L131,138.8 L130.7,139.7 L130.4,140.6 L130.1,141.5 L129.5,142.4 L128.9,143.3 L128,143.9 L127.4,144.5 M147.2,134 L147.2,134.6 L147.2,134.9 L147.5,135.2 L147.5,135.8 L147.8,136.1 L147.8,136.4 L148.1,137 L148.4,137.3 M139.4,139.7 L139.7,140.3 L139.7,140.6 L140,140.9 L140,141.2 L140.3,141.8 L140.6,142.1 L140.9,142.4 L141.2,142.7 M109.7,102.8 L108.8,104.9 L108.2,107 L107.9,107 M112.7,96.5 L109.7,102.8 M113.6,97.1 L113.6,96.8 L113.3,96.5 L113.3,96.2 L113,96.2 L113,96.5 L112.7,96.5 M112.7,96.5 L113.9,96.5 L115.4,95.6 L115.4,95.3 M145.7,212.3 L140.9,214.4 L135.5,216.2 L129.5,216.8 L123.5,216.8 L117.8,216.2 L112.1,214.4 L107.6,212.3 L103.7,209.6 L101,206.6 L99.8,203 L99.5,201.2 M153.5,201.2 L153.5,203 L152,206.6 L149.6,209.6 L145.7,212.3 M124.4,1132.4 L127.1,1132.4 L129.8,1132.4 L132.5,1132.1 L134.9,1131.5 L137.6,1130.9 L139.7,1130 L141.8,1128.8 L143.6,1127.6 M143.6,1163 L143.6,1127.6 M124.4,1167.8 L127.1,1167.8 L129.8,1167.5 L132.5,1167.2 L134.9,1166.9 L137.6,1166 L139.7,1165.1 L141.8,1164.2 L143.6,1163 M124.4,1167.8 L124.4,1132.4 M143.6,1127.6 L146.6,1124.9 L148.1,1121.6 L148.1,1118.6 L146.6,1115.3 L143.6,1112.3 L140,1110.2 M113.9,1126.4 L124.4,1132.4 M115.1,1125.5 L116,1126.1 L119.6,1127.9 L124.1,1128.5 L128.9,1128.5 L133.4,1127.9 L137.3,1126.1 L140,1124 L141.5,1121.3 L141.5,1118.6 L140,1116.2 M122.6,1179.8 L122.6,1166.6 M122.6,1179.8 L107,1170.8 M107,1157.6 L107,1170.8 M105.2,1156.7 L107,1157.6 M105.2,1156.7 L105.2,1126.7 M122.6,1166.6 L124.4,1167.8 M144.2,1104.8 L152,1109 L159.8,1113.5 M159.8,1113.5 L160.4,1114.1 L160.7,1114.7 L161.3,1115.6 L161.6,1116.2 L162.2,1116.8 L162.5,1117.4 L162.8,1118 L163.1,1118.6 M163.1,1118.6 L158,1121.3 L152.9,1123.1 L148.4,1124.9 L143.6,1127.6 M156.2,1130 L156.2,1140.8 M165.8,1137.2 L165.8,1148.6 M165.8,1148.6 L162.8,1150.4 L159.8,1151.9 L157.1,1153.7 L154.4,1155.5 L151.4,1157.3 L148.7,1159.4 L146.3,1161.2 L143.6,1163 M163.1,1118.6 L163.4,1118.6 L163.7,1118.3 L164,1118 L164.3,1118 L164.6,1117.7 L165.2,1117.4 L165.5,1117.4 L165.8,1117.1 M165.8,1117.1 L165.8,1124 M165.8,1124 L164.6,1124.9 L163.4,1125.5 L162.2,1126.4 L161,1127 L159.8,1127.6 L158.6,1128.5 L157.4,1129.1 L156.2,1130 M104.9,1155.2 L105.2,1156.7 M107,1170.8 L106.7,1168.4 M146.6,1168.4 L146.3,1170.5 L144.8,1173.2 L141.8,1175.9 L137.9,1178 L133.1,1179.5 L127.7,1180.1 L122.6,1179.8 M159.8,1113.5 L165.8,1117.1 M140,1102.4 L144.2,1104.8 M112.1,698.6 L112.7,698.9 L113.6,699.2 L114.2,699.2 L115.1,699.5 L115.7,699.5 L116.6,699.8 L117.5,699.8 L118.1,700.1 M97.7,690.5 L98.9,691.7 L100.4,692.9 L101.9,694.1 L103.7,695.3 L105.5,696.2 L107.6,697.1 L109.7,698 L112.1,698.6 M95.3,686.9 L95.6,687.2 L95.9,687.8 L95.9,688.1 L96.2,688.7 L96.5,689 L97.1,689.6 L97.4,689.9 L97.7,690.5 M118.1,700.1 L125,700.7 L131.6,700.4 L138.2,699.5 L144.2,697.7 L149.6,695.3 L153.8,692 L156.8,688.7 L158.6,684.8 L158.9,680.9 L158,677 L155.6,673.4 L151.7,670.1 L146.9,667.4 M106.4,667.4 L103.7,668.6 L99.5,671.9 L96.2,675.2 L94.7,679.1 L94.1,683 L95.3,686.9 M106.4,678.2 L106.1,678.8 L105.2,682.1 L106.1,685.1 L108.2,688.1 L111.5,690.8 L116,692.6 L121.1,693.8 L126.5,694.4 L132.2,693.8 L137.3,692.6 L141.8,690.8 L145.1,688.1 L147.2,685.1 L147.8,682.1 L147.2,678.8 L146.9,678.2 M127.7,711.5 L126.8,711.5 L126.2,711.5 L125.3,711.5 L124.4,711.5 L123.8,711.5 L122.9,711.5 L122,711.2 L121.4,711.2 M121.4,706.1 L121.4,711.2 M118.1,700.1 L119.6,701.6 L120.8,704 L121.4,706.1 M95,687.8 L95,687.2 L95.3,686.9 M121.4,735.8 L128,735.8 L134.9,735.2 L141.2,734 L146.9,731.9 L151.7,729.2 L155.3,725.9 L158,722 L158.9,718.1 L158.9,717.2 M121.4,724.7 L121.4,735.8 M113.9,705.2 L115.7,703.7 L117.5,701.9 L118.1,701 L118.1,700.4 L118.1,700.1 M121.4,706.1 L120.8,707 L118.4,710.3 M118.4,710.3 L118.1,709.7 L117.5,708.8 L117.2,708.2 L116.6,707.6 L116,707 L115.1,706.1 L114.5,705.8 L113.9,705.2 M110.6,710.3 L110.9,709.7 L111.2,708.8 L111.5,708.2 L111.8,707.6 L112.1,707 L112.7,706.4 L113.3,705.8 L113.9,705.2 M118.4,710.3 L117.5,710.6 L116.6,710.9 L115.7,710.9 L114.5,711.2 L113.6,710.9 L112.4,710.9 L111.5,710.6 L110.6,710.3 M110.9,703.7 L111.2,703.1 L111.2,702.5 L111.5,701.9 L111.8,701.3 L111.8,700.4 L111.8,699.8 L112.1,699.2 L112.1,698.6 M110.9,703.7 L112.4,704.3 L113.9,705.2 M97.7,690.5 L103.1,695.3 L112.1,698.6 M95.3,694.7 L102.5,699.5 L110.9,703.7 M95.3,694.7 L95.9,694.4 L96.2,693.8 L96.8,693.2 L97.1,692.6 L97.4,692 L97.4,691.7 L97.7,691.1 L97.7,690.5 M110.6,710.3 L109.4,709.1 L108.2,708.2 M108.2,708.2 L108.5,707.6 L108.5,707 L108.8,706.4 L109.1,706.1 L109.4,705.5 L110,704.9 L110.3,704.3 L110.9,703.7 M118.4,710.3 L118.4,713 M110.6,713 L110.6,710.3 M110.6,713 L111.5,713.3 L112.4,713.6 L113.6,713.9 L114.5,713.9 L115.7,713.9 L116.6,713.6 L117.5,713.3 L118.4,713 M108.2,708.2 L106.7,707 L100.4,703.1 L94.1,700.1 M94.1,700.1 L94.1,699.5 L94.1,698.6 L94.1,698 L94.4,697.4 L94.4,696.8 L94.7,695.9 L95,695.3 L95.3,694.7 M91.7,699.2 L91.7,701.9 M94.1,700.1 L92.9,699.5 L91.7,699.2 M110.6,713 L91.7,701.9 M118.4,713 L121.4,711.2 M112.1,726.8 L111.5,726.8 L110.6,727.1 M110.6,727.1 L109.1,727.4 M118.4,750.5 L117.5,751.1 L116.6,751.4 L115.7,751.4 L114.5,751.4 L113.6,751.4 L112.4,751.4 L111.5,751.1 L110.6,750.5 M110.6,750.5 L110.6,727.1 M93.5,693.5 L94.4,694.1 L95.3,694.7 M95.3,686.9 L95.3,687.2 L95,688.4 L95,689 L94.4,691.4 L93.5,693.5 M126.2,735.8 L126.2,746 M118.4,750.5 L126.2,746 M91.7,699.2 L91.7,698.3 L91.7,697.7 L91.7,696.8 L92,696.2 L92.3,695.3 L92.6,694.7 L92.9,694.1 L93.5,693.5 M109.1,749.6 L110.6,750.5 M109.1,727.4 L109.1,749.6 M91.7,701.9 L91.1,701.6 L90.5,701 L90.2,700.4 L90.2,699.8 M153.5,730.4 L152.9,734 L150.8,737.3 L147.5,740.3 L143.3,742.7 L138.2,744.5 L132.5,745.7 L126.2,746 M91.7,716 L93.5,718.4 M90.2,711.8 L90.2,712.1 L90.2,713.3 L90.5,714.2 L91.1,715.1 L91.7,716 M91.7,716 L91.7,739.7 M91.7,739.7 L91.1,739.1 L90.5,738.5 L90.2,737.9 L90.2,737.3 M93.5,718.4 L93.5,740.6 M93.5,740.6 L91.7,739.7 M161.6,1139.6 L161.6,1133 M156.2,1140.5 L161.6,1139.6 M149.9,1158.5 L149.9,1543.4 M149.9,1543.4 L134.3,1534.4 M134.3,1534.4 L134.3,1519.4 M133.4,1517.3 L134,1517.6 L134.3,1518.2 L134.3,1518.8 L134.3,1519.4 M133.4,1517.3 L120.8,1504.7 M120.8,1504.7 L120.8,1498.7 M120.8,1498.7 L133.4,1500.8 M134.3,1499.6 L134.3,1500.2 L134,1500.5 L133.7,1500.8 L133.4,1500.8 M134.3,1499.6 L134.3,1497.5 M133.4,1495.4 L134,1496 L134.3,1496.6 L134.3,1496.9 L134.3,1497.5 M133.4,1495.4 L120.8,1482.8 M120.8,1482.8 L120.8,1477.1 M120.8,1477.1 L133.4,1478.9 M134.3,1478 L134.3,1478.3 L134,1478.9 L133.7,1478.9 L133.4,1478.9 M134.3,1478 L134.3,1475.6 M133.4,1473.5 L134,1474.1 L134.3,1474.7 L134.3,1475.3 L134.3,1475.6 M133.4,1473.5 L120.8,1460.9 M120.8,1460.9 L120.8,1455.2 M120.8,1455.2 L133.4,1457 M134.3,1456.1 L134.3,1456.7 L134,1457 L133.7,1457 L133.4,1457 M134.3,1456.1 L134.3,1454 M133.4,1451.6 L134,1452.2 L134.3,1452.8 L134.3,1453.4 L134.3,1454 M133.4,1451.6 L120.8,1439.3 M120.8,1439.3 L120.8,1433.3 M120.8,1433.3 L133.4,1435.4 M134.3,1434.2 L134.3,1434.8 L134,1435.1 L133.7,1435.4 L133.4,1435.4 M134.3,1434.2 L134.3,1432.1 M133.4,1430 L134,1430.6 L134.3,1431.2 L134.3,1431.5 L134.3,1432.1 M133.4,1430 L120.8,1417.4 M120.8,1417.4 L120.8,1411.4 M120.8,1411.4 L133.4,1413.5 M134.3,1412.3 L134.3,1412.9 L134,1413.2 L133.7,1413.5 L133.4,1413.5 M134.3,1412.3 L134.3,1410.2 M133.4,1408.1 L134,1408.7 L134.3,1409.3 L134.3,1409.9 L134.3,1410.2 M133.4,1408.1 L120.8,1395.5 M120.8,1395.5 L120.8,1389.8 M120.8,1389.8 L133.4,1391.6 M134.3,1390.7 L134.3,1391.3 L134,1391.6 L133.7,1391.6 L133.4,1391.6 M134.3,1390.7 L134.3,1388.6 M133.4,1386.2 L134,1386.8 L134.3,1387.4 L134.3,1388 L134.3,1388.6 M133.4,1386.2 L120.8,1373.9 M120.8,1373.9 L120.8,1367.9 M120.8,1367.9 L133.4,1370 M134.3,1368.8 L134.3,1369.4 L134,1369.7 L133.7,1370 L133.4,1370 M134.3,1368.8 L134.3,1366.7 M133.4,1364.6 L134,1364.9 L134.3,1365.5 L134.3,1366.1 L134.3,1366.7 M133.4,1364.6 L120.8,1352 M120.8,1352 L120.8,1346 M120.8,1346 L133.4,1348.1 M134.3,1346.9 L134.3,1347.5 L134,1347.8 L133.7,1348.1 L133.4,1348.1 M134.3,1346.9 L134.3,1344.8 M133.4,1342.7 L134,1343.3 L134.3,1343.9 L134.3,1344.2 L134.3,1344.8 M133.4,1342.7 L120.8,1330.1 M120.8,1330.1 L120.8,1324.4 M120.8,1324.4 L133.4,1326.2 M134.3,1325.3 L134.3,1325.6 L134,1326.2 L133.7,1326.2 L133.4,1326.2 M134.3,1325.3 L134.3,1322.9 M133.4,1320.8 L134,1321.4 L134.3,1322 L134.3,1322.6 L134.3,1322.9 M133.4,1320.8 L120.8,1308.2 M120.8,1308.2 L120.8,1302.5 M120.8,1302.5 L133.4,1304.3 M134.3,1303.4 L134.3,1304 L134,1304.3 L133.7,1304.3 L133.4,1304.3 M134.3,1303.4 L134.3,1301.3 M133.4,1298.9 L134,1299.5 L134.3,1300.1 L134.3,1300.7 L134.3,1301.3 M133.4,1298.9 L120.8,1286.6 M120.8,1286.6 L120.8,1280.6 M120.8,1280.6 L133.4,1282.7 M134.3,1281.5 L134.3,1282.1 L134,1282.4 L133.7,1282.7 L133.4,1282.7 M134.3,1281.5 L134.3,1279.4 M133.4,1277.3 L134,1277.6 L134.3,1278.5 L134.3,1278.8 L134.3,1279.4 M133.4,1277.3 L120.8,1264.7 M120.8,1264.7 L120.8,1258.7 M120.8,1258.7 L133.4,1260.8 M134.3,1259.6 L134.3,1260.2 L134,1260.5 L133.7,1260.8 L133.4,1260.8 M134.3,1259.6 L134.3,1257.5 M133.4,1255.4 L134,1256 L134.3,1256.6 L134.3,1257.2 L134.3,1257.5 M133.4,1255.4 L120.8,1242.8 M120.8,1242.8 L120.8,1237.1 M120.8,1237.1 L133.4,1238.9 M134.3,1238 L134.3,1238.6 L134,1238.9 L133.7,1238.9 L133.4,1238.9 M134.3,1238 L134.3,1235.9 M133.4,1233.5 L134,1234.1 L134.3,1234.7 L134.3,1235.3 L134.3,1235.9 M133.4,1233.5 L120.8,1221.2 M120.8,1221.2 L120.8,1215.2 M120.8,1215.2 L133.4,1217.3 M134.3,1216.1 L134.3,1216.7 L134,1217 L133.7,1217.3 L133.4,1217.3 M134.3,1216.1 L134.3,1214 M133.4,1211.6 L134,1212.2 L134.3,1212.8 L134.3,1213.4 L134.3,1214 M133.4,1211.6 L120.8,1199.3 M120.8,1199.3 L120.8,1193.3 M120.8,1193.3 L133.4,1195.4 M134.3,1194.2 L134.3,1194.8 L134,1195.1 L133.7,1195.4 L133.4,1195.4 M134.3,1194.2 L134.3,1179.2 M156.2,1130 L161.6,1133 M161.6,1133 L170.9,1127.3 M170.9,1127.3 L165.5,1124.3 M170.9,1127.3 L170.9,1134.2 M161.6,1139.6 L170.9,1134.2 M159.5,1538 L149.9,1543.4 M159.5,1152.2 L159.5,1538 M130.4,1187.9 L120.8,1193.3 M130.4,1187.9 L134.3,1188.5 M130.4,1209.8 L120.8,1215.2 M130.4,1209.8 L131.6,1209.8 M130.4,1231.4 L120.8,1237.1 M130.4,1231.4 L131.6,1231.7 M130.4,1253.3 L120.8,1258.7 M130.4,1253.3 L131.6,1253.6 M130.4,1275.2 L120.8,1280.6 M130.4,1275.2 L131.6,1275.2 M130.4,1296.8 L120.8,1302.5 M130.4,1296.8 L131.6,1297.1 M130.4,1318.7 L120.8,1324.4 M130.4,1318.7 L131.6,1319 M130.4,1340.6 L120.8,1346 M130.4,1340.6 L131.6,1340.9 M130.4,1362.5 L120.8,1367.9 M130.4,1362.5 L131.6,1362.5 M130.4,1384.1 L120.8,1389.8 M130.4,1384.1 L131.6,1384.4 M130.4,1406 L120.8,1411.4 M130.4,1406 L131.6,1406.3 M130.4,1427.9 L120.8,1433.3 M130.4,1427.9 L131.6,1427.9 M130.4,1449.8 L120.8,1455.2 M130.4,1449.8 L131.6,1449.8 M130.4,1471.4 L120.8,1477.1 M130.4,1471.4 L131.6,1471.7 M130.4,1493.3 L120.8,1498.7 M130.4,1493.3 L131.6,1493.6 M120.5,725 L120.5,718.4 M112.1,726.8 L120.5,725 M109.1,749.6 L109.1,1129.1 M109.1,1129.1 L93.5,1120.1 M93.5,1120.1 L93.5,1104.8 M92.6,1102.7 L92.9,1103.3 L93.5,1103.9 L93.5,1104.5 L93.5,1104.8 M92.6,1102.7 L80,1090.1 M80,1090.1 L80,1084.4 M80,1084.4 L92.6,1086.2 M93.5,1085.3 L93.5,1085.9 L93.2,1086.2 L92.9,1086.2 L92.6,1086.2 M93.5,1085.3 L93.5,1083.2 M92.6,1080.8 L92.9,1081.4 L93.5,1082 L93.5,1082.6 L93.5,1083.2 M92.6,1080.8 L80,1068.5 M80,1068.5 L80,1062.5 M80,1062.5 L92.6,1064.6 M93.5,1063.4 L93.5,1064 L93.2,1064.3 L92.9,1064.6 L92.6,1064.6 M93.5,1063.4 L93.5,1061.3 M92.6,1059.2 L92.9,1059.5 L93.5,1060.1 L93.5,1060.7 L93.5,1061.3 M92.6,1059.2 L80,1046.6 M80,1046.6 L80,1040.6 M80,1040.6 L92.6,1042.7 M93.5,1041.5 L93.5,1042.1 L93.2,1042.4 L92.9,1042.7 L92.6,1042.7 M93.5,1041.5 L93.5,1039.4 M92.6,1037.3 L92.9,1037.9 L93.5,1038.5 L93.5,1038.8 L93.5,1039.4 M92.6,1037.3 L80,1024.7 M80,1024.7 L80,1019 M80,1019 L92.6,1020.8 M93.5,1019.9 L93.5,1020.2 L93.2,1020.8 L92.9,1020.8 L92.6,1020.8 M93.5,1019.9 L93.5,1017.5 M92.6,1015.4 L92.9,1016 L93.5,1016.6 L93.5,1017.2 L93.5,1017.5 M92.6,1015.4 L80,1002.8 M80,1002.8 L80,997.1 M80,997.1 L92.6,998.9 M93.5,998 L93.5,998.6 L93.2,998.9 L92.9,998.9 L92.6,998.9 M93.5,998 L93.5,995.9 M92.6,993.5 L92.9,994.1 L93.5,994.7 L93.5,995.3 L93.5,995.9 M92.6,993.5 L80,981.2 M80,981.2 L80,975.2 M80,975.2 L92.6,977.3 M93.5,976.1 L93.5,976.7 L93.2,977 L92.9,977.3 L92.6,977.3 M93.5,976.1 L93.5,974 M92.6,971.9 L92.9,972.2 L93.5,973.1 L93.5,973.4 L93.5,974 M92.6,971.9 L80,959.3 M80,959.3 L80,953.3 M80,953.3 L92.6,955.4 M93.5,954.2 L93.5,954.8 L93.2,955.1 L92.9,955.4 L92.6,955.4 M93.5,954.2 L93.5,952.1 M92.6,950 L92.9,950.6 L93.5,951.2 L93.5,951.8 L93.5,952.1 M92.6,950 L80,937.4 M80,937.4 L80,931.7 M80,931.7 L92.6,933.5 M93.5,932.6 L93.5,933.2 L93.2,933.5 L92.9,933.5 L92.6,933.5 M93.5,932.6 L93.5,930.5 M92.6,928.1 L92.9,928.7 L93.5,929.3 L93.5,929.9 L93.5,930.5 M92.6,928.1 L80,915.8 M80,915.8 L80,909.8 M80,909.8 L92.6,911.9 M93.5,910.7 L93.5,911.3 L93.2,911.6 L92.9,911.9 L92.6,911.9 M93.5,910.7 L93.5,908.6 M92.6,906.2 L92.9,906.8 L93.5,907.4 L93.5,908 L93.5,908.6 M92.6,906.2 L80,893.9 M80,893.9 L80,887.9 M80,887.9 L92.6,890 M93.5,888.8 L93.5,889.4 L93.2,889.7 L92.9,890 L92.6,890 M93.5,888.8 L93.5,886.7 M92.6,884.6 L92.9,885.2 L93.5,885.8 L93.5,886.1 L93.5,886.7 M92.6,884.6 L80,872 M80,872 L80,866.3 M80,866.3 L92.6,868.1 M93.5,867.2 L93.5,867.5 L93.2,868.1 L92.9,868.1 L92.6,868.1 M93.5,867.2 L93.5,864.8 M92.6,862.7 L92.9,863.3 L93.5,863.9 L93.5,864.5 L93.5,864.8 M92.6,862.7 L80,850.1 M80,850.1 L80,844.4 M80,844.4 L92.6,846.2 M93.5,845.3 L93.5,845.9 L93.2,846.2 L92.9,846.2 L92.6,846.2 M93.5,845.3 L93.5,843.2 M92.6,840.8 L92.9,841.4 L93.5,842 L93.5,842.6 L93.5,843.2 M92.6,840.8 L80,828.5 M80,828.5 L80,822.5 M80,822.5 L92.6,824.6 M93.5,823.4 L93.5,824 L93.2,824.3 L92.9,824.6 L92.6,824.6 M93.5,823.4 L93.5,821.3 M92.6,819.2 L92.9,819.5 L93.5,820.4 L93.5,820.7 L93.5,821.3 M92.6,819.2 L80,806.6 M80,806.6 L80,800.6 M80,800.6 L92.6,802.7 M93.5,801.5 L93.5,802.1 L93.2,802.4 L92.9,802.7 L92.6,802.7 M93.5,801.5 L93.5,799.4 M92.6,797.3 L92.9,797.9 L93.5,798.5 L93.5,799.1 L93.5,799.4 M92.6,797.3 L80,784.7 M80,784.7 L80,779 M80,779 L92.6,780.8 M93.5,779.9 L93.5,780.5 L93.2,780.8 L92.9,780.8 L92.6,780.8 M93.5,779.9 L93.5,740.6 M90.5,714.2 L82.1,702.8 M82.1,702.8 L82.1,696.2 M82.1,696.2 L90.5,701.3 M101.3,707.3 L101.6,707.6 M112.1,713.6 L120.5,718.4 M120.5,718.4 L130.1,713 M130.1,713 L127.7,711.5 M130.1,713 L130.1,719.6 M120.5,725 L130.1,719.6 M82.1,696.2 L91.7,690.8 M92.9,691.4 L91.7,690.8 M118.7,1123.4 L109.1,1129.1 M118.7,750.5 L118.7,1123.4 M89.6,773.3 L80,779 M89.6,773.3 L93.5,773.9 M89.6,795.2 L80,800.6 M89.6,795.2 L90.8,795.5 M89.6,817.1 L80,822.5 M89.6,817.1 L90.8,817.1 M89.6,838.7 L80,844.4 M89.6,838.7 L90.8,839 M89.6,860.6 L80,866.3 M89.6,860.6 L90.8,860.9 M89.6,882.5 L80,887.9 M89.6,882.5 L90.8,882.5 M89.6,904.4 L80,909.8 M89.6,904.4 L90.8,904.4 M89.6,926 L80,931.7 M89.6,926 L90.8,926.3 M89.6,947.9 L80,953.3 M89.6,947.9 L90.8,948.2 M89.6,969.8 L80,975.2 M89.6,969.8 L90.8,969.8 M89.6,991.4 L80,997.1 M89.6,991.4 L90.8,991.7 M89.6,1013.3 L80,1019 M89.6,1013.3 L90.8,1013.6 M89.6,1035.2 L80,1040.6 M89.6,1035.2 L90.8,1035.5 M89.6,1057.1 L80,1062.5 M89.6,1057.1 L90.8,1057.1 M89.6,1078.7 L80,1084.4 M89.6,1078.7 L90.8,1079 M164.3,33.8 L165.8,32 L167,30.2 L167.9,26.3 L167.3,23.6 L167,23 M149,18.8 L148.4,18.2 L148.1,17.9 L147.8,17.6 L147.2,17.6 L146.9,17.6 M142.4,29.9 L143,29.9 L143.3,29 L143.6,27.8 L143.6,27.5 M151.4,29.3 L151.7,29.6 L155.3,30.2 L159.2,31.7 L161.3,32.9 M139.1,29.6 L138.8,29.3 L138.5,29 L138.5,28.7 L138.5,28.4 M138.8,15.5 L139.1,15.2 L139.4,15.2 L139.7,15.2 L140,15.5 M133.7,12.5 L134,12.5 L134.3,12.5 L134.6,12.5 L134.9,12.5 M154.4,17.3 L154.1,17 L153.8,16.7 L153.5,16.4 L152.9,16.4 M167.6,31.7 L167,32.9 L164.3,33.8 M134.3,12.2 L134,12.2 L133.7,11.9 L133.4,12.2 L133.1,12.2 M157.1,15.5 L157.4,15.5 L158,14.9 L158.3,14.6 L158,14.3 L158,14 L157.7,14 M154.1,16.1 L157.7,14 M126.8,18.8 L126.8,19.1 L127.1,19.4 L127.4,19.7 L127.7,20 M154.1,38.6 L154.4,36.8 L154.4,35 L154.1,33.5 L153.8,32 L152.9,30.8 L152,29.9 L151.1,29.3 M151.7,10.4 L141.5,16.4 M152.6,38 L152.9,35.9 L153.2,34.1 L152.9,32.6 L152.6,31.1 L152,30.2 L151.1,29.3 M139.1,30.2 L139.4,29.6 M136.1,13.1 L140,11 M137.6,29.3 L137.3,28.7 M137.6,29.3 L137.9,29 M147.2,134 L148.7,132.8 L149.9,131.6 L150.8,129.8 L150.8,128.3 L150.8,127.7 M127.4,144.5 L115.7,137.6 M140,1103.6 L141.2,1103.9 L142.1,1104.2 L143.3,1104.5 L144.2,1104.8 M118.4,725.6 L118.4,750.5 M91.7,693.2 L92,692.9 L92.3,692.9 L92.9,693.2 L93.5,693.5 M91.7,699.2 L91.1,698.6 L90.5,698 L90.2,697.7 L90.2,696.8 M134.3,1194.8 L133.4,1195.4 M134.3,1216.7 L133.4,1217.3 M134.3,1238.6 L133.4,1238.9 M134.3,1260.2 L133.4,1260.8 M134.3,1282.1 L133.4,1282.7 M134.3,1304 L133.4,1304.3 M134.3,1325.6 L133.4,1326.2 M134.3,1347.5 L133.4,1348.1 M134.3,1369.4 L133.4,1370 M134.3,1391.3 L133.4,1391.6 M134.3,1412.9 L133.4,1413.5 M134.3,1434.8 L133.4,1435.4 M134.3,1456.7 L133.4,1457 M134.3,1478.3 L133.4,1478.9 M134.3,1500.2 L133.4,1500.8 M93.5,780.5 L92.6,780.8 M93.5,802.1 L92.6,802.7 M93.5,824 L92.6,824.6 M93.5,845.9 L92.6,846.2 M93.5,867.5 L92.6,868.1 M93.5,889.4 L92.6,890 M93.5,911.3 L92.6,911.9 M93.5,933.2 L92.6,933.5 M93.5,954.8 L92.6,955.4 M93.5,976.7 L92.6,977.3 M93.5,998.6 L92.6,998.9 M93.5,1020.2 L92.6,1020.8 M93.5,1042.1 L92.6,1042.7 M93.5,1064 L92.6,1064.6 M93.5,1085.9 L92.6,1086.2" id="Stroke-1" stroke="#000000" stroke-width="1.42"></path>
    </g>
</svg>