<?xml version="1.0" encoding="UTF-8"?>
<svg width="512px" height="512px" viewBox="0 0 512 512" version="1.1" xmlns="http://www.w3.org/2000/svg" xmlns:xlink="http://www.w3.org/1999/xlink">
    <title>RoMA</title>
    <g id="RoMA" stroke="none" stroke-width="1" fill="none" fill-rule="evenodd">
        <circle id="Oval-3" stroke="#2F2F2F" stroke-width="4" fill="#838282" cx="438.5" cy="3.5" r="57.5"></circle>
        <g id="Group-3" transform="translate(133.000000, 256.000000)" stroke="#2F2F2F" stroke-width="4">
            <g id="Group-2" transform="translate(0.000000, 82.000000)">
                <rect id="Rectangle-4" fill="#D8D8D8" x="97" y="81" width="55" height="97"></rect>
                <ellipse id="Oval" fill="#FFFFFF" stroke-linejoin="bevel" cx="124" cy="67" rx="124" ry="15"></ellipse>
                <ellipse id="Oval" fill="#FFFFFF" stroke-linejoin="bevel" cx="124" cy="64" rx="124" ry="15"></ellipse>
                <path d="M124,64 C150.509668,64 167.492657,60.3074474 172,56.5 C173.793385,54.98509 207.932112,22.1498769 207.932112,7.27135915 C207.932112,0.406516218 39.1141654,2.60085194 39.1141654,7.27135915 C39.1141654,23.47965 69.1762472,51.40729 76,56.5 C78.6515371,58.4788978 97.490332,64 124,64 Z" id="Oval" fill="#D8D8D8"></path>
                <ellipse id="Oval" fill="#FFFFFF" stroke-linejoin="bevel" cx="123.5" cy="7.5" rx="84.5" ry="7.5"></ellipse>
            </g>
            <g id="Group" transform="translate(83.000000, 0.000000)" stroke-linecap="round">
                <path d="M0.5,1.5 C0.899459882,26.0562227 2.0812927,43.2448485 4.04549844,53.0658772 C6.00970419,62.8869059 10.494538,74.0316135 17.5,86.5" id="Line-7"></path>
                <path d="M64,2 C64.3994599,26.5562227 65.5812927,43.7448485 67.5454984,53.5658772 C69.5097042,63.3869059 73.994538,74.5316135 81,87" id="Line-7" transform="translate(72.500000, 44.500000) scale(-1, 1) translate(-72.500000, -44.500000) "></path>
                <path d="M57.316817,2 C57.7162769,26.5562227 58.8981097,43.7448485 60.8623154,53.5658772 C62.8265212,63.3869059 65.872416,74.5300739 70,86.9953812" id="Line-7" transform="translate(63.658408, 44.497691) scale(-1, 1) translate(-63.658408, -44.497691) "></path>
                <path d="M11,2 C11.3994599,26.5562227 12.5812927,43.7448485 14.5454984,53.5658772 C16.5097042,63.3869059 19.555599,74.5300739 23.683183,86.9953812" id="Line-7"></path>
                <path d="M24,2 C24.3994599,26.5562227 25.5812927,43.7448485 27.5454984,53.5658772 C29.5097042,63.3869059 31.582832,74.4368929 33.7648819,86.7158382" id="Line-7"></path>
                <path d="M48,2 C48.3994599,26.5562227 49.5812927,43.7448485 51.5454984,53.5658772 C53.5097042,63.3869059 55.582832,74.4368929 57.7648819,86.7158382" id="Line-7" transform="translate(52.882441, 44.357919) scale(-1, 1) translate(-52.882441, -44.357919) "></path>
                <line x1="41.79118" y1="2" x2="43.5297638" y2="86.7051878" id="Line-7" transform="translate(42.660472, 44.352594) scale(-1, 1) translate(-42.660472, -44.352594) "></line>
                <path d="M0.483468649,1.15704357 C20.1701475,1.77690723 34.6159567,2.0578927 43.8208961,2 C53.0258355,1.9421073 65.3869238,1.36566317 80.9041608,0.270667619" id="Line-8"></path>
                <path d="M1.26550352,22.868375 C20.1085134,23.5002393 34.132488,23.7872251 43.3374274,23.7293324 C52.5423669,23.6714397 64.9034551,23.0949956 80.4206922,22" id="Line-8"></path>
                <path d="M2.07180756,36.868375 C21.043948,37.5002393 35.132488,37.7872251 44.3374274,37.7293324 C53.5423669,37.6714397 65.2804976,37.1391647 79.5518197,36.1325073" id="Line-8"></path>
                <path d="M4.32072065,51.0039692 C21.7935857,51.5454374 35.132488,51.7872251 44.3374274,51.7293324 C53.5423669,51.6714397 64.7200645,51.1850698 77.8705204,50.2702227" id="Line-8"></path>
                <path d="M8.93106475,68.868375 C23.3303671,69.5002393 35.132488,69.7872251 44.3374274,69.7293324 C53.5423669,69.6714397 63.007651,69.3844539 72.7332799,68.868375" id="Line-8"></path>
                <path d="M17.6896007,86.5091884 C26.2958359,87.4682604 35.2014233,87.9188501 44.4063627,87.8609574 C53.6113021,87.8030647 60.0696366,87.5160789 63.7813659,87" id="Line-8"></path>
            </g>
        </g>
        <path d="M456.923836,19.1067353 L390.644663,33.9442396 L357.5,130.5 C337.229428,179.628905 345.594784,207.634382 382.596068,214.51643 C419.597352,221.398479 444.373275,156.261914 456.923836,19.1067353 Z" id="Line-10" stroke="#2F2F2F" stroke-width="4" fill="#D8D8D8" stroke-linecap="square"></path>
        <path d="M374.049209,131.993076 L333.049209,131.993076 L333.049209,191.893076 L374.049209,191.893076 L374.049209,131.993076 Z" id="Rectangle-3" stroke="#2F2F2F" stroke-width="4" fill="#D8D8D8" transform="translate(353.549209, 161.943076) rotate(9.000000) translate(-353.549209, -161.943076) "></path>
        <path d="M475.261865,-53.6316156 L391.537253,-53.6316156 L391.537253,172.141903 C391.504298,189.865382 394.840983,203.117037 401.768025,211.803001 C408.555072,220.313422 418.789748,224.273484 432.355304,223.901797 C446.002886,223.527862 456.438571,219.144736 463.574817,210.591263 C470.816794,201.911063 474.652207,189.054723 475.261865,172.106083 L475.261865,-53.6316156 Z" id="Rectangle-3" stroke="#2F2F2F" stroke-width="4" fill="#FFFFFF" transform="translate(433.399559, 85.147069) rotate(21.000000) translate(-433.399559, -85.147069) "></path>
        <ellipse id="Oval-2" stroke="#2F2F2F" stroke-width="4" fill="#FFFFFF" transform="translate(331.395370, 158.442976) rotate(9.000000) translate(-331.395370, -158.442976) " cx="331.39537" cy="158.442976" rx="5.5" ry="30"></ellipse>
        <rect id="Rectangle-2" stroke="#2F2F2F" stroke-width="4" fill="#D8D8D8" transform="translate(289.293294, 133.140318) rotate(-21.000000) translate(-289.293294, -133.140318) " x="281.793294" y="117.213826" width="15" height="31.8529854"></rect>
        <path d="M299.036248,144.730903 L279.949459,144.730903 L279.949459,213.432463 L299.036248,213.432463 L299.036248,144.730903 Z" id="Rectangle-2" stroke="#2F2F2F" stroke-width="4" fill="#D8D8D8" transform="translate(289.492854, 179.081683) rotate(5.000000) translate(-289.492854, -179.081683) "></path>
        <path d="M290.039703,216.503603 L282.929405,216.503603 L284.441454,224.128871 L288.270102,224.113846 L290.039703,216.503603 Z" id="Rectangle-2" stroke="#2F2F2F" stroke-width="4" fill="#2F2F2F" transform="translate(286.525996, 220.319465) rotate(5.000000) translate(-286.525996, -220.319465) "></path>
        <path d="M309.697126,125.616678 C308.896353,125.404427 308.085357,125.536847 307.421492,125.922523 C306.757624,126.3082 306.240887,126.947133 306.028632,127.747908 C303.619694,136.836263 301.930555,146.077072 300.961113,155.470307 C300.00165,164.766854 299.796256,173.735896 300.347064,182.377469 C300.369116,182.723436 300.450965,183.062963 300.588978,183.380975 C300.918785,184.140923 301.525399,184.695246 302.239548,184.97713 C302.953696,185.259014 303.775379,185.268459 304.535325,184.938651 L327.248258,175.081556 C328.185295,171.869839 329.102959,166.932582 330.01909,160.274513 C330.972016,153.349027 331.017686,146.8704 330.145037,140.838864 L310.741071,126.126026 C310.429596,125.889853 310.074968,125.716828 309.697126,125.616678 Z" id="Rectangle" stroke="#2F2F2F" stroke-width="4" fill="#CACACA"></path>
        <line x1="285.5" y1="230.5" x2="294.813881" y2="127.499033" id="Line" stroke="#2F2F2F" stroke-width="4" stroke-linecap="round"></line>
        <path d="M289.549807,232.738852 C292.902198,230.651801 295.458572,219.596244 297.218929,199.572183 C298.979286,179.548122 300.739643,159.524061 302.5,139.5" id="Line" stroke="#2F2F2F" stroke-width="4" stroke-linecap="round"></path>
        <path d="M279.541252,231.88729 C277.065818,227.641756 276.441775,217.370054 277.669122,201.072183 C278.896468,184.774313 280.656825,164.750252 282.950193,141" id="Line" stroke="#2F2F2F" stroke-width="4" stroke-linecap="round"></path>
        <path d="M384,50.7379374 C345.444287,31.669443 317.335816,28.3233775 299.674587,40.6997408 C282.013359,53.0761042 277.422207,77.6761906 285.901132,114.5" id="Line-9" stroke="#2F2F2F" stroke-width="4" stroke-linecap="round"></path>
        <path d="M381,56.7625946 C278.096743,31.8119154 221.361898,43.3464492 210.795463,91.3661961 C200.229028,139.385943 223.730393,157.762113 281.299558,146.494705" id="Line-9" stroke="#2F2F2F" stroke-width="4" stroke-linecap="round"></path>
        <circle id="Oval-3" stroke="#2F2F2F" stroke-width="4" fill="#FFFFFF" cx="463.5" cy="9.5" r="57.5"></circle>
    </g>
</svg>