<?xml version="1.0" encoding="UTF-8"?>
<svg width="1438px" height="670px" viewBox="0 0 1438 670" version="1.1" xmlns="http://www.w3.org/2000/svg" xmlns:xlink="http://www.w3.org/1999/xlink" style="background: #FFFFFF;">
    <!-- Generator: Sketch 51.3 (57544) - http://www.bohemiancoding.com/sketch -->
    <title>Group 9</title>
    <desc>Created with Sketch.</desc>
    <defs></defs>
    <g id="Page-2" stroke="none" stroke-width="1" fill="none" fill-rule="evenodd">
        <g id="Group-8" transform="translate(390.000000, 63.000000)">
            <polygon id="Path" stroke="#9A9A9A" stroke-width="2" stroke-linecap="round" stroke-linejoin="round" points="121.598 254.4 121.598 177.4 142.4 166.6 142.4 149.6 140.798 151 139.198 152.2 137.198 153.2 135.198 153.8 133.198 154.2 131 154.4 129 154.2 126.798 153.8 108 149 108 254.4"></polygon>
            <g id="Group-5" transform="translate(96.000000, 181.000000)" stroke="#2F2F2F" stroke-linecap="round" stroke-linejoin="round" stroke-width="1.25">
                <polyline id="Path" points="0.798 43.6 1 43.6 2 43.6 4 43.6 6.798 43.6 10.4 43.6 14.4 43.6 18.798 43.6 23 43.6 27.198 43.6 30.798 43.6 33.598 43.6 35.598 43.6 36.598 43.6 36.798 43.6"></polyline>
                <polyline id="Path" points="29.4 2.2 28.598 2.2 27.598 2.2 26.798 2.2 25.798 2.2 25 2.2 24 2.2 23 2.2 22 2.2 21.798 2.2 17 1.8 14.798 1.4 12.598 0.8 9 0.6 5.598 1.4 3 2.2"></polyline>
            </g>
            <rect id="Rectangle-6" fill="#D8D8D8" fill-rule="nonzero" transform="translate(110.500000, 139.123106) rotate(-45.000000) translate(-110.500000, -139.123106) " x="68" y="129.123106" width="85" height="20" rx="10"></rect>
            <polyline id="Path" stroke="#9A9A9A" stroke-width="2" fill="#FFFFFF" stroke-linecap="round" stroke-linejoin="round" points="128 409.092932 128 241.2 102 241.2 102 409.092932"></polyline>
            <path d="M63.5592593,406.656192 C63.5592593,401.714842 64.6143262,259.04181 63.5592593,257.017796 C61.5840738,253.228649 57.1652817,253.228649 55,257.017796" id="Line-2" stroke="#223956" stroke-width="8" stroke-linecap="round" fill-rule="nonzero"></path>
            <path d="M64.103732,259.854993 C62.7885244,251.27616 56.3720431,250.363362 54.1026079,258.422236" id="Line-2" stroke="#4A90E2" stroke-width="8" stroke-linecap="round" fill-rule="nonzero"></path>
            <path d="M127.177415,150.567867 C118.011364,147.522622 110.317065,146 104.094517,146 C87.8721005,146 87,165.333875 87,170.737796 C87,176.141717 90.988093,229.058582 91.6005639,232.472077 C95.2412543,252.7628 92.5854765,265.570843 83.6332305,270.896203" id="Line-2" stroke="#4A90E2" stroke-width="8" stroke-linecap="round" fill-rule="nonzero"></path>
            <polyline id="Path" stroke="#9A9A9A" stroke-width="2" fill="#FFFFFF" stroke-linecap="round" stroke-linejoin="round" points="98.6 183.6 97.798 183.6 97.398 183.6 97.6 183.6 97.798 183.6 98.6 183.6 99.198 183.4 99.6 183.2 100.198 182.8 100.6 182.4 100.798 181.8 101.198 181.2 101.198 180.6 101.398 180 101.398 160.4 81.6 113.8 81.398 113 81.198 112.4 81 111.6 81 110.8 81 110.2 81.198 109.4 81.398 108.6 81.6 108 82.198 107 82.6 106 83.198 105 83.798 104 84.6 103.2 85.198 102.2 86 101.4 86.798 100.6 87.6 100.2 88.198 99.8 89.198 99.2 91.198 98.2 94.398 96.8 101 95 102 94.4 104.198 93.4 104.398 93.2 104.6 93 105 93 105.198 93 105.398 93 105.6 93 106.198 93 106.6 93.2 107.398 94.4 107.398 95.2 107.398 95.8 107.398 99.6 107.398 100.6 107.398 101.4 107.198 102.2 107 102.4 106.798 102.8 106.6 103 106.198 103.2 106 103.2 105.6 103.2 103.6 103.4 101.798 103.8 100 104.4 99.398 104.6 98.398 105.4 97.398 106.2 96.6 107.4 96 108.6 95.798 109.8 95.6 111.2 95.798 112.4 96.198 113.8 106.798 138.8 109.198 145.6 111.6 153.4 114.398 161.4 115 161.2 115.6 161 116 160.6 118 165.2 118.6 166.6 119.198 168 119.798 169.4 120.198 170.6 120.798 171.6 121 172.6 121.398 173.2 121.6 173.6 121.6 180 121.6 180.8 121.798 181.4 122.198 182 122.6 182.6 123.198 183 123.798 183.4 124.398 183.6 125.198 183.6 125 183.6 127.6 183.6 129.6 183.6 130.798 183.6 131.198 183.6 132.398 225 132.398 241.2 132.198 241.2 131.198 241.2 129.198 241.2 126.398 241.2 122.798 241.2 118.6 241.2 114.398 241.2 110 241.2 106 241.2 102.398 241.2 99.6 241.2 97.6 241.2 96.6 241.2 96.398 241.2 96.398 225 97.398 183.6"></polyline>
            <polyline id="Path" stroke="#9A9A9A" stroke-width="1.25" stroke-linecap="round" stroke-linejoin="round" points="125.4 183.6 124.598 183.6 123.598 183.6 122.798 183.6 121.798 183.6 121 183.6 120 183.6 119 183.6 118 183.6 117.798 183.6 113 183.2 110.798 182.8 108.598 182.2 105 182 101.598 182.8 99 183.6"></polyline>
            <path d="M126.990264,150.78047 C115.369485,147.073177 107.76418,147.073177 104.174349,150.78047 C86.3165148,169.222623 77.9161602,191.742514 81.909199,212.670103 C85.9022378,233.597692 74.9930802,261.860546 57.5252839,261.860546 C22.9245253,261.860546 4.00128762,174.573697 0.755570735,0" id="Line-2" stroke="#2C74C9" stroke-width="8" stroke-linecap="round" fill-rule="nonzero"></path>
            <path d="M83.6359077,270.729777 C72.5562539,279.398249 51.5644062,270.03382 54.6343607,257.050652" id="Line-2" stroke="#4A90E2" stroke-width="8" stroke-linecap="round" fill-rule="nonzero"></path>
            <polyline id="Path" stroke="#9A9A9A" stroke-width="1.25" stroke-linecap="round" stroke-linejoin="round" points="96 225 96.202 225 97.202 225 99.202 225 102 225 105.602 225 109.602 225 114 225 118.202 225 122.4 225 126 225 128.8 225 130.8 225 131.8 225 132 225"></polyline>
            <path id="Line-3" d="M154.25,262 L144.75,281 L163.75,281 L154.25,262 Z M152.75,279.5 L152.75,408.5 L152.75,410 L155.75,410 L155.75,408.5 L155.75,279.5 L155.75,278 L152.75,278 L152.75,279.5 Z" fill="#000000" fill-rule="nonzero"></path>
        </g>
        <text id="Step-1:-Push-down-in" font-family="Europa-Bold" font-size="24" font-weight="bold" fill="#3E3E3E">
            <tspan x="470.952" y="529">Step 1:</tspan>
            <tspan x="419.64" y="566" font-family="Europa-Regular" font-weight="normal">Push down initial</tspan>
            <tspan x="419.7" y="597" font-family="Europa-Regular" font-weight="normal">knot onto pusher</tspan>
        </text>
        <text id="Step-0:-Resting-Stat" font-family="Europa-Bold" font-size="24" font-weight="bold" fill="#3E3E3E">
            <tspan x="174.008" y="529">Step 0:</tspan>
            <tspan x="143.084" y="566" font-family="Europa-Regular" font-weight="normal">Resting State</tspan>
        </text>
        <g id="Group-7" transform="translate(16.000000, 63.000000)">
            <rect id="Rectangle-6" fill="#D8D8D8" fill-rule="nonzero" transform="translate(194.123106, 139.123106) rotate(-45.000000) translate(-194.123106, -139.123106) " x="151.623106" y="129.123106" width="85" height="20" rx="10"></rect>
            <polyline id="Path" stroke="#9A9A9A" stroke-width="2" fill="#FFFFFF" stroke-linecap="round" stroke-linejoin="round" points="213 408.6 213 336 187 336 187 408.6"></polyline>
            <path d="M188.284076,212.758491 C158.309828,231.811434 151.567581,247.464304 168.057335,259.717102 C184.547088,271.9699 186.52199,281.244333 173.98204,287.5404" id="Line-2" stroke="#4A90E2" stroke-width="8" stroke-linecap="round" fill-rule="nonzero"></path>
            <polygon id="Path" stroke="#9A9A9A" stroke-width="2" stroke-linecap="round" stroke-linejoin="round" points="206.598 292.4 206.598 215.4 227.4 204.6 227.4 187.6 225.798 189 224.198 190.2 222.198 191.2 220.198 191.8 218.198 192.2 216 192.4 214 192.2 211.798 191.8 193 187 193 292.4"></polygon>
            <polyline id="Path" stroke="#9A9A9A" stroke-width="2" fill="#FFFFFF" stroke-linecap="round" stroke-linejoin="round" points="184 278.2 183.198 278.2 182.798 278.2 183 278.2 183.198 278.2 184 278.2 184.598 278 185 277.8 185.598 277.4 186 277 186.198 276.4 186.598 275.8 186.598 275.2 186.798 274.6 186.798 255 167 208.4 166.798 207.6 166.598 207 166.4 206.2 166.4 205.4 166.4 204.8 166.598 204 166.798 203.2 167 202.6 167.598 201.6 168 200.6 168.598 199.6 169.198 198.6 170 197.8 170.598 196.8 171.4 196 172.198 195.2 173 194.8 173.598 194.4 174.598 193.8 176.598 192.8 179.798 191.4 186.4 189.6 187.4 189 189.598 188 189.798 187.8 190 187.6 190.4 187.6 190.598 187.6 190.798 187.6 191 187.6 191.598 187.6 192 187.8 192.798 189 192.798 189.8 192.798 190.4 192.798 194.2 192.798 195.2 192.798 196 192.598 196.8 192.4 197 192.198 197.4 192 197.6 191.598 197.8 191.4 197.8 191 197.8 189 198 187.198 198.4 185.4 199 184.798 199.2 183.798 200 182.798 200.8 182 202 181.4 203.2 181.198 204.4 181 205.8 181.198 207 181.598 208.4 192.198 233.4 194.598 240.2 197 248 199.798 256 200.4 255.8 201 255.6 201.4 255.2 203.4 259.8 204 261.2 204.598 262.6 205.198 264 205.598 265.2 206.198 266.2 206.4 267.2 206.798 267.8 207 268.2 207 274.6 207 275.4 207.198 276 207.598 276.6 208 277.2 208.598 277.6 209.198 278 209.798 278.2 210.598 278.2 210.4 278.2 213 278.2 215 278.2 216.198 278.2 216.598 278.2 217.798 319.6 217.798 335.8 217.598 335.8 216.598 335.8 214.598 335.8 211.798 335.8 208.198 335.8 204 335.8 199.798 335.8 195.4 335.8 191.4 335.8 187.798 335.8 185 335.8 183 335.8 182 335.8 181.798 335.8 181.798 319.6 182.798 278.2"></polyline>
            <polyline id="Path" stroke="#9A9A9A" stroke-width="1.25" stroke-linecap="round" stroke-linejoin="round" points="181.798 319.6 182 319.6 183 319.6 185 319.6 187.798 319.6 191.4 319.6 195.4 319.6 199.798 319.6 204 319.6 208.198 319.6 211.798 319.6 214.598 319.6 216.598 319.6 217.598 319.6 217.798 319.6"></polyline>
            <polyline id="Path" stroke="#9A9A9A" stroke-width="1.25" stroke-linecap="round" stroke-linejoin="round" points="210.4 278.2 209.598 278.2 208.598 278.2 207.798 278.2 206.798 278.2 206 278.2 205 278.2 204 278.2 203 278.2 202.798 278.2 198 277.8 195.798 277.4 193.598 276.8 190 276.6 186.598 277.4 184 278.2"></polyline>
            <path d="M169.559259,408.39374 C169.559259,402.509404 170.567247,298.84336 169.559259,292.268461 C168.244052,283.689628 163.649599,274.322149 161,284.307007" id="Line-2" stroke="#223956" stroke-width="8" stroke-linecap="round" fill-rule="nonzero"></path>
            <path d="M164.346736,284.153238 C163.031528,275.574406 155.734074,273.140452 156.551472,282.354618" id="Line-2" stroke="#4A90E2" stroke-width="8" stroke-linecap="round" fill-rule="nonzero"></path>
            <path d="M188.284076,212.758491 C169.368349,244.399754 161.564632,266.945016 164.872926,280.394278 C166.493087,286.980743 144.952931,338.752381 135.765891,311.436941 C127.430231,286.652871 117.634708,182.840558 106.379322,0" id="Line-2" stroke="#2C74C9" stroke-width="8" stroke-linecap="round" fill-rule="nonzero"></path>
            <path d="M172.942094,288.249091 C162.459615,292.034707 159.396103,290.101551 156.756856,283.014809" id="Line-2" stroke="#4A90E2" stroke-width="8" stroke-linecap="round" fill-rule="nonzero"></path>
            <circle id="Oval-2" stroke="#F5A623" stroke-width="4" opacity="0.75" fill-rule="nonzero" cx="188.5" cy="212.5" r="8.5"></circle>
            <text id="Initial-Loop" font-family="Europa-Bold" font-size="18" font-weight="bold" fill="#000000">
                <tspan x="6.168" y="221">Initial Loop</tspan>
            </text>
            <circle id="Oval-2" stroke="#727171" stroke-width="4" opacity="0.75" fill-rule="nonzero" cx="166" cy="292" r="24"></circle>
            <text id="Completed-Knot" font-family="Europa-Bold" font-size="18" font-weight="bold" fill="#000000">
                <tspan x="240" y="288">Completed </tspan>
                <tspan x="240" y="316">Knot</tspan>
            </text>
            <path d="M229.5,292.25 L191.5,292.25" id="Line-4" stroke="#727171" stroke-width="5" opacity="0.75" stroke-linecap="square" fill-rule="nonzero"></path>
            <text id="Pushing-Brushes" font-family="Europa-Bold" font-size="18" font-weight="bold" fill="#000000">
                <tspan x="279" y="107">Pushing</tspan>
                <tspan x="279" y="135">Brushes</tspan>
            </text>
            <path d="M267.5,116.208333 L218.5,116.208333" id="Line-4" stroke="#000000" stroke-width="5" stroke-linecap="square" fill-rule="nonzero"></path>
            <path d="M179.5,213.25 L105.5,213.25" id="Line-4" stroke="#F5A623" stroke-width="5" opacity="0.75" stroke-linecap="square" fill-rule="nonzero"></path>
        </g>
        <text id="Step-2:-Traverse-aro" font-family="Europa-Bold" font-size="24" font-weight="bold" fill="#3E3E3E">
            <tspan x="699.62" y="529">Step 2:</tspan>
            <tspan x="653.972" y="566" font-family="Europa-Regular" font-weight="normal">Traverse around </tspan>
            <tspan x="643.22" y="597" font-family="Europa-Regular" font-weight="normal">extruder to create </tspan>
            <tspan x="691.16" y="628" font-family="Europa-Regular" font-weight="normal">new loop</tspan>
        </text>
        <path id="Line-3" d="M803.639261,484.644911 L784.449937,475.53339 L784.836449,494.529458 L803.639261,484.644911 Z M786.159083,483.500277 C744.810087,484.208777 713.807848,483.702058 693.170719,481.982922 C673.582903,480.351196 663.5,477.485852 663.5,474.655083 C663.5,471.581176 675.054417,468.58539 697.390853,467.00281 C720.857384,465.34016 756.100987,465.056666 803.104334,466.154673 L804.603925,466.189704 L804.673987,463.190522 L803.174396,463.155492 C756.084833,462.05547 720.758753,462.339628 697.178829,464.010312 C672.46881,465.761065 660.5,468.864293 660.5,474.655083 C660.5,480.139537 671.114561,483.155967 692.921672,484.972567 C713.67947,486.701755 744.769622,487.209911 786.21048,486.499837 L787.71026,486.474139 L787.658863,483.474579 L786.159083,483.500277 Z" fill="#000000" fill-rule="nonzero"></path>
        <g id="Group-10" transform="translate(651.000000, 63.000000)">
            <rect id="Rectangle-6" fill="#D8D8D8" fill-rule="nonzero" transform="translate(163.523106, 139.123106) rotate(-45.000000) translate(-163.523106, -139.123106) " x="121.023106" y="129.123106" width="85" height="20" rx="10"></rect>
            <polygon id="Path" stroke="#9A9A9A" stroke-width="2" stroke-linecap="round" stroke-linejoin="round" points="95.598 264.4 95.598 187.4 116.4 176.6 116.4 159.6 114.798 161 113.198 162.2 111.198 163.2 109.198 163.8 107.198 164.2 105 164.4 103 164.2 100.798 163.8 82 159 82 264.4"></polygon>
            <polyline id="Path" stroke="#2F2F2F" stroke-width="1.25" stroke-linecap="round" stroke-linejoin="round" points="70.798 234.6 71 234.6 72 234.6 74 234.6 76.798 234.6 80.4 234.6 84.4 234.6 88.798 234.6 93 234.6 97.198 234.6 100.798 234.6 103.598 234.6 105.598 234.6 106.598 234.6 106.798 234.6"></polyline>
            <polyline id="Path" stroke="#2F2F2F" stroke-width="1.25" stroke-linecap="round" stroke-linejoin="round" points="99.4 193.2 98.598 193.2 97.598 193.2 96.798 193.2 95.798 193.2 95 193.2 94 193.2 93 193.2 92 193.2 91.798 193.2 87 192.8 84.798 192.4 82.598 191.8 79 191.6 75.598 192.4 73 193.2"></polyline>
            <polyline id="Path" stroke="#9A9A9A" stroke-width="2" fill="#FFFFFF" stroke-linecap="round" stroke-linejoin="round" points="102 408.39374 102 251.2 76 251.2 76 408.39374"></polyline>
            <path d="M52.5592593,407.434347 C52.5592593,401.710021 52.5592593,263.306158 52.5592593,243.307007 C52.5592593,238.104405 44,240.033624 44,243.307007" id="Line-2" stroke="#223956" stroke-width="8" stroke-linecap="round" fill-rule="nonzero"></path>
            <path d="M51.9494455,242.322691 C50.3656087,239.441106 43.8014717,237.270395 41.5320365,245.329269" id="Line-2" stroke="#4A90E2" stroke-width="8" stroke-linecap="round" fill-rule="nonzero"></path>
            <path d="M101.177415,160.567867 C92.0113643,157.522622 84.317065,156 78.0945168,156 C61.8721005,156 61,175.333875 61,180.737796 C61,186.141717 64.8298266,239.338786 65.6005639,242.472077" id="Line-2" stroke="#4A90E2" stroke-width="8" stroke-linecap="round" fill-rule="nonzero"></path>
            <path d="M0.461933441,0 C5.78528145,12.0826506 30.8312803,139.527754 74.4586991,127.449433" id="Line-2" stroke="#375477" stroke-width="8" stroke-linecap="round" fill-rule="nonzero"></path>
            <polyline id="Path" stroke="#9A9A9A" stroke-width="2" fill="#FFFFFF" stroke-linecap="round" stroke-linejoin="round" points="72.6 193.6 71.798 193.6 71.398 193.6 71.6 193.6 71.798 193.6 72.6 193.6 73.198 193.4 73.6 193.2 74.198 192.8 74.6 192.4 74.798 191.8 75.198 191.2 75.198 190.6 75.398 190 75.398 170.4 55.6 123.8 55.398 123 55.198 122.4 55 121.6 55 120.8 55 120.2 55.198 119.4 55.398 118.6 55.6 118 56.198 117 56.6 116 57.198 115 57.798 114 58.6 113.2 59.198 112.2 60 111.4 60.798 110.6 61.6 110.2 62.198 109.8 63.198 109.2 65.198 108.2 68.398 106.8 75 105 76 104.4 78.198 103.4 78.398 103.2 78.6 103 79 103 79.198 103 79.398 103 79.6 103 80.198 103 80.6 103.2 81.398 104.4 81.398 105.2 81.398 105.8 81.398 109.6 81.398 110.6 81.398 111.4 81.198 112.2 81 112.4 80.798 112.8 80.6 113 80.198 113.2 80 113.2 79.6 113.2 77.6 113.4 75.798 113.8 74 114.4 73.398 114.6 72.398 115.4 71.398 116.2 70.6 117.4 70 118.6 69.798 119.8 69.6 121.2 69.798 122.4 70.198 123.8 80.798 148.8 83.198 155.6 85.6 163.4 88.398 171.4 89 171.2 89.6 171 90 170.6 92 175.2 92.6 176.6 93.198 178 93.798 179.4 94.198 180.6 94.798 181.6 95 182.6 95.398 183.2 95.6 183.6 95.6 190 95.6 190.8 95.798 191.4 96.198 192 96.6 192.6 97.198 193 97.798 193.4 98.398 193.6 99.198 193.6 99 193.6 101.6 193.6 103.6 193.6 104.798 193.6 105.198 193.6 106.398 235 106.398 251.2 106.198 251.2 105.198 251.2 103.198 251.2 100.398 251.2 96.798 251.2 92.6 251.2 88.398 251.2 84 251.2 80 251.2 76.398 251.2 73.6 251.2 71.6 251.2 70.6 251.2 70.398 251.2 70.398 235 71.398 193.6"></polyline>
            <polyline id="Path" stroke="#9A9A9A" stroke-width="1.25" stroke-linecap="round" stroke-linejoin="round" points="99.4 193.6 98.598 193.6 97.598 193.6 96.798 193.6 95.798 193.6 95 193.6 94 193.6 93 193.6 92 193.6 91.798 193.6 87 193.2 84.798 192.8 82.598 192.2 79 192 75.598 192.8 73 193.6"></polyline>
            <path d="M100.990264,160.78047 C89.3694854,157.073177 81.7641803,157.073177 78.174349,160.78047 C60.3165148,179.222623 58.3980157,201.312449 55.909199,222.670103 C53.4203823,244.027757 48.9169692,254.091814 35.7174116,249.245338 C21.5071332,244.027757 27.8079588,240.314475 35.7174116,206.27495" id="Line-2" stroke="#2C74C9" stroke-width="8" stroke-linecap="round" fill-rule="nonzero"></path>
            <path d="M76.6509907,127.150062 C84.6738226,131.273563 50.4228217,153.865116 36.079298,205.601177" id="Line-2" stroke="#2C74C9" stroke-width="8" stroke-linecap="round" fill-rule="nonzero"></path>
            <path d="M65.3782464,242.777105 C65.3782464,263.329428 37.7824155,260.194255 40.8523701,247.211087" id="Line-2" stroke="#4A90E2" stroke-width="8" stroke-linecap="round" fill-rule="nonzero"></path>
            <polyline id="Path" stroke="#9A9A9A" stroke-width="1.25" stroke-linecap="round" stroke-linejoin="round" points="70 235 70.202 235 71.202 235 73.202 235 76 235 79.602 235 83.602 235 88 235 92.202 235 96.4 235 100 235 102.8 235 104.8 235 105.8 235 106 235"></polyline>
            <circle id="Oval-2" stroke="#D0021B" stroke-width="4" opacity="0.75" fill-rule="nonzero" cx="76.5" cy="128.5" r="10.5"></circle>
            <path d="M146.5,128.208333 L87.5,128.208333" id="Line-4" stroke="#D0021B" stroke-width="5" opacity="0.75" stroke-linecap="square" fill-rule="nonzero"></path>
            <text id="New-Loop" font-family="Europa-Bold" font-size="18" font-weight="bold" fill="#000000">
                <tspan x="156.838" y="132">New Loop</tspan>
            </text>
        </g>
        <text id="Step-3:-Push-up-init" font-family="Europa-Bold" font-size="24" font-weight="bold" fill="#3E3E3E">
            <tspan x="972.44" y="529">Step 3:</tspan>
            <tspan x="938.24" y="566" font-family="Europa-Regular" font-weight="normal">Push up initial </tspan>
            <tspan x="988.928" y="597" font-family="Europa-Regular" font-weight="normal">loop</tspan>
        </text>
        <g id="Group-11" transform="translate(924.000000, 63.000000)">
            <rect id="Rectangle-6" fill="#D8D8D8" fill-rule="nonzero" transform="translate(106.123106, 139.123106) rotate(-45.000000) translate(-106.123106, -139.123106) " x="63.623106" y="129.123106" width="85" height="20" rx="10"></rect>
            <path id="Line-3" d="M182.697883,392.959176 L183.902673,371.750723 L166.453994,379.270272 L182.697883,392.959176 Z M177.206396,376.426377 L138.627527,286.906351 L138.033879,285.528824 L135.278824,286.716121 L135.872473,288.093649 L174.451341,377.613675 L175.04499,378.991202 L177.800044,377.803905 L177.206396,376.426377 Z" fill="#000000" fill-rule="nonzero"></path>
            <path d="M95.205121,135.220327 C92.4253066,131.582785 17.9936249,152.368984 27.7965152,183.671034 C31.8620341,196.652824 49.2283289,216.743211 53.198637,235.757471 C56.9339752,253.646433 53.0668376,263.80843 41.5972241,266.243461" id="Line-2" stroke="#4A90E2" stroke-width="8" stroke-linecap="round" fill-rule="nonzero"></path>
            <path d="M0.54990286,0 C5.87325087,12.0826506 30.7202846,193.937754 74.3477035,181.859433" id="Line-2" stroke="#375477" stroke-width="8" stroke-linecap="round" fill-rule="nonzero"></path>
            <polygon id="Path" stroke="#9A9A9A" stroke-width="2" fill="#FFFFFF" stroke-linecap="round" stroke-linejoin="round" points="93.598 240.4 93.598 163.4 114.4 152.6 114.4 135.6 112.798 137 111.198 138.2 109.198 139.2 107.198 139.8 105.198 140.2 103 140.4 101 140.2 98.798 139.8 80 135 80 240.4"></polygon>
            <polyline id="Path" stroke="#9A9A9A" stroke-width="2" fill="#FFFFFF" stroke-linecap="round" stroke-linejoin="round" points="71 249.2 70.198 249.2 69.798 249.2 70 249.2 70.198 249.2 71 249.2 71.598 249 72 248.8 72.598 248.4 73 248 73.198 247.4 73.598 246.8 73.598 246.2 73.798 245.6 73.798 226 54 179.4 53.798 178.6 53.598 178 53.4 177.2 53.4 176.4 53.4 175.8 53.598 175 53.798 174.2 54 173.6 54.598 172.6 55 171.6 55.598 170.6 56.198 169.6 57 168.8 57.598 167.8 58.4 167 59.198 166.2 60 165.8 60.598 165.4 61.598 164.8 63.598 163.8 66.798 162.4 73.4 160.6 74.4 160 76.598 159 76.798 158.8 77 158.6 77.4 158.6 77.598 158.6 77.798 158.6 78 158.6 78.598 158.6 79 158.8 79.798 160 79.798 160.8 79.798 161.4 79.798 165.2 79.798 166.2 79.798 167 79.598 167.8 79.4 168 79.198 168.4 79 168.6 78.598 168.8 78.4 168.8 78 168.8 76 169 74.198 169.4 72.4 170 71.798 170.2 70.798 171 69.798 171.8 69 173 68.4 174.2 68.198 175.4 68 176.8 68.198 178 68.598 179.4 79.198 204.4 81.598 211.2 84 219 86.798 227 87.4 226.8 88 226.6 88.4 226.2 90.4 230.8 91 232.2 91.598 233.6 92.198 235 92.598 236.2 93.198 237.2 93.4 238.2 93.798 238.8 94 239.2 94 245.6 94 246.4 94.198 247 94.598 247.6 95 248.2 95.598 248.6 96.198 249 96.798 249.2 97.598 249.2 97.4 249.2 100 249.2 102 249.2 103.198 249.2 103.598 249.2 104.798 290.6 104.798 306.8 104.598 306.8 103.598 306.8 101.598 306.8 98.798 306.8 95.198 306.8 91 306.8 86.798 306.8 82.4 306.8 78.4 306.8 74.798 306.8 72 306.8 70 306.8 69 306.8 68.798 306.8 68.798 290.6 69.798 249.2"></polyline>
            <polyline id="Path" stroke="#9A9A9A" stroke-width="1.25" stroke-linecap="round" stroke-linejoin="round" points="68.798 290.6 69 290.6 70 290.6 72 290.6 74.798 290.6 78.4 290.6 82.4 290.6 86.798 290.6 91 290.6 95.198 290.6 98.798 290.6 101.598 290.6 103.598 290.6 104.598 290.6 104.798 290.6"></polyline>
            <polyline id="Path" stroke="#9A9A9A" stroke-width="1.25" stroke-linecap="round" stroke-linejoin="round" points="97.4 249.2 96.598 249.2 95.598 249.2 94.798 249.2 93.798 249.2 93 249.2 92 249.2 91 249.2 90 249.2 89.798 249.2 85 248.8 82.798 248.4 80.598 247.8 77 247.6 73.598 248.4 71 249.2"></polyline>
            <path d="M48.9520055,408.553071 C48.9520055,402.828745 49.9599931,258.546239 48.9520055,251.971339 C47.6367979,243.392507 37.3145839,241.986481 34.6649844,251.971339" id="Line-2" stroke="#223956" stroke-width="8" stroke-linecap="round" fill-rule="nonzero"></path>
            <path d="M38.1558472,244.949508 C39.3009544,244.862292 44.1884232,241.626571 45.1550888,246.940789" id="Line-2" stroke="#4A90E2" stroke-width="8" stroke-linecap="round" fill-rule="nonzero"></path>
            <path d="M75.1162188,182.434238 C78.0878858,188.54447 63.6723194,185.211955 49.3287957,236.948016 C34.9852719,288.684077 0.000711801798,248.731017 27.3674029,200.190461 C54.7340941,151.649904 111.4411,139.070618 95.6953154,134.819436" id="Line-2" stroke="#2C74C9" stroke-width="8" stroke-linecap="round" fill-rule="nonzero"></path>
            <path d="M41.3634846,266.51469 C31.9169267,270.739148 31.3417399,250.917983 38.4779248,244.773272" id="Line-2" stroke="#4A90E2" stroke-width="8" stroke-linecap="round" fill-rule="nonzero"></path>
            <polyline id="Path" stroke="#9A9A9A" stroke-width="2" fill="#FFFFFF" stroke-linecap="round" stroke-linejoin="round" points="100 408.6 100 307 74 307 74 408.6"></polyline>
        </g>
        <text id="Step-4:-Push-over-in" font-family="Europa-Bold" font-size="24" font-weight="bold" fill="#3E3E3E">
            <tspan x="1232.164" y="529">Step 4:</tspan>
            <tspan x="1188.652" y="566" font-family="Europa-Regular" font-weight="normal">Push over initial </tspan>
            <tspan x="1248.928" y="597" font-family="Europa-Regular" font-weight="normal">loop</tspan>
            <tspan x="1182.484" y="628" font-family="Europa-Regular" font-weight="normal">to complete knot</tspan>
        </text>
        <polyline id="Path" stroke="#9A9A9A" stroke-width="2" fill="#FFFFFF" stroke-linecap="round" stroke-linejoin="round" points="1300 474.6 1300 402 1274 402 1274 474.6"></polyline>
        <g id="Group-12" transform="translate(1193.000000, 63.000000)">
            <rect id="Rectangle-6" fill="#D8D8D8" fill-rule="nonzero" transform="translate(84.123106, 139.123106) rotate(-45.000000) translate(-84.123106, -139.123106) " x="41.623106" y="129.123106" width="85" height="20" rx="10"></rect>
            <path d="M82.2840762,215.758491 C55.7667748,244.913576 48.0191248,263.768082 59.0411263,272.322008 C70.0631278,280.875934 73.0434323,286.948731 67.9820399,290.5404" id="Line-2" stroke="#2C74C9" stroke-width="8" stroke-linecap="round" fill-rule="nonzero"></path>
            <polygon id="Path" stroke="#9A9A9A" stroke-width="2" stroke-linecap="round" stroke-linejoin="round" points="100.598 295.4 100.598 218.4 121.4 207.6 121.4 190.6 119.798 192 118.198 193.2 116.198 194.2 114.198 194.8 112.198 195.2 110 195.4 108 195.2 105.798 194.8 87 190 87 295.4"></polygon>
            <g id="Group-5" transform="translate(60.000000, 190.000000)" stroke="#9A9A9A" stroke-linecap="round" stroke-linejoin="round">
                <polyline id="Path" stroke-width="2" fill="#FFFFFF" points="18 91.2 17.198 91.2 16.798 91.2 17 91.2 17.198 91.2 18 91.2 18.598 91 19 90.8 19.598 90.4 20 90 20.198 89.4 20.598 88.8 20.598 88.2 20.798 87.6 20.798 68 1 21.4 0.798 20.6 0.598 20 0.4 19.2 0.4 18.4 0.4 17.8 0.598 17 0.798 16.2 1 15.6 1.598 14.6 2 13.6 2.598 12.6 3.198 11.6 4 10.8 4.598 9.8 5.4 9 6.198 8.2 7 7.8 7.598 7.4 8.598 6.8 10.598 5.8 13.798 4.4 20.4 2.6 21.4 2 23.598 1 23.798 0.8 24 0.6 24.4 0.6 24.598 0.6 24.798 0.6 25 0.6 25.598 0.6 26 0.8 26.798 2 26.798 2.8 26.798 3.4 26.798 7.2 26.798 8.2 26.798 9 26.598 9.8 26.4 10 26.198 10.4 26 10.6 25.598 10.8 25.4 10.8 25 10.8 23 11 21.198 11.4 19.4 12 18.798 12.2 17.798 13 16.798 13.8 16 15 15.4 16.2 15.198 17.4 15 18.8 15.198 20 15.598 21.4 26.198 46.4 28.598 53.2 31 61 33.798 69 34.4 68.8 35 68.6 35.4 68.2 37.4 72.8 38 74.2 38.598 75.6 39.198 77 39.598 78.2 40.198 79.2 40.4 80.2 40.798 80.8 41 81.2 41 87.6 41 88.4 41.198 89 41.598 89.6 42 90.2 42.598 90.6 43.198 91 43.798 91.2 44.598 91.2 44.4 91.2 47 91.2 49 91.2 50.198 91.2 50.598 91.2 51.798 132.6 51.798 148.8 51.598 148.8 50.598 148.8 48.598 148.8 45.798 148.8 42.198 148.8 38 148.8 33.798 148.8 29.4 148.8 25.4 148.8 21.798 148.8 19 148.8 17 148.8 16 148.8 15.798 148.8 15.798 132.6 16.798 91.2"></polyline>
                <polyline id="Path" stroke-width="1.25" points="15.798 132.6 16 132.6 17 132.6 19 132.6 21.798 132.6 25.4 132.6 29.4 132.6 33.798 132.6 38 132.6 42.198 132.6 45.798 132.6 48.598 132.6 50.598 132.6 51.598 132.6 51.798 132.6"></polyline>
                <polyline id="Path" stroke-width="1.25" points="44.4 91.2 43.598 91.2 42.598 91.2 41.798 91.2 40.798 91.2 40 91.2 39 91.2 38 91.2 37 91.2 36.798 91.2 32 90.8 29.798 90.4 27.598 89.8 24 89.6 20.598 90.4 18 91.2"></polyline>
            </g>
            <path d="M53.5592593,411.903563 C53.5592593,406.019227 54.567247,315.84336 53.5592593,309.268461 C52.2440518,300.689628 47.6495995,291.322149 45,301.307007" id="Line-2" stroke="#223956" stroke-width="8" stroke-linecap="round" fill-rule="nonzero"></path>
            <path d="M58.2432601,304.785381 C75.3815188,295.85258 49.7340744,276.140452 50.5514721,285.354618" id="Line-2" stroke="#4A90E2" stroke-width="8" stroke-linecap="round" fill-rule="nonzero"></path>
            <path d="M57.9557511,285.354618 C54.8037011,281.312748 50.1998127,281.390515 50.5514721,285.354618" id="Line-2" stroke="#2C74C9" stroke-width="8" stroke-linecap="round" fill-rule="nonzero"></path>
            <path d="M48.7750191,298.866329 C47.4598115,290.287496 40.2462844,289.652163 41.0636822,298.866329" id="Line-2" stroke="#4A90E2" stroke-width="8" stroke-linecap="round" fill-rule="nonzero"></path>
            <path d="M82.2840762,215.758491 C63.3683489,247.399754 55.5646323,269.945016 58.8729264,283.394278 C60.493087,289.980743 26.1173796,327.053295 16.9303401,299.737855 C8.59467992,274.953785 3.0776738,175.041167 0.379321743,0" id="Line-2" stroke="#375477" stroke-width="8" stroke-linecap="round" fill-rule="nonzero"></path>
            <path d="M66.9420936,291.249091 C56.4596151,295.034707 52.4790327,292.785718 50.7568558,286.014809" id="Line-2" stroke="#2C74C9" stroke-width="8" stroke-linecap="round" fill-rule="nonzero"></path>
            <path d="M57.1852378,305.234282 C46.7027594,309.019898 42.159442,304.249874 41,300 C40.2270387,297.16675 40.8518025,294.94113 42.8742915,293.323139" id="Line-2" stroke="#4A90E2" stroke-width="8" stroke-linecap="round" fill-rule="nonzero"></path>
            <circle id="Oval-2" stroke="#727171" stroke-width="4" opacity="0.75" fill-rule="nonzero" cx="58" cy="295" r="24"></circle>
            <text id="Completed-Knots" font-family="Europa-Bold" font-size="18" font-weight="bold" fill="#000000">
                <tspan x="132" y="291">Completed </tspan>
                <tspan x="132" y="319">Knots</tspan>
            </text>
            <path d="M121.5,295.25 L83.5,295.25" id="Line-4" stroke="#727171" stroke-width="5" opacity="0.75" stroke-linecap="square" fill-rule="nonzero"></path>
        </g>
        <circle id="Oval-2" stroke="#D0021B" stroke-width="4" opacity="0.75" fill-rule="nonzero" cx="998.5" cy="248.5" r="11.5"></circle>
        <circle id="Oval-2" stroke="#D0021B" stroke-width="4" opacity="0.75" fill-rule="nonzero" cx="1251.5" cy="347.5" r="20.5"></circle>
        <circle id="Oval-2" stroke="#F5A623" stroke-width="4" opacity="0.75" fill-rule="nonzero" cx="752.5" cy="223.5" r="8.5"></circle>
        <circle id="Oval-2" stroke="#F5A623" stroke-width="4" opacity="0.75" fill-rule="nonzero" cx="516.5" cy="213.5" r="8.5"></circle>
        <circle id="Oval-2" stroke="#F5A623" stroke-width="4" opacity="0.75" fill-rule="nonzero" cx="1021.5" cy="200.5" r="11.5"></circle>
        <circle id="Oval-2" stroke="#F5A623" stroke-width="4" opacity="0.75" fill-rule="nonzero" cx="1271.5" cy="280.5" r="11.5"></circle>
        <circle id="Oval-2" stroke="#727171" stroke-width="4" opacity="0.75" fill-rule="nonzero" cx="448" cy="330" r="24"></circle>
        <circle id="Oval-2" stroke="#727171" stroke-width="4" opacity="0.75" fill-rule="nonzero" cx="698" cy="316" r="24"></circle>
        <circle id="Oval-2" stroke="#727171" stroke-width="4" opacity="0.75" fill-rule="nonzero" cx="964" cy="319" r="24"></circle>
    </g>
</svg>