<?xml version="1.0" encoding="UTF-8"?>
<svg width="210px" height="737px" viewBox="0 0 210 737" version="1.1" xmlns="http://www.w3.org/2000/svg" xmlns:xlink="http://www.w3.org/1999/xlink">
    <!-- Generator: Sketch 51.3 (57544) - http://www.bohemiancoding.com/sketch -->
    <title>Group 21</title>
    <desc>Created with Sketch.</desc>
    <defs></defs>
    <g id="Page-2" stroke="none" stroke-width="1" fill="none" fill-rule="evenodd" stroke-linecap="round" stroke-linejoin="round">
        <g id="Group-21" transform="translate(1.000000, 1.000000)" stroke="#231F20" stroke-width="1.417">
            <path d="M64,232 C64,234.028065 65.132969,235.914133 67,237" id="Stroke-1"></path>
            <path d="M66,237 L87,250" id="Stroke-3"></path>
            <path d="M72,217 L107,234" id="Stroke-5"></path>
            <path d="M64,232 L64,222" id="Stroke-7"></path>
            <path d="M111,310.85 L112.464,310" id="Stroke-9"></path>
            <path d="M168,693 L168,686" id="Stroke-11"></path>
            <path d="M72,217.591362 C70.2701851,216.698954 68.2347381,216.82257 66.6104766,217.92157 C64.986215,219.02057 64,220.93747 64,223" id="Stroke-13"></path>
            <path d="M61,715 L61,708" id="Stroke-15"></path>
            <path d="M113.56,309.010199 C112.978,308.964199 112.448,309.074199 112,309.332199" id="Stroke-17"></path>
            <path d="M103,699 L103,708" id="Stroke-19"></path>
            <path d="M103,289 L103,352" id="Stroke-21"></path>
            <path d="M111.316,318 L111,318.034" id="Stroke-23"></path>
            <path d="M111,251 L111,243" id="Stroke-25"></path>
            <path d="M111,319 L111,277" id="Stroke-27"></path>
            <path d="M89,734 L65,720" id="Stroke-29"></path>
            <path d="M133,716 L104,733" id="Stroke-31"></path>
            <path d="M61,715 C61,716.876296 62.0794798,718.674845 64,720" id="Stroke-33"></path>
            <path d="M88,733 C92.4186371,735.666667 99.5813629,735.666667 104,733" id="Stroke-35"></path>
            <path d="M103,708 L111,704" id="Stroke-37"></path>
            <path d="M160,694 L165,691" id="Stroke-39"></path>
            <path d="M104,726 L127,713" id="Stroke-41"></path>
            <path d="M65,712 L89,726" id="Stroke-43"></path>
            <path d="M80,695 L65,704" id="Stroke-45"></path>
            <path d="M165,681 L147,671" id="Stroke-47"></path>
            <path d="M66,237 L81,246" id="Stroke-49"></path>
            <path d="M72,217 L107,234" id="Stroke-51"></path>
            <path d="M64,232 L64,222" id="Stroke-53"></path>
            <path d="M111,310.85 L112.464,310" id="Stroke-55"></path>
            <path d="M166,697 C167.296223,695.857369 168,694.450079 168,693" id="Stroke-57"></path>
            <path d="M88,726 C92.4186371,728.666667 99.5813629,728.666667 104,726" id="Stroke-59"></path>
            <path d="M80,564 L80,248" id="Stroke-61"></path>
            <path d="M64,703 C60,705.486351 60,709.513649 64,712" id="Stroke-63"></path>
            <path d="M80,663 L80,592" id="Stroke-65"></path>
            <path d="M80,713 L80,686" id="Stroke-67"></path>
            <path d="M165,691 C169,688.514774 169,684.485226 165,682" id="Stroke-69"></path>
            <path d="M64,232 C64,234.028065 65.132969,235.914133 67,237" id="Stroke-71"></path>
            <path d="M72,217.591362 C70.2701851,216.698954 68.2347381,216.82257 66.6104766,217.92157 C64.986215,219.02057 64,220.93747 64,223" id="Stroke-73"></path>
            <path d="M88,690 L88,717" id="Stroke-75"></path>
            <path d="M113.56,309.010199 C112.978,308.964199 112.448,309.074199 112,309.332199" id="Stroke-77"></path>
            <path d="M88,252 L88,416" id="Stroke-79"></path>
            <path d="M66,702 C60.6666667,705.037597 60.6666667,709.962403 66,713" id="Stroke-81"></path>
            <path d="M111,251 L111,243" id="Stroke-83"></path>
            <path d="M111,319 L111,277" id="Stroke-85"></path>
            <polyline id="Stroke-87" points="111 704 87.7783229 718 80 713.309028"></polyline>
            <path d="M87,725 C92.2464455,727.666667 100.753555,727.666667 106,725" id="Stroke-89"></path>
            <path d="M106,725 L127,713" id="Stroke-91"></path>
            <path d="M80,695 L66,703" id="Stroke-93"></path>
            <path d="M66,713 L86,725" id="Stroke-95"></path>
            <path d="M86,732 L66,720" id="Stroke-97"></path>
            <path d="M134,716 L106,732" id="Stroke-99"></path>
            <path d="M107.346,250 L107,250.39" id="Stroke-101"></path>
            <path d="M168,533 L168,348" id="Stroke-103"></path>
            <path d="M109,276 C108.319361,276.59 107.650699,277.23 107,277.91" id="Stroke-105"></path>
            <path d="M104.346,249 C104.23,249.128 104.116,249.258 104,249.39" id="Stroke-107"></path>
            <path d="M120,283 C120.78,280.44803 120.924,278.039395 120.418,276" id="Stroke-109"></path>
            <path d="M168,657 L168,589" id="Stroke-111"></path>
            <path d="M125,259 L119,255" id="Stroke-113"></path>
            <path d="M164,662 C165.92052,660.673575 167,658.875648 167,657" id="Stroke-115"></path>
            <path d="M107,357 L107,350" id="Stroke-117"></path>
            <path d="M109.658,250.47 C109.108,250.308 108.556,250.15 108,250" id="Stroke-119"></path>
            <path d="M119,255 C114.330145,252.402604 109.317147,250.398598 104,249" id="Stroke-121"></path>
            <path d="M103,388 L103,384" id="Stroke-123"></path>
            <path d="M114,252 C113.020492,251.298883 112.020492,250.632682 111,250" id="Stroke-125"></path>
            <path d="M63.1975067,498.90053 C33.1794799,512.803986 22.1222723,536.242894 35.8025057,556.970574 C49.4827391,577.699818 84.7923399,591.00721 123.280652,589.940241 C161.768965,588.874836 194.694139,573.675998 204.84718,552.286547 C215.00336,530.897096 200.081467,508.177844 167.87994,496" id="Stroke-127"></path>
            <path d="M30,546 C30,574.166784 69.8473723,597 119.000785,597 C168.154198,597 208,574.166784 208,546" id="Stroke-129"></path>
            <path d="M80,375 L73,404" id="Stroke-131"></path>
            <polyline id="Stroke-133" points="102 256 101.856995 255.687692 101.783938 255.532308 101.709326 255.376923 101.630052 255.223077 101.549223 255.067692 101.468394 254.912308 101.384456 254.756923 101.213472 254.446154 101.034715 254.136923 100.849741 253.826154 100.660104 253.516923 100.464249 253.203077 100.265285 252.890769 100.060104 252.576923 99.8549223 252.264615 99.6435233 251.952308 99.4321244 251.636923 99.2160622 251.318462 99 251"></polyline>
            <path d="M95,421 L95,417" id="Stroke-135"></path>
            <path d="M169.374,532.12 C168.966,531.728 168.508,531.354 168,531" id="Stroke-137"></path>
            <path d="M73,404 L73,408" id="Stroke-139"></path>
            <path d="M167,533 C171.986577,530.557207 172.356278,526.656761 167.85329,524" id="Stroke-141"></path>
            <path d="M79,408 L73,404" id="Stroke-143"></path>
            <path d="M63.23,554 C63.152,554.07 63.074,554.142 63,554.212" id="Stroke-145"></path>
            <polyline id="Stroke-147" points="88 413.353388 94.2859383 417 102.142969 384.413622 106.859383 350 110 351.822518"></polyline>
            <polyline id="Stroke-149" points="104 286 102.536692 291.214365 100 296"></polyline>
            <polyline id="Stroke-151" points="94 292.452899 100.280271 296 103 285 103 291.363016"></polyline>
            <path d="M108,251 L103,285" id="Stroke-153"></path>
            <polyline id="Stroke-155" points="80 285 78 283.896285 80 276"></polyline>
            <path d="M63.1461372,546 C59.6977421,548.858672 60.4687247,552.602248 65,555" id="Stroke-157"></path>
            <polyline id="Stroke-159" points="107 251 104 249 107 250.996546"></polyline>
            <path d="M120,269 L120,273" id="Stroke-161"></path>
            <path d="M112,278 L109,276" id="Stroke-163"></path>
            <polyline id="Stroke-165" points="107 251 107 251.003185 107 278"></polyline>
            <path d="M109,251 L109,276" id="Stroke-167"></path>
            <polyline id="Stroke-169" points="105 249 105 249 94 293"></polyline>
            <path d="M98,571 C100.645554,570.845917 103.120805,570.138675 105,569" id="Stroke-171"></path>
            <path d="M119,283 L88,413" id="Stroke-173"></path>
            <path d="M167,31 C173.666667,27.1334255 173.666667,20.8649614 167,17" id="Stroke-175"></path>
            <path d="M88,413 L88,417" id="Stroke-177"></path>
            <path d="M79,564 L79,408" id="Stroke-179"></path>
            <path d="M82,66 C88.6270206,70 99.3729794,70 106,66" id="Stroke-181"></path>
            <path d="M62,40 C56.6666667,42.7619796 56.6666667,47.2380204 62,50" id="Stroke-183"></path>
            <path d="M79,663 L79,592" id="Stroke-185"></path>
            <path d="M79,407 L80,404" id="Stroke-187"></path>
            <path d="M117,296 L117,278" id="Stroke-189"></path>
            <polyline id="Stroke-191" points="111 243 110.996994 242.750734 110.989478 242.499817 110.974446 242.247249 110.956407 241.99303 110.932356 241.733859 110.902292 241.476339 110.867719 241.213866 110.827133 240.953045 110.780534 240.690572 110.732431 240.426449 110.67531 240.165627 110.615182 239.903155 110.550545 239.645635 110.479895 239.386464 110.404735 239.127293 110.326569 238.874725 110.24239 238.623808 110.153702 238.372891 110.060504 238.126926 109.964299 237.882612 109.863585 237.644901 109.759865 237.410492 109.653138 237.182685 109.541902 236.954879 109.424652 236.736977 109.308906 236.522377 109.187148 236.31438 109.062383 236.112986 108.937617 235.914894 108.808343 235.728357 108.679068 235.545121 108.545284 235.37179 108.409996 235.205062 108.273206 235.044938 108.134912 234.893067 107.996618 234.751101 107.855318 234.617388 107.712514 234.49193 107.571214 234.373074 107.42841 234.265774 107.284104 234.168379 107.1413 234.079237 107 234"></polyline>
            <path d="M111,310 L114,308" id="Stroke-193"></path>
            <path d="M85,64 C89.6941219,66.6666667 97.304336,66.6666667 102,64" id="Stroke-195"></path>
            <path d="M134,679 L164,661" id="Stroke-197"></path>
            <path d="M118,597 L118,658" id="Stroke-199"></path>
            <path d="M118,386 L118,562" id="Stroke-201"></path>
            <path d="M109,251 L112,253" id="Stroke-203"></path>
            <path d="M107,251 L104,249" id="Stroke-205"></path>
            <path d="M30,539 L30,546" id="Stroke-207"></path>
            <path d="M208,539 L208,546" id="Stroke-209"></path>
            <path d="M73,560 L82,565" id="Stroke-211"></path>
            <path d="M65,555 L65.01,555.006" id="Stroke-213"></path>
            <path d="M106,568 L167,533" id="Stroke-215"></path>
            <polyline id="Stroke-217" points="79 245 79.05 245.164624 79.098 245.332445 79.144 245.503463 79.188 245.679275 79.226 245.855088 79.262 246.035695 79.294 246.216303 79.328 246.403303 79.356 246.5935 79.378 246.783697 79.4 246.978689 79.418 247.176878 79.432 247.378263 79.444 247.582845 79.446 247.790623 79.45 248"></polyline>
            <path d="M172,24 L172,156" id="Stroke-219"></path>
            <polyline id="Stroke-221" points="88 252 87.996807 251.750112 87.9920176 251.501785 87.9760527 251.259705 87.9632808 251.019188 87.9393335 250.781794 87.9137897 250.549085 87.8850529 250.316377 87.8499302 250.088353 87.8132109 249.863454 87.7701058 249.641678 87.7238076 249.421464 87.6743165 249.204373 87.6200359 248.991968 87.5641589 248.781124 87.5018958 248.570281 87.4396328 248.361 87.3709838 248.156403 87.2991419 247.951807 87.220914 247.745649 87.1410896 247.541053 87.0580722 247.339581 86.9686689 247.133423 86.8760726 246.930388 86.7818799 246.728916 86.6813011 246.525881 86.5775294 246.324409 86.4689683 246.121374 86.3556176 245.91834 86.2406705 245.713744 86.1209339 245.51071 85.9964079 245.306113 85.8686889 245.101517 85.7361804 244.895359 85.6004789 244.690763 85.459988 244.483043 85.3163041 244.273762 85.1662343 244.062918 85.014568 243.853637 84.8565157 243.641232 84.6952704 243.428826 84.5308322 243.211736 84.3616045 242.994645 84.1891838 242.775993 84.0103772 242.554217 83.8299741 242.332441 83.646378 242.107541 83.5505887 241.991968 83.453203 241.876394 83.3558172 241.757697 83.2552385 241.643686 83.050888 241.40473 82.8417482 241.162651 82.6294153 240.917448 82.4154859 240.673806 81.9828378 240.184962 81.7641189 239.942883 81.5485931 239.700803 81.3362602 239.464971 81.1255238 239.233824 81.0217521 239.121374 80.9211734 239.008925 80.8205947 238.899598 80.720016 238.790272 80.6258232 238.682508 80.5284374 238.579429 80.4358411 238.474788 80.3448413 238.376394 80.255438 238.278001 80.1660347 238.182731 80.0830174 238.089023 80 238"></polyline>
            <path d="M54,45 L54,177" id="Stroke-223"></path>
            <path d="M106,65 L167,30" id="Stroke-225"></path>
            <path d="M59,38 C52.3333333,41.8665745 52.3333333,48.1350386 59,52" id="Stroke-227"></path>
            <path d="M59,52 L83,66" id="Stroke-229"></path>
            <path d="M144,3 C137.372979,-1 126.627021,-1 120,3" id="Stroke-231"></path>
            <path d="M103,64 L164,29" id="Stroke-233"></path>
            <path d="M123,5 L62,40" id="Stroke-235"></path>
            <path d="M164,29 C169.333333,26.2380204 169.333333,21.7619796 164,19" id="Stroke-237"></path>
            <path d="M112,30 L120,35" id="Stroke-239"></path>
            <path d="M140,5 C135.305452,2.33333333 127.694548,2.33333333 123,5" id="Stroke-241"></path>
            <path d="M70,54 L112,30" id="Stroke-243"></path>
            <path d="M77,59 L119,35" id="Stroke-245"></path>
            <path d="M120,190 L120,216" id="Stroke-247"></path>
            <path d="M120,35 L120,54" id="Stroke-249"></path>
            <path d="M93,201 L120,216" id="Stroke-251"></path>
            <path d="M120,3 L59,38" id="Stroke-253"></path>
            <path d="M167,17 L143,3" id="Stroke-255"></path>
            <polyline id="Stroke-257" points="164 19 156 14 148 19"></polyline>
            <path d="M156,14 L156,33" id="Stroke-259"></path>
            <path d="M62,50 L70,55" id="Stroke-261"></path>
            <path d="M77,59 L85,64" id="Stroke-263"></path>
            <path d="M111.316,318 L111,318.034" id="Stroke-265"></path>
            <polyline id="Stroke-267" points="148 9 140 13.5173375 148 18.0331141 148 37"></polyline>
            <path d="M82,198 C88.6270206,202 99.3729794,202 106,198" id="Stroke-269"></path>
            <path d="M140,14 L140,42" id="Stroke-271"></path>
            <path d="M148,10 L140,5" id="Stroke-273"></path>
            <polyline id="Stroke-275" points="118 278 118.151672 277.876823 118.308236 277.755267 118.461538 277.638574 118.61321 277.52188 118.766513 277.410049 118.916553 277.299838 119.064963 277.191248 119.215004 277.089141 119.361783 276.987034 119.508562 276.888169 119.652079 276.792545 119.797228 276.6953 119.939114 276.606159 120.081 276.517018 120.221256 276.432739 120.35988 276.34846 120.495243 276.270665 120.630606 276.194489 120.762707 276.118314 120.894808 276.048622 121.023648 275.97731 121.152487 275.910859 121.278065 275.849271 121.402011 275.789303 121.522696 275.730956 121.643381 275.67423 121.757543 275.619125 121.871704 275.568882 121.985866 275.523501 122.095135 275.476499 122.204403 275.432739 122.307149 275.39222 122.409894 275.353323 122.509378 275.319287 122.605599 275.286872 122.696929 275.254457 122.788258 275.225284 122.876325 275.199352 122.961131 275.176661 123.042675 275.15235 123.119326 275.13128 123.195977 275.111831 123.266105 275.097245 123.336233 275.079417 123.401468 275.068071 123.463441 275.056726 123.525415 275.045381 123.577603 275.035656 123.629791 275.027553 123.680348 275.02107 123.724382 275.016207 123.765154 275.012966 123.804295 275.006483 123.838543 275.006483 123.867899 275.003241 123.897255 275.003241 123.920087 275 123.941288 275 123.959228 275 123.973906 275 123.985322 275.003241 123.991846 275.003241 123.996738 275.003241 124 275.003241"></polyline>
            <path d="M59,184 L83,198" id="Stroke-277"></path>
            <path d="M106,198 L167,163" id="Stroke-279"></path>
            <polyline id="Stroke-281" points="111 243 110.996994 242.750734 110.989478 242.499817 110.974446 242.247249 110.956407 241.99303 110.932356 241.733859 110.902292 241.476339 110.867719 241.213866 110.827133 240.953045 110.780534 240.690572 110.732431 240.426449 110.67531 240.165627 110.615182 239.903155 110.550545 239.645635 110.479895 239.386464 110.404735 239.127293 110.326569 238.874725 110.24239 238.623808 110.153702 238.372891 110.060504 238.126926 109.964299 237.882612 109.863585 237.644901 109.759865 237.410492 109.653138 237.182685 109.541902 236.954879 109.424652 236.736977 109.308906 236.522377 109.187148 236.31438 109.062383 236.112986 108.937617 235.914894 108.808343 235.728357 108.679068 235.545121 108.545284 235.37179 108.409996 235.205062 108.273206 235.044938 108.134912 234.893067 107.996618 234.751101 107.855318 234.617388 107.712514 234.49193 107.571214 234.373074 107.42841 234.265774 107.284104 234.168379 107.1413 234.079237 107 234"></polyline>
            <polyline id="Stroke-283" points="110 352 110.140491 352.08498 110.280982 352.177829 110.424666 352.283268 110.565157 352.393427 110.707244 352.516177 110.844542 352.645221 110.985033 352.785281 111.12712 352.934784 111.267611 353.090581 111.404909 353.257394 111.542207 353.430502 111.681102 353.614626 111.8184 353.806619 111.957294 354.008054 112.094592 354.217357 112.230293 354.436103 112.364398 354.662717 112.5001 354.894052 112.632608 355.137977 112.766713 355.391345 112.899222 355.647859 113.028537 355.91539 113.157853 356.192363 113.287168 356.472483 113.416484 356.76362 113.542606 357.062624 113.668729 357.371072 113.796448 357.681092 113.919377 358.002129 114.04071 358.331034 114.160447 358.667808 114.28178 359.010877 114.39992 359.360241 114.51806 359.715899 114.634604 360.079426 114.747955 360.449248 114.861305 360.825364 114.971463 361.20935 115.083217 361.598056 115.188585 361.994631 115.29555 362.392779 115.402514 362.80037 115.506286 363.214256 115.606865 363.634436 115.707444 364.057764 115.804829 364.487387 115.902215 364.923305 115.994811 365.360796 116.089004 365.806156 116.178408 366.257811 116.267811 366.714187 116.354021 367.172136 116.440231 367.63638 116.523249 368.103772 116.603073 368.575885 116.681301 369.052719 116.757933 369.532701 116.832967 370.01583 116.904809 370.50368 116.975055 370.994677 117.043704 371.488822 117.10916 371.984541 117.173019 372.486554 117.233686 372.990141 117.292756 373.493728 117.350229 374.000463 117.406107 374.515066 117.457194 375.026522 117.506685 375.539551 117.55458 376.054154 117.600878 376.573478 117.643983 377.094376 117.683895 377.615274 117.720615 378.136172 117.75893 378.660218 117.79086 379.184263 117.821193 379.708308 117.84993 380.232354 117.87707 380.759546 117.899421 381.286739 117.920176 381.810785 117.939333 382.337977 117.956895 382.862023 117.96807 383.387642 117.980842 383.911687 117.988825 384.435732 117.993614 384.958204 118 385.479102 118 386"></polyline>
            <path d="M167,163 C170.201092,161.143548 172,158.625806 172,156" id="Stroke-285"></path>
            <path d="M20,616 L6,624" id="Stroke-287"></path>
            <path d="M179,720 L165,728" id="Stroke-289"></path>
            <path d="M154,728 L6,643" id="Stroke-291"></path>
            <polyline id="Stroke-293" points="168 348 167.996861 347.063234 167.989014 346.128035 167.976458 345.197535 167.960764 344.267036 167.937222 343.336536 167.908972 342.410736 167.874444 341.489635 167.838347 340.570101 167.795972 339.650567 167.747319 338.737298 167.693958 337.82403 167.639027 336.912328 167.57311 336.005326 167.505624 335.103023 167.434999 334.200721 167.354957 333.301551 167.271776 332.403948 167.182318 331.51261 167.08972 330.62284 166.990845 329.733069 166.888831 328.847997 166.778969 327.969192 166.665969 327.08882 166.548261 326.214715 166.424274 325.340609 166.29401 324.471203 166.160607 323.606496 166.019357 322.740222 165.874967 321.881782 165.72587 321.026474 165.570494 320.172732 165.408841 319.320558 165.245619 318.474649 165.076118 317.631873 164.897201 316.79223 164.716715 315.954154 164.533089 315.11921 164.341617 314.290533 164.145436 313.464989 163.942977 312.641011 163.737379 311.820166 163.523934 311.002454 163.30735 310.191008 163.087628 309.381129 162.858488 308.577516 162.62621 307.777035 162.386084 306.978121 162.144389 306.183907 161.894847 305.394392 161.643735 304.60801 161.383207 303.823195 161.11797 303.046212 160.849595 302.270795 160.576511 301.500078 160.295579 300.734061 160.00994 299.96961 159.719592 299.209858 159.422966 298.454807 159.123202 297.706021 158.818729 296.958801 158.504839 296.216281 158.18938 295.476894 157.866074 294.743773 157.538059 294.013785 157.208475 293.290063 156.869474 292.567908 156.527335 291.852018 156.180487 291.137695 155.827361 290.431205 155.467957 289.727847 155.103845 289.027623 154.733455 288.335231 154.358357 287.644405 153.978551 286.959845 153.595606 286.279985 153.204813 285.603258 152.809312 284.931231 152.407533 284.265469 152.001046 283.60754 151.588281 282.949611 151.173947 282.297948 150.753335 281.652551 150.323306 281.00872 149.891708 280.372722 149.456971 279.74299 149.012817 279.117957 148.563955 278.494491 148.111954 277.878858 147.653675 277.267923 147.190688 276.664822 146.721423 276.063287 146.250589 275.469584 145.768768 274.879014 145.286947 274.296277 144.79728 273.718239 144.306042 273.144901 143.805388 272.579395 143.303165 272.017023 142.794664 271.462482 142.281454 270.912642 141.763536 270.3675 141.237771 269.830192 140.710437 269.296016 140.178394 268.769673 139.640073 268.248029 139.097044 267.734218 138.549307 267.225106 137.995292 266.72226 137.438138 266.22568 136.876275 265.735366 136.311274 265.249752 135.738425 264.773537 135.165577 264.302021 134.583312 263.833638 133.997907 263.377787 133.407795 262.923503 132.814544 262.478617 132.215014 262.038431 131.613916 261.604512 131.006539 261.178424 130.396024 260.758603 129.779231 260.343481 129.160868 259.934625 128.536228 259.535168 127.910018 259.141977 127.277531 258.753485 126.641904 258.375959 126 258"></polyline>
            <path d="M63,554 L63,427" id="Stroke-295"></path>
            <path d="M54,178 C54,180.624798 55.7989078,183.143121 59,185" id="Stroke-297"></path>
            <path d="M63,650 L63,586" id="Stroke-299"></path>
            <path d="M63,424 L79,357" id="Stroke-301"></path>
            <path d="M78,662 L82,664" id="Stroke-303"></path>
            <path d="M78,411 L72,407" id="Stroke-305"></path>
            <path d="M64,638 L26,616" id="Stroke-307"></path>
            <path d="M5.998307,624 C2.28724605,625.959593 0,629.580041 0,633.500774 C0,637.419959 2.28724605,641.041955 6,643" id="Stroke-309"></path>
            <path d="M154,728 C157.403358,730.532 161.596642,730.534 165,728" id="Stroke-311"></path>
            <path d="M63.4,424 C63.134,424.981426 63,425.988017 63,427" id="Stroke-313"></path>
            <path d="M73,432 L78,411" id="Stroke-315"></path>
            <polyline id="Stroke-317" points="120 273 119.996807 273.221251 119.988825 273.442502 119.977649 273.667031 119.956895 273.89156 119.932948 274.112811 119.907404 274.332423 119.873877 274.552035 119.838755 274.76673 119.79565 274.976509 119.749351 275.186288 119.701457 275.386233 119.647176 275.58454 119.589703 275.776291 119.529036 275.959847 119.46358 276.136848 119.393335 276.304015 119.321493 276.466266 119.241668 276.625239 119.158651 276.785851 119.066055 276.938268 118.970265 277.089047 118.86809 277.236547 118.764318 277.38077 118.655757 277.516799 118.539214 277.652827 118.425863 277.779022 118.30453 277.9003 118.1816 278.018301 118.057074 278.126468 117.930952 278.226441 117.801636 278.321497 117.672321 278.406719 117.538216 278.487025 117.399321 278.560776 117.255638 278.629609 117.103971 278.690249 116.947515 278.749249 116.789463 278.803332 116.626621 278.847583 116.460587 278.888555 116.292955 278.922972 116.120535 278.950833 115.948114 278.973778 115.7725 278.988528 115.60008 278.998361 115.424466 279 115.250449 278.998361 115.078028 278.98525 114.905608 278.968861 114.723608 278.941 114.540012 278.908222 114.353223 278.870527 114.160048 278.822999 113.968469 278.770554 113.770505 278.708276 113.57254 278.642721 113.371383 278.56897 113.171822 278.493581 112.970665 278.406719 112.7727 278.319858 112.574736 278.224802 112.379964 278.124829 112.189982 278.01994 112 277.911773"></polyline>
            <path d="M78,592 L78,662" id="Stroke-319"></path>
            <polyline id="Stroke-321" points="107 277 106.844389 277.349165 106.690274 277.704593 106.53616 278.066284 106.38803 278.432672 106.2399 278.800626 106.093267 279.176409 105.949626 279.556889 105.807481 279.935804 105.669825 280.325678 105.53217 280.715553 105.397506 281.110125 105.265835 281.503132 105.132668 281.903967 105.006983 282.307933 104.882793 282.710334 104.761596 283.115866 104.643392 283.52453 104.529676 283.936326 104.417456 284.348121 104.309726 284.759916 104.201995 285.170146 104.100249 285.585073 104 286"></polyline>
            <path d="M78,411 L78,563" id="Stroke-323"></path>
            <path d="M73,665 L78,662" id="Stroke-325"></path>
            <path d="M26,616.368021 C23.75,614.832021 21.5914221,614.578021 20,615.664021" id="Stroke-327"></path>
            <path d="M71,407 L80,371" id="Stroke-329"></path>
            <path d="M73,560 L73,435" id="Stroke-331"></path>
            <polyline id="Stroke-333" points="112 253 112.106965 253.062257 112.215526 253.12607 112.322491 253.192996 112.434245 253.263035 112.542806 253.336187 112.656156 253.412451 112.879665 253.571206 113.106366 253.7393 113.329874 253.916732 113.554979 254.101946 113.778487 254.291829 113.997206 254.491051 114.212732 254.688716 114.316504 254.792996 114.420275 254.894163 114.524047 254.996887 114.624626 255.101167 114.722012 255.207004 114.819397 255.311284 114.91359 255.418677 115.012572 255.527626 115.106765 255.639689 115.204151 255.751751 115.397326 255.98677 115.587308 256.228016 115.775693 256.477043 115.965676 256.730739 116.149272 256.989105 116.331271 257.25214 116.508481 257.516732 116.679306 257.784436 116.848533 258.05214 117.009778 258.318288 117.161445 258.582879 117.308322 258.844358 117.448813 259.10428 117.587707 259.367315 117.721812 259.639689 117.85432 259.913619 117.983636 260.196887 118.109759 260.480156 118.232688 260.768093 118.354021 261.057588 118.468968 261.345525 118.583915 261.636576 118.689284 261.92607 118.793055 262.217121 118.893634 262.501946 118.98623 262.78677 119.075634 263.06537 119.158651 263.343969 119.236879 263.611673 119.308721 263.877821 119.37737 264.147082 119.439633 264.419455 119.503492 264.693385 119.560966 264.970428 119.615246 265.249027 119.667931 265.529183 119.715825 265.807782 119.75893 266.089494 119.802036 266.36965 119.837158 266.646693 119.870684 266.923735 119.899421 267.196109 119.924965 267.466926 119.948912 267.736187 119.969667 267.999222 119.980842 268.257588 119.992018 268.51284 119.996807 268.758755 120 269"></polyline>
            <polyline id="Stroke-335" points="82 592.888647 82 671 73 665.543317 73 590"></polyline>
            <polyline id="Stroke-337" points="72 407.388 71.83 407.298 71.666 407.216 71.5 407.148 71.33 407.086 71.164 407.034 71 407"></polyline>
            <polyline id="Stroke-339" points="104.504 376 104.352 376.886229 104.202 377.778938 104.05 378.670027 103.902 379.569217 103.752 380.468407 103.6 381.367597 103.45 382.273267 103.3 383.180558 103.15 384.089469 103 385"></polyline>
            <polyline id="Stroke-341" points="118 386 118 385.479102 117.993614 384.958204 117.988825 384.435732 117.979246 383.911687 117.96807 383.387642 117.956895 382.862023 117.939333 382.337977 117.920176 381.810785 117.899421 381.286739 117.875474 380.759546 117.84993 380.232354 117.821193 379.708308 117.79086 379.184263 117.75893 378.660218 117.720615 378.136172 117.683895 377.615274 117.643983 377.094376 117.600878 376.573478 117.55458 376.054154 117.505089 375.539551 117.457194 375.024948 117.40451 374.513492 117.350229 374.000463 117.292756 373.493728 117.233686 372.988567 117.171423 372.48498 117.10916 371.984541 117.042107 371.487248 116.973458 370.994677 116.904809 370.502106 116.832967 370.01583 116.757933 369.531127 116.681301 369.051146 116.603073 368.575885 116.523249 368.103772 116.438635 367.634807 116.354021 367.170562 116.267811 366.712613 116.178408 366.256237 116.089004 365.806156 115.994811 365.360796 115.902215 364.921731 115.804829 364.485813 115.705847 364.057764 115.605268 363.632863 115.506286 363.214256 115.402514 362.80037 115.29555 362.392779 115.188585 361.993057 115.083217 361.596482 114.971463 361.207776 114.861305 360.825364 114.746358 360.449248 114.634604 360.077852 114.516464 359.715899 114.39992 359.358667 114.28178 359.010877 114.160447 358.667808 114.04071 358.331034 113.919377 358.002129 113.796448 357.681092 113.668729 357.371072 113.542606 357.061051 113.416484 356.76362 113.287168 356.472483 113.157853 356.192363 113.028537 355.913816 112.899222 355.647859 112.766713 355.389771 112.632608 355.137977 112.5001 354.894052 112.364398 354.661143 112.230293 354.434529 112.094592 354.217357 111.955697 354.008054 111.8184 353.806619 111.681102 353.613053 111.542207 353.430502 111.404909 353.257394 111.267611 353.089007 111.125524 352.93321 110.985033 352.783707 110.844542 352.645221 110.707244 352.514603 110.565157 352.393427 110.424666 352.283268 110.280982 352.177829 110.140491 352.08498 110 352"></polyline>
            <polyline id="Stroke-343" points="95 420.764 94.834 420.614 94.668 420.47 94.5 420.336 94.334 420.214 94.166 420.102 94 420"></polyline>
            <path d="M73.492,432 C73.166,433.043478 73,434.055901 73,435" id="Stroke-345"></path>
            <path d="M178.655501,720 C180.944518,718.680755 181.629307,715.110189 180.39062,710.950105 C179.153529,706.791614 176.235591,702.864151 173,701" id="Stroke-347"></path>
            <path d="M82,440 L82,565" id="Stroke-349"></path>
            <path d="M87,416 L82,437" id="Stroke-351"></path>
            <polyline id="Stroke-353" points="124 270.127789 124.389522 270.094659 124.775837 270.064683 125.157344 270.042596 125.535645 270.023665 125.909137 270.011043 126.279423 270.003155 126.6449 270 127.008774 270.006311 127.372648 270.014199 127.739728 270.031553 128.103602 270.05364 128.465874 270.085193 128.829748 270.124634 129.193622 270.170385 129.557496 270.224025 129.919767 270.287131 130.283641 270.359703 130.644309 270.440162 131.004978 270.531666 131.186113 270.58215 131.368852 270.632635 131.546781 270.686275 131.72952 270.744647 131.909053 270.80302 132.090188 270.866126 132.269721 270.930809 132.44765 271.000225 132.627183 271.071219 132.808319 271.145368 132.987851 271.221095 133.165781 271.303133 133.345313 271.38517 133.523243 271.471941 133.702776 271.561866 133.879102 271.653369 134.057032 271.749606 134.236565 271.848997 134.412891 271.951544 134.590821 272.055668 134.767148 272.164526 134.94668 272.278116 135.123007 272.394861 135.297731 272.513185 135.474057 272.634663 135.650384 272.762452 135.826711 272.890241 135.999831 273.024341 136.172952 273.156863 136.339661 273.294118 136.507973 273.43295 136.674682 273.574938 136.836581 273.720081 137.000084 273.865224 137.158778 274.011945 137.319075 274.163399 137.474563 274.313275 137.626846 274.466306 137.780731 274.62407 137.929807 274.781835 138.080486 274.941176 138.224753 275.100518 138.370623 275.264593 138.513288 275.430246 138.654349 275.59432 138.793807 275.761551 138.928457 275.928781 139.063106 276.100744 139.196153 276.272707 139.329199 276.446247 139.45904 276.619788 139.585675 276.796484 139.834135 277.149876 140.076183 277.508001 140.307011 277.872436 140.53303 278.238449 140.752636 278.607618 140.962625 278.981519 141.1646 279.353843 141.358559 279.730899 141.542901 280.109533 141.72083 280.489745 141.892348 280.871535 142.052645 281.251747 142.208133 281.633536 142.355606 282.018481 142.501476 282.409736 142.636126 282.800992 142.76276 283.200135 142.884586 283.599279 143 284"></polyline>
            <path d="M94,420 L88,416" id="Stroke-355"></path>
            <path d="M110,352.692 L108,351" id="Stroke-357"></path>
            <path d="M128,675 L174,701" id="Stroke-359"></path>
            <path d="M118,562 L118,386" id="Stroke-361"></path>
            <polyline id="Stroke-363" points="63 652 63 651.997299 63.004 651.993248 63.01 651.982444 63.018 651.971641 63.03 651.954085 63.042 651.932478 63.058 651.90817 63.072 651.87846 63.09 651.8474 63.108 651.810939 63.126 651.769075 63.144 651.72316 63.166 651.674544 63.184 651.621877 63.206 651.565159 63.226 651.504389 63.248 651.439568 63.266 651.367995 63.288 651.296421 63.306 651.218096 63.324 651.13707 63.342 651.051992 63.356 650.961512 63.372 650.869683 63.386 650.772451 63.396 650.673869 63.408 650.568535 63.414 650.46185 63.42 650.349764 63.428 650.237677 63.432 650.118839 63.432 650"></polyline>
            <path d="M118,658 L118,597" id="Stroke-365"></path>
            <path d="M118,659 C118,664.889966 122.02927,672.053481 127,675" id="Stroke-367"></path>
            <path d="M82.4900179,437 C82.1640179,438.043478 81.9980179,439.054348 82,440" id="Stroke-369"></path>
            <path d="M108,351 L105,376" id="Stroke-371"></path>
            <path d="M104,384 L95,420" id="Stroke-373"></path>
        </g>
    </g>
</svg>