<?xml version="1.0" encoding="UTF-8"?>
<svg width="512px" height="512px" viewBox="0 0 512 512" version="1.1" xmlns="http://www.w3.org/2000/svg" xmlns:xlink="http://www.w3.org/1999/xlink">
    <!-- Generator: Sketch 58 (84663) - https://sketch.com -->
    <title>CERA</title>
    <desc>Created with Sketch.</desc>
    <g id="CERA" stroke="none" stroke-width="1" fill="none" fill-rule="evenodd">
        <path d="M245,157 C248.170129,157 246.644963,154.206969 248,153 C249.949916,151.263156 254,150.539988 254,147 C254,141 246.731986,145 239,145 C231.268014,145 226,141 226,147 C226,151.017856 231.932311,152.672672 237,154 C239.500063,154.654816 242.445681,157 245,157 Z" id="Oval" fill="#2F2F2F"></path>
        <path d="M148.785714,125 C149.917903,125 149.373201,123.950471 149.857143,123.496933 C150.553541,122.844284 152,122.572542 152,121.242331 C152,118.98773 149.404281,120.490798 146.642857,120.490798 C143.881433,120.490798 142,118.98773 142,121.242331 C142,122.752108 144.118682,123.373933 145.928571,123.872699 C146.821451,124.118758 147.873458,125 148.785714,125 Z" id="Oval" fill="#2F2F2F"></path>
        <path d="M288.5,203 C291,204 292.601223,206.240815 294,206 C300.410339,204.896388 300,199.08023 300,195 C300,190.029437 297.060414,185 288.5,185 C283.335682,185 275.527972,182.45631 273,185 C272.232996,185.771773 275.758557,187.125065 275,189 C274.114452,191.18882 274,193.937881 274,195 C274,199.970563 281.038935,200.015574 288.5,203 Z" id="Oval" fill="#2F2F2F"></path>
        <path d="M217.609908,252.130529 C220.109908,253.130529 221.711131,255.371344 223.109908,255.130529 C229.520247,254.026916 232,245.08023 232,241 C232,236.029437 230.560414,231 222,231 C216.835682,231 210.527972,226.45631 208,229 C207.232996,229.771773 205.758557,235.125065 205,237 C204.114452,239.18882 204,242.937881 204,244 C204,248.970563 210.148843,249.146103 217.609908,252.130529 Z" id="Oval" fill="#2F2F2F"></path>
        <path d="M93,222 C95.5,223 97.1012228,225.240815 98.5,225 C104.910339,223.896388 119,218.08023 119,214 C119,209.029437 113.560414,200.773618 105,200.773618 C99.8356819,200.773618 95,195 95,199 C95,199.981164 84,207 84,213 C84,217.970563 85.5389351,219.015574 93,222 Z" id="Oval" fill="#2F2F2F"></path>
        <path d="M368,282 C395,281 393,268.522847 393,263 C393,257.477153 381.807119,248 368,248 C354.192881,248 343,257.477153 343,263 C343,268.522847 341,283 368,282 Z" id="Oval" fill="#2F2F2F"></path>
        <path d="M290,384.921789 C327.749719,383.335854 324.953444,363.547901 324.953444,354.789025 C324.953444,346.030148 309.304254,331 290,331 C270.695746,331 255.046556,346.030148 255.046556,354.789025 C255.046556,363.547901 252.250281,386.507724 290,384.921789 Z" id="Oval" fill="#2F2F2F"></path>
        <path d="M199,206 C200.862979,206 202.591191,206.971242 203.559841,208.562596 L300,367 L300,367 L281,367 L197.400634,208.652965 C196.934292,207.76966 197.272309,206.675555 198.155614,206.209213 C198.415863,206.071815 198.705708,206 199,206 Z" id="Rectangle" fill="#2F2F2F"></path>
        <path d="M95,170 C96.7203411,170 98.177858,171.267239 98.4169659,172.970882 L136.679608,445.592207 C137.313639,450.10968 134.165488,454.285799 129.648015,454.91983 C129.267673,454.973212 128.88407,455 128.5,455 C123.114279,455 118.611964,450.904061 118.104012,445.542347 L92.2829436,172.986627 C92.1407826,171.486039 93.2420059,170.154327 94.7425947,170.012166 C94.828157,170.00406 94.9140545,170 95,170 Z" id="Rectangle" fill="#2F2F2F"></path>
        <polygon id="Rectangle" fill="#2F2F2F" points="146 122 150 122 179 161 171 161"></polygon>
        <polygon id="Rectangle" fill="#2F2F2F" points="233 146 239 146 377 276 358 276"></polygon>
        <path d="M174,162 C178.136468,162 181.135213,159.363058 183,156 C184.12296,153.974793 183,149 182,148 C179.264265,145.264265 173.627417,147 167,147 C160.372583,147 155,150.962434 155,154 C155,157.037566 167.372583,162 174,162 Z" id="Oval" fill="#2F2F2F"></path>
        <path d="M145.341502,119 C146.939812,119 148.098511,117.982065 148.819056,116.68383 C149.252962,115.902042 148.819056,113.981631 148.432661,113.595602 C147.375587,112.539531 145.197538,113.209574 142.636738,113.209574 C140.075938,113.209574 138,114.739186 138,115.911773 C138,117.08436 142.780702,119 145.341502,119 Z" id="Oval" fill="#2F2F2F"></path>
        <g id="Group" transform="translate(362.329284, 124.053280) rotate(-2.000000) translate(-362.329284, -124.053280) translate(262.329284, -7.446720)">
            <path d="M92.7742904,166.489398 L106.77429,166.489398 L106.77429,260.550004 C105.440957,261.842933 103.107624,262.489398 99.7742904,262.489398 C96.440957,262.489398 94.1076237,261.842933 92.7742904,260.550004 L92.7742904,166.489398 Z" id="Rectangle" stroke="#2F2F2F" stroke-width="4" fill="#EDEDED"></path>
            <path d="M99.7822298,179.454626 C154.45842,179.454626 198.78223,172.227918 198.78223,163.313322 C198.78223,161.911556 198.78223,157.835469 198.78223,151.085061 C160.635526,139.998104 127.635526,134.454626 99.7822298,134.454626 C76.8755745,134.454626 43.8755745,139.998104 0.782229757,151.085061 C0.782229757,157.028952 0.782229757,161.105038 0.782229757,163.313322 C0.782229757,172.227918 45.1060395,179.454626 99.7822298,179.454626 Z" id="Oval" stroke="#2F2F2F" stroke-width="4" fill="#2F2F2F"></path>
            <ellipse id="Oval" stroke="#2F2F2F" stroke-width="4" fill="#EDEDED" cx="100.009076" cy="150.458586" rx="99" ry="16"></ellipse>
            <path d="M98.5846515,148.386473 C113.188581,147.882932 124.959999,145.56886 124.87685,143.21785 C124.863775,142.848168 124.728211,136.07405 124.470157,122.895496 C114.177818,120.32289 105.311862,119.164845 97.8722875,119.42136 C91.7539539,119.632319 82.9914086,121.398192 71.5846515,124.718979 C71.8351826,137.684834 71.9707468,144.458952 71.9913441,145.041334 C72.074493,147.392344 83.9807223,148.890014 98.5846515,148.386473 Z" id="Oval" stroke="#2F2F2F" stroke-width="4" fill="#EDEDED" transform="translate(98.231186, 133.935195) rotate(2.000000) translate(-98.231186, -133.935195) "></path>
            <path d="M98.5849933,128.285057 C113.220301,127.76028 125.017603,125.366001 124.935436,122.937286 C124.852407,120.508571 112.921187,118.965125 98.2858789,119.489903 C83.6505711,120.014681 71.853269,122.40896 71.9354361,124.837675 C72.0184654,127.266389 83.9496855,128.809835 98.5849933,128.285057 Z" id="Oval" stroke="#2F2F2F" stroke-width="4" fill="#EDEDED" transform="translate(98.435436, 123.887480) rotate(2.000000) translate(-98.435436, -123.887480) "></path>
            <path d="M82.6283663,27.3995753 L113.628366,27.3995753 L113.628366,121.460181 C110.675985,122.753111 105.509319,123.399575 98.1283663,123.399575 C90.7474139,123.399575 85.5807472,122.753111 82.6283663,121.460181 L82.6283663,27.3995753 Z" id="Rectangle" stroke="#2F2F2F" stroke-width="4" fill="#2F2F2F"></path>
            <path d="M99.5887116,70.3814281 C154.264902,70.3814281 198.588712,63.15472 198.588712,54.2401237 C198.588712,52.8383579 198.588712,48.762271 198.588712,42.0118629 C160.918968,32.266565 128.157448,27.3939161 100.304151,27.3939161 C77.397496,27.3939161 44.1590161,32.266565 0.588711589,42.0118629 C0.588711589,47.9557534 0.588711589,52.0318403 0.588711589,54.2401237 C0.588711589,63.15472 44.9125214,70.3814281 99.5887116,70.3814281 Z" id="Oval" stroke="#2F2F2F" stroke-width="4" fill="#2F2F2F"></path>
            <ellipse id="Oval" stroke="#2F2F2F" stroke-width="4" fill="#EDEDED" cx="99.7806588" cy="42.3847785" rx="99" ry="16"></ellipse>
            <path d="M15.52298,57.7271109 L29.52298,57.7271109 L29.52298,151.787717 C28.1896467,153.080646 25.8563133,153.727111 22.52298,153.727111 C19.1896467,153.727111 16.8563133,153.080646 15.52298,151.787717 L15.52298,57.7271109 Z" id="Rectangle" fill="#2F2F2F"></path>
            <path d="M170.603056,58.1395787 L184.603056,58.1395787 L184.603056,152.200185 C183.269722,153.493114 180.936389,154.139579 177.603056,154.139579 C174.269722,154.139579 171.936389,153.493114 170.603056,152.200185 L170.603056,58.1395787 Z" id="Rectangle" fill="#2F2F2F"></path>
            <path d="M83.3526591,0.324942572 L114.352659,0.324942572 L114.352659,44.4158517 C111.902613,46.3931057 106.987114,47.3817327 99.6061613,47.3817327 C92.225209,47.3817327 86.8073749,46.3931057 83.3526591,44.4158517 L83.3526591,0.324942572 Z" id="Rectangle" stroke="#2F2F2F" stroke-width="4" fill="#2F2F2F"></path>
        </g>
    </g>
</svg>