<?xml version="1.0" encoding="UTF-8"?>
<svg width="512px" height="512px" viewBox="0 0 512 512" version="1.1" xmlns="http://www.w3.org/2000/svg" xmlns:xlink="http://www.w3.org/1999/xlink">
    <!-- Generator: Sketch 51.3 (57544) - http://www.bohemiancoding.com/sketch -->
    <title>CrochetMatic</title>
    <desc>Created with Sketch.</desc>
    <defs></defs>
    <g id="CrochetMatic" stroke="none" stroke-width="1" fill="none" fill-rule="evenodd">
        <g id="Group" transform="translate(215.000000, 80.000000)" stroke="#2F2F2F" stroke-width="4">
            <rect id="Rectangle-12" fill="#D8D8D8" x="22" y="303" width="49" height="144"></rect>
            <path d="M79,173.898566 L16,179.395828 L16,300.053282 C20.9018054,303.749162 31.4528632,305.715641 47.5,305.715641 C63.5471368,305.715641 74.0981946,303.749162 79,300.053282 L79,173.898566 Z" id="Rectangle-10" fill="#EDEDED"></path>
            <path d="M42.91504,2.02517451 C15.708037,5.58632017 2.5363478,14.6421205 2.5363478,29 C2.5363478,31.7830976 3.61150802,36.2305459 5.84491649,43.0297303 C7.13438332,46.9552651 12.7605852,62.8375469 13.3341134,64.5004854 C16.2813119,73.0458541 18.4744872,80.0496752 20.2282417,86.8068726 C21.1413875,90.3252135 21.9080261,93.6887977 22.5246785,96.9218057 C24.1512334,105.449569 24.2953321,115.925124 23.2353546,128.265043 C22.5565844,136.167069 21.4349038,144.408114 19.8311793,154.048064 C19.24831,157.551677 16.9048899,170.809527 16.4929862,173.431922 C16.0912216,175.989766 15.8697106,177.797362 15.8175523,179.005125 C15.8121468,179.130293 15.8087173,179.247219 15.8070674,179.35542 C16.3401116,179.411023 17.0293033,179.476975 17.8011148,179.543528 C19.8890643,179.723572 22.41613,179.900274 25.1271516,180.047683 C32.28458,180.436859 39.6980869,180.576787 46.6283245,180.367608 C65.1222404,179.809397 77.2640456,176.781896 78.902875,171.617817 C79.3692008,170.148388 77.7709377,162.55119 74.3330213,150.317828 C71.6823938,140.885928 70.3608059,136.525789 61.8003228,108.641731 C61.5857054,107.942658 61.3821578,107.27935 61.1852697,106.637406 C49.3252719,67.9684829 44.4725984,50.1575287 44.4725984,42.3023404 C44.4725984,29.9308051 47.3081802,21.4064908 53.1729793,16.9032018 L48.7706533,2.02517451 L42.91504,2.02517451 Z" id="Rectangle" fill="#EDEDED"></path>
            <path d="M38,144.810852 L38,178.135362 L65.0787577,169.933396 L65.0787577,140.010864 C60.2916357,143.470272 56.4628731,145.517384 53.498637,146.15388 C50.2541334,146.850556 45.1340456,146.386671 38,144.810852 Z" id="Rectangle-3" fill="#D8D8D8"></path>
            <polyline id="Line-13" fill="#EDEDED" stroke-linecap="square" points="32.5 136.5 48.5054586 180.250703 32.5 180.250703"></polyline>
            <path d="M41,18.294171 C28.8349748,27.4001194 22.7524622,35.8869712 22.7524622,43.7547265 C22.7524622,50.6641223 27.4011622,58.6140724 41,120.96903 C42.7043503,128.784014 39.8761378,133.943896 32.5153625,136.448676" id="Line" stroke-linecap="square"></path>
            <rect id="Rectangle-9" fill="#D8D8D8" x="36" y="2" width="21" height="16" rx="8"></rect>
            <path d="M85,164.650001 L85,135.306212 L68.5754906,137.653955 C67.097655,137.865199 66,139.130911 66,140.623768 L66,169.734978 L85,164.650001 Z" id="Rectangle-11" fill="#D8D8D8"></path>
        </g>
        <g id="Group" transform="translate(368.000000, 32.000000)" stroke="#2F2F2F" stroke-width="4">
            <rect id="Rectangle-12" fill="#D8D8D8" x="22" y="303" width="49" height="182"></rect>
            <path d="M79,173.898566 L16,179.395828 L16,300.053282 C20.9018054,303.749162 31.4528632,305.715641 47.5,305.715641 C63.5471368,305.715641 74.0981946,303.749162 79,300.053282 L79,173.898566 Z" id="Rectangle-10" fill="#EDEDED"></path>
            <path d="M42.91504,2.02517451 C15.708037,5.58632017 2.5363478,14.6421205 2.5363478,29 C2.5363478,31.7830976 3.61150802,36.2305459 5.84491649,43.0297303 C7.13438332,46.9552651 12.7605852,62.8375469 13.3341134,64.5004854 C16.2813119,73.0458541 18.4744872,80.0496752 20.2282417,86.8068726 C21.1413875,90.3252135 21.9080261,93.6887977 22.5246785,96.9218057 C24.1512334,105.449569 24.2953321,115.925124 23.2353546,128.265043 C22.5565844,136.167069 21.4349038,144.408114 19.8311793,154.048064 C19.24831,157.551677 16.9048899,170.809527 16.4929862,173.431922 C16.0912216,175.989766 15.8697106,177.797362 15.8175523,179.005125 C15.8121468,179.130293 15.8087173,179.247219 15.8070674,179.35542 C16.3401116,179.411023 17.0293033,179.476975 17.8011148,179.543528 C19.8890643,179.723572 22.41613,179.900274 25.1271516,180.047683 C32.28458,180.436859 39.6980869,180.576787 46.6283245,180.367608 C65.1222404,179.809397 77.2640456,176.781896 78.902875,171.617817 C79.3692008,170.148388 77.7709377,162.55119 74.3330213,150.317828 C71.6823938,140.885928 70.3608059,136.525789 61.8003228,108.641731 C61.5857054,107.942658 61.3821578,107.27935 61.1852697,106.637406 C49.3252719,67.9684829 44.4725984,50.1575287 44.4725984,42.3023404 C44.4725984,29.9308051 47.3081802,21.4064908 53.1729793,16.9032018 L48.7706533,2.02517451 L42.91504,2.02517451 Z" id="Rectangle" fill="#EDEDED"></path>
            <path d="M38,144.810852 L38,178.135362 L65.0787577,169.933396 L65.0787577,140.010864 C60.2916357,143.470272 56.4628731,145.517384 53.498637,146.15388 C50.2541334,146.850556 45.1340456,146.386671 38,144.810852 Z" id="Rectangle-3" fill="#D8D8D8"></path>
            <polyline id="Line-13" fill="#EDEDED" stroke-linecap="square" points="32.5 136.5 48.5054586 180.250703 32.5 180.250703"></polyline>
            <path d="M41,18.294171 C28.8349748,27.4001194 22.7524622,35.8869712 22.7524622,43.7547265 C22.7524622,50.6641223 27.4011622,58.6140724 41,120.96903 C42.7043503,128.784014 39.8761378,133.943896 32.5153625,136.448676" id="Line" stroke-linecap="square"></path>
            <rect id="Rectangle-9" fill="#D8D8D8" x="36" y="2" width="21" height="16" rx="8"></rect>
            <path d="M85,164.650001 L85,135.306212 L68.5754906,137.653955 C67.097655,137.865199 66,139.130911 66,140.623768 L66,169.734978 L85,164.650001 Z" id="Rectangle-11" fill="#D8D8D8"></path>
        </g>
        <g id="Group" transform="translate(62.000000, 147.000000)" stroke="#2F2F2F" stroke-width="4">
            <rect id="Rectangle-12" fill="#D8D8D8" x="22" y="303" width="49" height="144"></rect>
            <path d="M79,173.898566 L16,179.395828 L16,300.053282 C20.9018054,303.749162 31.4528632,305.715641 47.5,305.715641 C63.5471368,305.715641 74.0981946,303.749162 79,300.053282 L79,173.898566 Z" id="Rectangle-10" fill="#EDEDED"></path>
            <path d="M42.91504,2.02517451 C15.708037,5.58632017 2.5363478,14.6421205 2.5363478,29 C2.5363478,31.7830976 3.61150802,36.2305459 5.84491649,43.0297303 C7.13438332,46.9552651 12.7605852,62.8375469 13.3341134,64.5004854 C16.2813119,73.0458541 18.4744872,80.0496752 20.2282417,86.8068726 C21.1413875,90.3252135 21.9080261,93.6887977 22.5246785,96.9218057 C24.1512334,105.449569 24.2953321,115.925124 23.2353546,128.265043 C22.5565844,136.167069 21.4349038,144.408114 19.8311793,154.048064 C19.24831,157.551677 16.9048899,170.809527 16.4929862,173.431922 C16.0912216,175.989766 15.8697106,177.797362 15.8175523,179.005125 C15.8121468,179.130293 15.8087173,179.247219 15.8070674,179.35542 C16.3401116,179.411023 17.0293033,179.476975 17.8011148,179.543528 C19.8890643,179.723572 22.41613,179.900274 25.1271516,180.047683 C32.28458,180.436859 39.6980869,180.576787 46.6283245,180.367608 C65.1222404,179.809397 77.2640456,176.781896 78.902875,171.617817 C79.3692008,170.148388 77.7709377,162.55119 74.3330213,150.317828 C71.6823938,140.885928 70.3608059,136.525789 61.8003228,108.641731 C61.5857054,107.942658 61.3821578,107.27935 61.1852697,106.637406 C49.3252719,67.9684829 44.4725984,50.1575287 44.4725984,42.3023404 C44.4725984,29.9308051 47.3081802,21.4064908 53.1729793,16.9032018 L48.7706533,2.02517451 L42.91504,2.02517451 Z" id="Rectangle" fill="#EDEDED"></path>
            <path d="M38,144.810852 L38,178.135362 L65.0787577,169.933396 L65.0787577,140.010864 C60.2916357,143.470272 56.4628731,145.517384 53.498637,146.15388 C50.2541334,146.850556 45.1340456,146.386671 38,144.810852 Z" id="Rectangle-3" fill="#D8D8D8"></path>
            <polyline id="Line-13" fill="#EDEDED" stroke-linecap="square" points="32.5 136.5 48.5054586 180.250703 32.5 180.250703"></polyline>
            <path d="M41,18.294171 C28.8349748,27.4001194 22.7524622,35.8869712 22.7524622,43.7547265 C22.7524622,50.6641223 27.4011622,58.6140724 41,120.96903 C42.7043503,128.784014 39.8761378,133.943896 32.5153625,136.448676" id="Line" stroke-linecap="square"></path>
            <rect id="Rectangle-9" fill="#D8D8D8" x="36" y="2" width="21" height="16" rx="8"></rect>
            <path d="M85,164.650001 L85,135.306212 L68.5754906,137.653955 C67.097655,137.865199 66,139.130911 66,140.623768 L66,169.734978 L85,164.650001 Z" id="Rectangle-11" fill="#D8D8D8"></path>
        </g>
        <path d="M288.209844,209.62457 C274.676531,202.504688 263.939916,198.944747 256,198.944747 C248.740522,198.944747 236.560543,222.142984 231.780532,316.549491 C229.565921,360.288642 191.718674,393.671347 186.881214,415.203216 C182.043753,436.735086 190.052423,451.103784 195.723591,490.624615 C196.877593,498.666541 191.660137,510.940668 180.071223,527.446995" id="Line-14" stroke="#2F2F2F" stroke-width="10" stroke-linecap="round"></path>
        <path d="M287.134511,208.38633 C283.458863,197.969875 277.651081,192.761648 269.711164,192.761648 C263.682643,192.761648 249.758993,223.85144 240.305498,286.199731 C238.627295,297.267921 227.592079,308.855325 215.984879,328.768296 C204.377678,348.681268 202.226139,395.556814 197.388679,417.088683 C192.551218,438.620553 181.210045,453.457217 186.881214,492.978048 C188.035216,501.019974 191.537704,513.537153 197.388679,530.529584" id="Line-14" stroke="#2F2F2F" stroke-width="10" stroke-linecap="round"></path>
        <path d="M265.804907,208.624682 C256.52334,201.644412 247.62882,205.638925 239.121349,220.60822 C226.360142,243.062164 248.574844,244.781745 239.121349,307.130036 C237.443146,318.198226 218.788688,331.395894 207.181487,351.308866 C195.574286,371.221838 212.018948,409.948646 207.181487,431.480515 C202.344026,453.012385 170.387907,462.141516 176.059075,501.662347 C177.213077,509.704273 177.213077,519.406136 176.059075,530.767936" id="Line-14" stroke="#2F2F2F" stroke-width="10" stroke-linecap="round"></path>
    </g>
</svg>