<?xml version="1.0" encoding="UTF-8"?>
<svg width="512px" height="512px" viewBox="0 0 512 512" version="1.1" xmlns="http://www.w3.org/2000/svg" xmlns:xlink="http://www.w3.org/1999/xlink">
    <!-- Generator: Sketch 51.3 (57544) - http://www.bohemiancoding.com/sketch -->
    <title>distopia</title>
    <desc>Created with Sketch.</desc>
    <defs></defs>
    <g id="distopia" stroke="none" stroke-width="1" fill="none" fill-rule="evenodd">
        <g id="Group-4" transform="translate(196.000000, 54.000000)" stroke="#2F2F2F" stroke-width="4">
            <path d="M151.57208,23.5355333 C150.05227,23.4434345 148.526915,23.5445432 147.032558,23.8364371 C137.27582,25.7422281 130.91137,35.1965757 132.817161,44.9533136 C138.916959,76.1813627 141.966813,107.928569 141.966813,140.193141 C141.966813,171.774315 138.182885,202.554121 130.614828,232.528781 C130.148055,234.37752 129.977992,236.288683 130.111001,238.190793 C130.804458,248.107703 139.405861,255.584788 149.32277,254.89133 L163.484077,253.901074 C164.649706,253.819566 165.804629,253.62475 166.932498,253.319386 C176.52815,250.721418 182.200893,240.836535 179.602925,231.240884 C171.11485,199.889998 167.708662,168.793836 169.387788,137.95976 C171.092187,106.661589 173.781938,75.3940082 177.457031,44.1570764 C177.496707,43.8198462 177.526833,43.4815607 177.547372,43.1426263 C178.148689,33.2197048 170.592037,24.6881233 160.669115,24.0868055 L151.57208,23.5355333 Z" id="Rectangle-6" fill="#FFFFFF" transform="translate(155.150305, 139.219288) rotate(4.000000) translate(-155.150305, -139.219288) "></path>
            <path d="M156.361998,280.770531 C171.273686,280.770531 185.244961,259.225397 185.244961,241 C185.244961,222.774603 161.911688,208 147,208 C132.088312,208 120,222.774603 120,241 C120,259.225397 141.45031,280.770531 156.361998,280.770531 Z" id="Oval-4" fill="#2F2F2F"></path>
            <path d="M167.142826,56.4999426 C182.054514,56.4999426 192.224978,44.3693546 192.224978,28.0629982 C192.224978,11.7566418 169.716171,6 154.804482,6 C139.892794,6 131,6.88127557 131,23.1876319 C131,39.4939883 152.231138,56.4999426 167.142826,56.4999426 Z" id="Oval-4" fill="#2F2F2F"></path>
            <ellipse id="Oval-4" fill="#CCCCCC" cx="159" cy="247" rx="27" ry="33"></ellipse>
            <path d="M138.273922,-28.4328247 C137.446775,-28.4328247 136.620362,-28.3835136 135.799083,-28.285154 C124.386506,-26.9183381 116.242809,-16.5585933 117.60963,-5.14601769 C118.798516,4.78088594 119.393036,14.6529958 119.393036,24.4699175 C119.393036,34.788911 118.736149,45.4383668 117.42288,56.4181893 C117.323889,57.2458211 117.274261,58.0786127 117.274261,58.9121436 C117.274261,70.5099362 126.67613,79.9118046 138.273922,79.9118046 C139.074409,79.9118046 139.87424,79.866004 140.669494,79.7746272 C152.183923,78.4515896 160.445684,68.0447661 159.122665,56.5303312 C157.910546,45.9812311 157.304488,35.3782484 157.304488,24.7217575 C157.304488,14.5020163 157.861887,4.51937922 158.976936,-5.22586739 C159.066918,-6.01228116 159.112019,-6.80318317 159.112019,-7.59472814 C159.112019,-19.1032911 149.782485,-28.4328247 138.273922,-28.4328247 Z" id="Rectangle-6" fill="#FFFFFF" transform="translate(138.268108, 25.739490) rotate(-92.000000) translate(-138.268108, -25.739490) "></path>
            <g id="Group-3" transform="translate(74.000000, 1.000000)">
                <ellipse id="Oval-4" fill="#2F2F2F" cx="23.5" cy="25" rx="17.5" ry="25"></ellipse>
                <ellipse id="Oval-4" fill="#2F2F2F" cx="20.5" cy="25" rx="17.5" ry="25"></ellipse>
                <ellipse id="Oval-4" fill="#CCCCCC" cx="17.5" cy="25" rx="17.5" ry="25"></ellipse>
            </g>
            <path d="M69.8945657,2.8037844 C69.2049493,2.8037844 68.5159585,2.84530507 67.8313329,2.92812103 C58.411345,4.06761295 51.6986741,12.6277632 52.8381581,22.0477536 C53.4665693,27.2427236 53.780846,32.4159806 53.780846,37.567112 C53.780846,43.0921389 53.4192909,48.7558179 52.696639,54.5578993 C52.6081401,55.2684587 52.5637631,55.9838199 52.5637631,56.6998692 C52.5637631,66.2714072 60.3230277,74.0306719 69.8945657,74.0306719 C70.5691086,74.0306719 71.2430774,73.9913316 71.9130392,73.9128513 C81.4295151,72.7980787 88.2404299,64.1797511 87.1256236,54.663286 C86.4672988,49.0433667 86.1381289,43.4007213 86.1381289,37.7357461 C86.1381289,32.3900269 86.4312432,27.1397574 87.0176582,21.9852667 C87.0912286,21.3385581 87.1281024,20.688201 87.1281024,20.0373211 C87.1281024,10.5195016 79.4123852,2.8037844 69.8945657,2.8037844 Z" id="Rectangle-6" fill="#FFFFFF" transform="translate(69.904548, 38.417228) rotate(-125.000000) translate(-69.904548, -38.417228) "></path>
            <g id="Group-2" transform="translate(49.177741, 56.861216) rotate(-60.000000) translate(-49.177741, -56.861216) translate(40.677741, 31.861216)">
                <ellipse id="Oval-4" fill="#2F2F2F" cx="9" cy="25" rx="6" ry="25"></ellipse>
                <ellipse id="Oval-4" fill="#2F2F2F" cx="11" cy="25" rx="6" ry="25"></ellipse>
                <ellipse id="Oval-4" fill="#CCCCCC" cx="6" cy="25" rx="6" ry="25"></ellipse>
            </g>
            <path d="M21.191822,75.2868556 C20.4609702,75.8663377 20.0412202,76.752782 20.0560763,77.6853744 C20.0718356,78.6749081 20.0796947,79.8287357 20.0796947,81.1475359 C20.0796947,87.7916215 18.9415151,94.7175376 16.6720459,101.921957 C16.6188924,102.090693 16.5807685,102.263799 16.5581199,102.439253 C16.3460031,104.082472 17.5061409,105.586519 19.1493591,105.798638 C28.6428451,107.024115 34.9189952,107.637121 37.8847746,107.637121 C40.7174497,107.637121 45.8826071,107.073903 53.3084319,105.945237 C53.4634891,105.921669 53.6164595,105.885979 53.7659362,105.838493 C55.3450247,105.336851 56.2184678,103.650086 55.7168261,102.070997 C53.5311538,95.1908513 52.4369775,88.251842 52.4369775,81.2607403 C52.4369775,74.7043023 51.8032499,66.878857 50.5332087,57.7915804 C50.4592012,57.2620491 50.2450177,56.7619184 49.9128276,56.3429551 C48.8834402,55.0446757 46.9964934,54.8266956 45.698214,55.8560829 L21.1918221,75.2868555 Z" id="Rectangle-6" fill="#FFFFFF" transform="translate(36.195928, 81.421874) rotate(-153.000000) translate(-36.195928, -81.421874) "></path>
            <g id="Group-2" transform="translate(32.598588, 99.370122) rotate(-96.000000) translate(-32.598588, -99.370122) translate(24.098588, 74.370122)">
                <ellipse id="Oval-4" fill="#2F2F2F" cx="9" cy="25" rx="6" ry="25"></ellipse>
                <ellipse id="Oval-4" fill="#2F2F2F" cx="11" cy="25" rx="6" ry="25"></ellipse>
                <ellipse id="Oval-4" fill="#CCCCCC" cx="6" cy="25" rx="6" ry="25"></ellipse>
            </g>
            <path d="M58.0563706,175.330839 C62.2687011,178.677129 65.5428003,182.251801 67.8675007,186.060846 C68.6568102,187.354138 69.6622315,189.474519 71.1919366,192.975983 C71.6985275,194.13556 74.6094295,200.919748 75.4904829,202.928706 C76.3344369,204.853071 77.0941972,206.542914 77.8175786,208.096074 C81.0330123,214.999879 83.7016288,219.256226 84.6480302,219.45914 C86.1938194,219.790565 87.6784769,221.003833 90.3890926,223.781562 C90.9535919,224.360037 96.7044119,230.457007 98.9521636,232.746872 C100.638328,234.464628 103.634977,235.17337 108.024386,234.717887 C95.7832175,205.807435 89.8452582,190.599176 89.7107844,187.548878 C89.614123,185.356288 85.0830856,176.47099 76.4533128,161.915746 C70.7053464,161.30188 66.5565132,161.211932 64.0837549,161.622825 C63.4777389,161.723525 62.5092436,162.775573 61.440933,164.990286 C60.2946836,167.366574 59.1605423,170.820691 58.0563706,175.330839 Z" id="Rectangle-7" fill="#F5F5F5" transform="translate(83.345057, 198.111230) rotate(25.000000) translate(-83.345057, -198.111230) "></path>
            <path d="M23.37888,188.699533 C26.5324848,191.2925 29.2145116,194.399928 31.4200642,198.013748 C32.2093738,199.30704 33.2147951,201.427421 34.7445002,204.928885 C35.2510911,206.088462 38.1619931,212.87265 39.0430465,214.881608 C39.8870004,216.805973 40.6467607,218.495815 41.3701422,220.048976 C44.5855759,226.952781 47.2541924,231.209128 48.2005938,231.412042 C49.7463829,231.743467 51.2310405,232.956735 53.9416562,235.734463 C54.5061555,236.312939 60.2569755,242.409909 62.5047271,244.699774 C64.1908911,246.41753 67.187541,247.126272 71.57695,246.670789 C59.3357811,217.760337 53.3978218,202.552078 53.2633479,199.50178 C53.1669693,197.315602 48.6621133,188.475805 40.0814848,173.996204 C36.1783944,174.085434 33.3035229,174.886153 31.431879,176.324658 C29.4465006,177.850578 26.7036649,182.014861 23.37888,188.699533 Z" id="Rectangle-7" fill="#F5F5F5" transform="translate(47.650691, 210.395643) scale(-1, 1) rotate(-300.000000) translate(-47.650691, -210.395643) "></path>
            <path d="M17.5499048,166.750546 L17.5499048,178.510465 C22.9340564,177.961329 27.1644326,178.009276 30.2814898,178.67759 C33.3222368,179.329542 36.9977078,180.934269 41.347021,183.485471 C42.4047619,179.781076 42.8812136,176.890734 42.79157,174.857328 C42.6957282,172.683329 41.8787804,169.971105 40.3161979,166.750546 L17.5499048,166.750546 Z" id="Rectangle-7" fill="#D8D8D8" transform="translate(30.176002, 175.640752) scale(-1, 1) rotate(-357.000000) translate(-30.176002, -175.640752) "></path>
            <path d="M14.5028227,99.2508827 C14.0765955,99.1368729 13.6304673,99.118281 13.1962321,99.1964321 C11.565575,99.4899081 10.4815763,101.049726 10.775054,102.680383 C14.4211228,122.93924 16.2448885,136.717318 16.2448885,144.118908 C16.2448885,151.345179 17.1512429,158.454865 18.9644757,165.452008 C19.1889627,166.318288 19.7884654,167.039125 20.599319,167.417735 C25.3021545,169.613589 31.2239994,170.627704 38.3752903,170.429233 C46.3221399,170.208683 51.7931536,169.11031 54.6959113,167.260597 C54.808725,167.188709 54.9165941,167.109363 55.0188274,167.023063 C57.8243192,164.654914 59.9607074,161.296668 61.4183096,156.905881 C62.972066,152.225445 70.4355784,140.75475 84.013954,122.063608 C84.2302023,121.765934 84.3898482,121.43102 84.484922,121.075585 C84.9130566,119.474998 83.9625963,117.830394 82.3620096,117.40226 L14.5028229,99.2508827 Z" id="Rectangle-6" fill="#FFFFFF" transform="translate(47.657404, 134.801300) scale(-1, 1) rotate(-172.000000) translate(-47.657404, -134.801300) "></path>
            <path d="M67.2320484,151.160928 L67.2320484,162.920847 C72.6162001,162.371711 76.8465762,162.419658 79.9636334,163.087972 C83.0043804,163.739924 86.6798514,165.344651 91.0291647,167.895853 C92.0869056,164.191458 92.5633572,161.301116 92.4737136,159.26771 C92.3778718,157.093711 91.560924,154.381487 89.9983415,151.160928 L67.2320484,151.160928 Z" id="Rectangle-7" fill="#D8D8D8" transform="translate(79.858145, 160.051134) rotate(-25.000000) translate(-79.858145, -160.051134) "></path>
            <path d="M77,215 C80.1186124,210.965465 82.5352791,208.386479 84.25,207.263041 C85.9647209,206.139604 88.3813876,205.551923 91.5,205.5" id="Line-12" stroke-linecap="square"></path>
            <path d="M45.348147,220.524839 C48.4667594,216.490304 50.883426,213.911318 52.598147,212.78788 C54.3128679,211.664443 56.7295346,211.076762 59.848147,211.024839" id="Line-12" stroke-linecap="square" transform="translate(52.598147, 215.774839) scale(-1, 1) rotate(35.000000) translate(-52.598147, -215.774839) "></path>
        </g>
        <g id="Group" transform="translate(33.000000, 319.000000)" stroke="#2F2F2F" stroke-width="4">
            <path d="M87.6675812,2 L3.54537419,141.209289 L442.507001,141.209289 L360.796313,2 L87.6675812,2 Z" id="Rectangle-5" fill="#FFFFFF"></path>
            <path d="M171.155182,126.957684 C169.265222,126.699684 165.614582,125.949765 163.035125,125.315658 C160.45259,124.682699 153.089748,123.322753 146.791933,122.313687 C136.52951,120.695741 134.768831,120.484754 130.425616,120.366648 C126.522571,120.272621 125.137421,120.343714 123.373663,120.694594 C121.674546,121.022541 120.289396,121.093634 117.580658,120.999607 C114.056221,120.882647 113.991581,120.882647 110.845751,119.310568 C109.081994,118.442542 107.321314,117.434622 106.942706,117.082596 C106.502536,116.707636 106.123929,113.916651 105.936164,110.445693 C105.748399,107.162788 105.305151,104.277776 104.991184,104.043856 C104.677217,103.832869 100.647969,102.589883 96.0523493,101.299884 C91.2689647,99.9628714 87.3659198,98.6728721 86.9226718,98.3219923 C86.482502,97.9699658 84.7187443,96.3290866 83.0811892,94.6870608 L80,91.6862357 L81.0711827,90.6072229 C81.8253199,89.81029 83.0227051,89.2472769 85.4143974,88.543224 C88.6248673,87.6052511 90.0100173,86.6672783 90.0100173,85.4242922 C90.0100173,85.143359 88.8772724,84.1113596 87.4921224,83.1263734 C85.0357897,81.3914676 84.9742275,81.273361 85.0357897,79.0694688 C85.097352,75.4104574 86.5471423,69.1026473 87.4274821,68.4696876 C88.8126321,67.5076348 96.4925192,64.7177962 98.758009,64.3416898 C99.8907539,64.1547832 102.534851,64.0137433 104.486374,64.0137433 L108.201654,64.0137433 L110.153176,62.7237439 C112.671071,61.0587848 114.561031,60.6127317 119.849226,60.3077185 C122.179356,60.1666786 124.192441,60.0267853 124.318643,59.979772 C124.383284,59.9327587 126.774976,58.6198261 129.545276,57.0718269 C132.377138,55.5008943 135.464484,53.9999084 136.406386,53.7648419 C137.351366,53.506842 142.008548,52.4748426 146.668808,51.4669231 C160.769635,48.442018 161.209805,48.2069514 163.038203,42.7901009 C165.051288,36.739144 166.12247,34.9813049 168.38796,34.136212 C169.459143,33.7371722 171.032057,33.1982392 172.0386,32.9402393 L173.737717,32.4712529 L170.841215,30.6423205 C167.944712,28.8604014 167.944712,28.7893081 168.009352,26.8663491 C168.135555,24.2863504 168.449522,23.9584039 173.359109,21.1674187 C177.449919,18.8454199 177.702324,18.7513933 182.110179,17.9785403 C184.628074,17.5324872 188.469557,17.0635008 190.670406,16.9236075 C192.874334,16.7825676 195.392229,16.4775544 196.272568,16.2436346 C201.120593,14.9307019 200.114051,15.0006485 215.913995,15.0006485 C225.231437,15.0006485 245.251472,15.3056617 270.054891,15.8445948 C302.22423,16.5245677 312.169607,16.8295809 324.76216,17.4625406 C339.743326,18.2365402 340.186574,18.2594735 342.011894,18.9394465 C343.335482,19.4325129 344.028057,19.9943793 344.403586,20.7924589 C345.348567,22.9034711 345.031521,23.8884573 342.513626,26.6782958 C340.562104,28.8592547 339.869529,30.0552274 339.241594,32.4712529 C338.736784,34.6051984 338.044209,35.9422111 336.973026,36.9501306 L335.461674,38.3811698 L337.727164,41.289115 C338.986111,42.8841275 340.937633,44.8529531 342.135019,45.6739661 C344.779116,47.4558851 344.840678,47.8790049 342.766031,52.0287894 C341.882613,53.7636952 341.190039,55.4768143 341.190039,55.8276942 C341.190039,56.2496673 342.322783,57.0236669 344.400508,58.0315864 C347.170808,59.368599 347.67254,59.8135054 348.177351,61.1505181 C348.869926,62.8384105 348.491318,64.3634764 347.358573,64.9024095 C346.792201,65.137476 346.918403,65.7463557 347.737181,67.3654482 C349.624063,71.0944063 350.002671,71.4922994 353.403983,74.0493648 C355.290865,75.4333907 359.070786,78.5752558 361.902648,81.0382945 C366.750673,85.3061856 367,85.6111988 367,87.2532246 C367,89.76213 366.873797,89.8561566 362.530583,90.442103 C358.941505,90.9340227 358.627538,90.9340227 357.180826,90.5831429 C356.300486,90.3950897 350.947651,87.6281844 345.219286,84.4393061 C335.021504,78.8344023 331.998799,77.3563497 329.668669,76.8873633 C327.717146,76.4883235 330.425884,78.2943226 333.950321,79.7253618 C335.649439,80.4282681 337.788726,81.5783742 338.607503,82.2583472 C340.115778,83.4543199 340.115778,83.5013332 339.109235,84.7202393 C338.228896,85.7281587 337.597883,86.0331719 335.523236,86.479225 C334.138086,86.7613049 332.626733,87.2532246 332.125001,87.5341578 C331.620191,87.815091 330.173479,90.4650363 328.976094,93.3970615 C326.205794,99.8699915 326.079591,99.9869514 318.778312,100.783884 C314.370457,101.276951 313.991849,101.369831 312.231169,102.42591 C311.159987,103.05887 309.460869,103.738843 308.328124,103.949829 C307.19538,104.160816 298.191905,104.981829 288.30809,105.778762 C276.977563,106.669721 268.792866,107.466654 266.148768,107.889774 C258.407319,109.155693 237.756272,111.102732 225.606967,111.735692 C219.499995,112.063639 214.27644,112.321638 214.024035,112.321638 C213.77163,112.321638 211.00133,113.564624 207.917063,115.088544 L202.188698,117.855449 L199.165993,117.714409 C196.648098,117.597449 195.767758,117.667396 194.191765,118.089369 C191.60923,118.769342 183.36297,119.660301 181.159043,119.496328 C180.214063,119.426381 179.395285,119.426381 179.395285,119.520408 C179.395285,119.778408 183.172128,121.86534 184.431075,122.287313 C185.816225,122.7563 186.130192,124.257286 185.12365,125.265205 C184.366435,126.015125 179.521488,127.258111 176.81275,127.352137 C175.498397,127.426671 173.232907,127.262697 171.155182,126.957684 Z" id="Shape" fill="#FFFFFF" fill-rule="nonzero" transform="translate(223.500000, 71.184998) scale(1, -1) translate(-223.500000, -71.184998) "></path>
            <path d="M215,31 L273,126" id="Line-11" stroke-linecap="round"></path>
            <path d="M223,48 L127,81" id="Line-11" stroke-linecap="round"></path>
            <path d="M341,98 L249,87" id="Line-11" stroke-linecap="round"></path>
        </g>
        <g id="Group-5" transform="translate(294.000000, 350.000000)" stroke="#2F2F2F" stroke-width="4">
            <path d="M5.5,11 L5.5,25.1 C5.5,27.8061953 7.69380473,30 10.4,30 L32.6,30 C35.3061953,30 37.5,27.8061953 37.5,25.1 L37.5,11 L5.5,11 Z" id="Rectangle-8" fill="#D8D8D8"></path>
            <path d="M12.2378993,2 C10.5209483,2 8.92905505,2.89801144 8.04106455,4.36749888 L5.88348075,7.93796758 C5.64301831,8.33589587 5.51591502,8.79198949 5.51591502,9.25692938 C5.51591502,10.6653904 6.65769827,11.8071736 8.06615928,11.8071736 L34.9950375,11.8071736 C35.4548157,11.8071736 35.9062639,11.6844698 36.3027828,11.451728 C37.5332658,10.7294801 37.9452717,9.14647907 37.2230239,7.91599614 L35.171807,4.42136832 C34.2913595,2.92136299 32.6821994,2 30.9428881,2 L12.2378993,2 Z" id="Rectangle-5" fill="#FFFFFF"></path>
        </g>
        <g id="Group-5" transform="translate(317.000000, 401.000000)" stroke="#2F2F2F" stroke-width="4">
            <path d="M5.5,11 L5.5,25.1 C5.5,27.8061953 7.69380473,30 10.4,30 L32.6,30 C35.3061953,30 37.5,27.8061953 37.5,25.1 L37.5,11 L5.5,11 Z" id="Rectangle-8" fill="#D8D8D8"></path>
            <path d="M12.2378993,2 C10.5209483,2 8.92905505,2.89801144 8.04106455,4.36749888 L5.88348075,7.93796758 C5.64301831,8.33589587 5.51591502,8.79198949 5.51591502,9.25692938 C5.51591502,10.6653904 6.65769827,11.8071736 8.06615928,11.8071736 L34.9950375,11.8071736 C35.4548157,11.8071736 35.9062639,11.6844698 36.3027828,11.451728 C37.5332658,10.7294801 37.9452717,9.14647907 37.2230239,7.91599614 L35.171807,4.42136832 C34.2913595,2.92136299 32.6821994,2 30.9428881,2 L12.2378993,2 Z" id="Rectangle-5" fill="#FFFFFF"></path>
        </g>
        <g id="Group-5" transform="translate(213.000000, 380.000000)" stroke="#2F2F2F" stroke-width="4">
            <path d="M5.5,11 L5.5,25.1 C5.5,27.8061953 7.69380473,30 10.4,30 L32.6,30 C35.3061953,30 37.5,27.8061953 37.5,25.1 L37.5,11 L5.5,11 Z" id="Rectangle-8" fill="#D8D8D8"></path>
            <path d="M12.2378993,2 C10.5209483,2 8.92905505,2.89801144 8.04106455,4.36749888 L5.88348075,7.93796758 C5.64301831,8.33589587 5.51591502,8.79198949 5.51591502,9.25692938 C5.51591502,10.6653904 6.65769827,11.8071736 8.06615928,11.8071736 L34.9950375,11.8071736 C35.4548157,11.8071736 35.9062639,11.6844698 36.3027828,11.451728 C37.5332658,10.7294801 37.9452717,9.14647907 37.2230239,7.91599614 L35.171807,4.42136832 C34.2913595,2.92136299 32.6821994,2 30.9428881,2 L12.2378993,2 Z" id="Rectangle-5" fill="#FFFFFF"></path>
        </g>
        <g id="Group-5" transform="translate(159.000000, 335.000000)" stroke="#2F2F2F" stroke-width="4">
            <path d="M5.5,11 L5.5,25.1 C5.5,27.8061953 7.69380473,30 10.4,30 L32.6,30 C35.3061953,30 37.5,27.8061953 37.5,25.1 L37.5,11 L5.5,11 Z" id="Rectangle-8" fill="#D8D8D8"></path>
            <path d="M12.2378993,2 C10.5209483,2 8.92905505,2.89801144 8.04106455,4.36749888 L5.88348075,7.93796758 C5.64301831,8.33589587 5.51591502,8.79198949 5.51591502,9.25692938 C5.51591502,10.6653904 6.65769827,11.8071736 8.06615928,11.8071736 L34.9950375,11.8071736 C35.4548157,11.8071736 35.9062639,11.6844698 36.3027828,11.451728 C37.5332658,10.7294801 37.9452717,9.14647907 37.2230239,7.91599614 L35.171807,4.42136832 C34.2913595,2.92136299 32.6821994,2 30.9428881,2 L12.2378993,2 Z" id="Rectangle-5" fill="#FFFFFF"></path>
        </g>
    </g>
</svg>