<?xml version="1.0" encoding="UTF-8"?>
<svg width="512px" height="512px" viewBox="0 0 512 512" version="1.1" xmlns="http://www.w3.org/2000/svg" xmlns:xlink="http://www.w3.org/1999/xlink">
    <!-- Generator: Sketch 64 (93537) - https://sketch.com -->
    <title>Ori</title>
    <desc>Created with Sketch.</desc>
    <g id="Ori" stroke="none" stroke-width="1" fill="none" fill-rule="evenodd">
        <path d="M369.008424,84 L142.991576,84 C130.203387,84 118.36456,88.6497536 109.222324,96.4571417 C100.080089,104.26453 93.6344459,115.229553 91.6326247,127.860091 L56.1479343,351.75159 C56.0494639,352.372891 56,353.000974 56,353.63003 L56,389 C56,400.045695 60.4771525,410.045695 67.7157288,417.284271 C74.954305,424.522847 84.954305,429 96,429 L416,429 C427.045695,429 437.045695,424.522847 444.284271,417.284271 C451.522847,410.045695 456,400.045695 456,389 L456,353.63003 C456,353.000974 455.950536,352.372891 455.852066,351.75159 L420.367375,127.860091 C418.365554,115.229553 411.919911,104.26453 402.777676,96.4571417 C393.63544,88.6497536 381.796613,84 369.008424,84 Z" id="Rectangle" stroke="#2F2F2F" stroke-width="8" fill="#2F2F2F"></path>
        <path d="M368.997786,84 L143.002214,84 C130.211501,84 118.370732,88.6515418 109.227895,96.4614694 C100.085059,104.271397 93.6401567,115.239711 91.6411783,127.873254 L56.8310517,347.873254 C56.4057319,350.561275 56.1920875,353.278538 56.1920875,356 C56.1920875,370.359403 62.0123857,383.359403 71.4225349,392.769553 C80.832684,402.179702 93.832684,408 108.192087,408 L403.807913,408 C406.529375,408 409.246637,407.786356 411.934659,407.361036 C426.117617,405.116897 438.048259,397.336431 445.872127,386.571259 C453.695994,375.806088 457.413087,362.056212 455.168948,347.873254 L420.358822,127.873254 C418.359843,115.239711 411.914941,104.271397 402.772105,96.4614694 C393.629268,88.6515418 381.788499,84 368.997786,84 Z" id="Rectangle" stroke="#2F2F2F" stroke-width="8" fill="#EDEDED"></path>
        <path d="M280.690629,144 L231.309371,144 C226.371217,144 221.802737,145.802293 218.281862,148.824889 C214.760986,151.847485 212.287716,156.090386 211.539981,160.971601 L204.18704,208.971601 C204.033522,209.973763 203.95643,210.986148 203.95643,212 C203.95643,217.522847 206.195006,222.522847 209.814295,226.142136 C213.433583,229.761424 218.433583,232 223.95643,232 L288.04357,232 C289.057422,232 290.069807,231.922908 291.071969,231.76939 C296.531136,230.933121 301.134518,227.963257 304.164042,223.837668 C307.193565,219.71208 308.64923,214.430767 307.81296,208.971601 L300.460019,160.971601 C299.712284,156.090386 297.239014,151.847485 293.718138,148.824889 C290.197263,145.802293 285.628783,144 280.690629,144 Z" id="Rectangle" stroke="#2F2F2F" stroke-width="8"></path>
        <line x1="87" y1="374" x2="199" y2="241" id="Line-15" stroke="#2F2F2F" stroke-width="8" stroke-linecap="round"></line>
        <line x1="121" y1="105" x2="205" y2="140" id="Line-15" stroke="#2F2F2F" stroke-width="8" stroke-linecap="round"></line>
        <line x1="313" y1="374" x2="425" y2="241" id="Line-15" stroke="#2F2F2F" stroke-width="8" stroke-linecap="round" transform="translate(369.000000, 307.500000) scale(-1, 1) translate(-369.000000, -307.500000) "></line>
        <line x1="307" y1="105" x2="391" y2="140" id="Line-15" stroke="#2F2F2F" stroke-width="8" stroke-linecap="round" transform="translate(349.000000, 122.500000) scale(-1, 1) translate(-349.000000, -122.500000) "></line>
    </g>
</svg>